<?xml version="1.0" encoding="utf-8"?>
<svg version="1.1" id="ylp-logo-icon" xmlns="http://www.w3.org/2000/svg" xmlns:xlink="http://www.w3.org/1999/xlink" viewBox="0 0 135 135" xml:space="preserve">
<style type="text/css">
  .ylp-icon-color { fill: #109182; }
</style>
<g style="transform: translate(-30px, -25px);">
  <g>
    <path class="ylp-icon-color" d="M56.2,135.4c-1.7,0-3.4-0.7-4.7-2c-2.6-2.6-2.6-6.9,0-9.5l71.1-71.3c1.2-1.2,1.9-2.8,1.9-4.6
      c0-1.8-0.7-3.4-2-4.7c-2.6-2.6-6.7-2.6-9.3-0.1L66.2,90.2c-3.7,3.7-8.7,5.8-14,5.8c0,0-0.1,0-0.1,0c-5.3,0-10.3-2.1-14.1-5.9
      c-3.8-3.8-5.9-8.8-5.9-14.1c0-5.3,2-10.4,5.8-14.1l32.2-32.2c2.6-2.6,6.9-2.6,9.5,0c2.6,2.6,2.6,6.9,0,9.5L47.3,71.4
      c-1.2,1.2-1.9,2.8-1.9,4.6c0,1.8,0.7,3.4,2,4.7c1.3,1.3,2.9,2,4.7,2c1.7,0.1,3.4-0.7,4.6-1.9l46.9-46.9
      c7.8-7.8,20.4-7.7,28.2,0.1c3.8,3.8,5.9,8.8,5.9,14.1c0,5.3-2,10.4-5.8,14.1l-71.1,71.3C59.6,134.7,57.9,135.4,56.2,135.4z"/>
  </g>
  <g>
    <path class="ylp-icon-color" d="M108.3,153.3c0,0-0.1,0-0.1,0c-5.3,0-10.3-2.1-14.1-5.9c-3.8-3.8-5.9-8.8-5.9-14.1c0-5.3,2-10.4,5.8-14.1
      l32.3-32.3c2.6-2.6,6.9-2.6,9.5,0c2.6,2.6,2.6,6.9,0,9.5l-32.3,32.3c-1.2,1.2-1.9,2.8-1.9,4.6c0,1.8,0.7,3.4,2,4.7
      c1.3,1.3,2.9,2,4.7,2c1.7-0.1,3.4-0.7,4.6-1.9l13-13c2.6-2.6,6.9-2.6,9.5,0c2.6,2.6,2.6,6.9,0,9.5l-13,13
      C118.6,151.2,113.6,153.3,108.3,153.3z"/>
  </g>
</g>
</svg>
