<?xml version="1.0" encoding="utf-8"?>
<!-- Generator: Adobe Illustrator 16.0.0, SVG Export Plug-In . SVG Version: 6.00 Build 0)  -->
<!DOCTYPE svg PUBLIC "-//W3C//DTD SVG 1.1//EN" "http://www.w3.org/Graphics/SVG/1.1/DTD/svg11.dtd">
<svg version="1.1" id="Layer_1" xmlns="http://www.w3.org/2000/svg" xmlns:xlink="http://www.w3.org/1999/xlink" x="0px" y="0px"
	 width="180.575px" height="42px" viewBox="0 0 180.575 42" enable-background="new 0 0 180.575 42" xml:space="preserve">
<g id="Layer_1_1_" display="none">
	<g display="inline" opacity="0.7">
		<g opacity="0.7">
			<polygon fill="#FFFFFF" points="132.116,1 10.115,1 0.114,11.083 10.115,20 132.116,20 142.116,11.025 			"/>
		</g>
	</g>
</g>
<g id="Layer_2">
	<polygon opacity="0.7" fill="#FFFFFF" enable-background="new    " points="179.195,20.77 168.201,11.588 168.201,1.229 
		11.959,1.229 11.959,11.586 0.961,20.77 11.959,30.322 11.959,40.686 168.201,40.686 168.201,30.318 	"/>
	<path fill="#15A0D7" d="M47.119,0.229c-0.56,0-1,0.45-1,1s0.44,1,1,1c0.55,0,1-0.45,1-1S47.668,0.229,47.119,0.229z"/>
	<path fill="#15A0D7" d="M37.119,0.229c-0.56,0-1,0.45-1,1s0.44,1,1,1c0.55,0,1-0.45,1-1S37.668,0.229,37.119,0.229z"/>
	<path fill="#15A0D7" d="M42.119,0.229c-0.56,0-1,0.45-1,1s0.44,1,1,1c0.55,0,1-0.45,1-1S42.668,0.229,42.119,0.229z"/>
	<path fill="#15A0D7" d="M52.119,0.229c-0.56,0-1,0.45-1,1s0.44,1,1,1c0.55,0,1-0.45,1-1S52.668,0.229,52.119,0.229z"/>
	<path fill="#15A0D7" d="M67.119,0.229c-0.56,0-1,0.45-1,1s0.44,1,1,1c0.55,0,1-0.45,1-1S67.668,0.229,67.119,0.229z"/>
	<path fill="#15A0D7" d="M62.119,0.229c-0.56,0-1,0.45-1,1s0.44,1,1,1c0.55,0,1-0.45,1-1S62.668,0.229,62.119,0.229z"/>
	<path fill="#15A0D7" d="M57.119,0.229c-0.56,0-1,0.45-1,1s0.44,1,1,1c0.55,0,1-0.45,1-1S57.668,0.229,57.119,0.229z"/>
	<path fill="#15A0D7" d="M7.542,13.755c-0.38,0.39-0.38,1.02,0.01,1.41c0.19,0.19,0.45,0.29,0.7,0.29c0.26,0,0.52-0.1,0.71-0.3
		c0.39-0.39,0.39-1.021,0-1.41C8.572,13.355,7.932,13.355,7.542,13.755z"/>
	<path fill="#15A0D7" d="M3.907,17.007c-0.391,0.39-0.38,1.02,0.01,1.41c0.19,0.19,0.45,0.29,0.7,0.29c0.26,0,0.52-0.1,0.71-0.3
		c0.39-0.39,0.39-1.02,0-1.41C4.927,16.607,4.297,16.607,3.907,17.007z"/>
	<path fill="#15A0D7" d="M17.119,0.229c-0.56,0-1,0.45-1,1s0.44,1,1,1c0.55,0,1-0.45,1-1S17.668,0.229,17.119,0.229z"/>
	<path fill="#15A0D7" d="M27.119,0.229c-0.56,0-1,0.45-1,1s0.44,1,1,1c0.55,0,1-0.45,1-1S27.668,0.229,27.119,0.229z"/>
	<path fill="#15A0D7" d="M22.119,0.229c-0.56,0-1,0.45-1,1s0.44,1,1,1c0.55,0,1-0.45,1-1S22.668,0.229,22.119,0.229z"/>
	<path fill="#15A0D7" d="M32.119,0.229c-0.56,0-1,0.45-1,1s0.44,1,1,1c0.55,0,1-0.45,1-1S32.668,0.229,32.119,0.229z"/>
	<path fill="#15A0D7" d="M158.201,0.229c-0.562,0-1,0.45-1,1s0.438,1,1,1c0.549,0,1-0.45,1-1S158.75,0.229,158.201,0.229z"/>
	<path fill="#15A0D7" d="M163.201,0.229c-0.562,0-1,0.45-1,1s0.438,1,1,1c0.549,0,1-0.45,1-1S163.75,0.229,163.201,0.229z"/>
	<path fill="#15A0D7" d="M153.201,0.229c-0.562,0-1,0.45-1,1s0.438,1,1,1c0.549,0,1-0.45,1-1S153.75,0.229,153.201,0.229z"/>
	<path fill="#15A0D7" d="M112.12,0.229c-0.562,0-1,0.45-1,1s0.438,1,1,1c0.549,0,1-0.45,1-1S112.668,0.229,112.12,0.229z"/>
	<path fill="#15A0D7" d="M92.12,0.229c-0.562,0-1,0.45-1,1s0.438,1,1,1c0.549,0,1-0.45,1-1S92.668,0.229,92.12,0.229z"/>
	<path fill="#15A0D7" d="M82.12,0.229c-0.562,0-1,0.45-1,1s0.438,1,1,1c0.549,0,1-0.45,1-1S82.668,0.229,82.12,0.229z"/>
	<path fill="#15A0D7" d="M87.12,0.229c-0.562,0-1,0.45-1,1s0.438,1,1,1c0.549,0,1-0.45,1-1S87.668,0.229,87.12,0.229z"/>
	<path fill="#15A0D7" d="M77.12,0.229c-0.562,0-1,0.45-1,1s0.438,1,1,1c0.549,0,1-0.45,1-1S77.668,0.229,77.12,0.229z"/>
	<path fill="#15A0D7" d="M72.119,0.229c-0.561,0-1,0.45-1,1s0.439,1,1,1c0.549,0,1-0.45,1-1S72.668,0.229,72.119,0.229z"/>
	<path fill="#15A0D7" d="M107.12,0.229c-0.562,0-1,0.45-1,1s0.438,1,1,1c0.549,0,0.989-0.45,0.989-1S107.668,0.229,107.12,0.229z"/>
	<path fill="#15A0D7" d="M102.12,0.229c-0.562,0-1,0.45-1,1s0.438,1,1,1c0.549,0,1-0.45,1-1S102.668,0.229,102.12,0.229z"/>
	<path fill="#15A0D7" d="M97.12,0.229c-0.562,0-1,0.45-1,1s0.438,1,1,1c0.549,0,1-0.45,1-1S97.668,0.229,97.12,0.229z"/>
	<circle fill="#15A0D7" cx="0.961" cy="20.957" r="1"/>
	<circle fill="#15A0D7" cx="179.199" cy="20.957" r="1"/>
</g>
<path fill="#15A0D7" d="M13.119,1.229c0-0.561-0.45-1-1-1c-0.55,0-1,0.439-1,1c0,0.549,0.45,1,1,1
	C12.669,2.229,13.119,1.777,13.119,1.229z"/>
<path fill="#15A0D7" d="M13.119,11.229c0-0.561-0.45-1-1-1c-0.55,0-1,0.439-1,1c0,0.549,0.45,1,1,1
	C12.669,12.229,13.119,11.777,13.119,11.229z"/>
<path fill="#15A0D7" d="M13.119,6.229c0-0.561-0.45-1-1-1c-0.55,0-1,0.439-1,1c0,0.549,0.45,1,1,1
	C12.669,7.229,13.119,6.777,13.119,6.229z"/>
<path fill="#15A0D7" d="M171.359,13.746c-0.391,0.39-0.391,1.02,0,1.41c0.189,0.2,0.449,0.3,0.709,0.3c0.25,0,0.512-0.1,0.701-0.29
	c0.389-0.39,0.389-1.02,0.01-1.41C172.388,13.355,171.748,13.355,171.359,13.746z"/>
<path fill="#15A0D7" d="M174.994,16.999c-0.391,0.39-0.391,1.02,0,1.41c0.189,0.2,0.45,0.3,0.711,0.3c0.25,0,0.51-0.1,0.699-0.29
	c0.391-0.39,0.4-1.02,0.01-1.41C176.023,16.607,175.394,16.607,174.994,16.999z"/>
<path fill="#15A0D7" d="M168.201,2.229c0.551,0,1-0.451,1-1c0-0.561-0.449-1-1-1c-0.549,0-1,0.439-1,1
	C167.201,1.777,167.652,2.229,168.201,2.229z"/>
<path fill="#15A0D7" d="M168.201,12.229c0.551,0,1-0.451,1-1c0-0.561-0.449-1-1-1c-0.549,0-1,0.439-1,1
	C167.201,11.777,167.652,12.229,168.201,12.229z"/>
<path fill="#15A0D7" d="M168.201,7.229c0.551,0,1-0.451,1-1c0-0.561-0.449-1-1-1c-0.549,0-1,0.439-1,1
	C167.201,6.777,167.652,7.229,168.201,7.229z"/>
<path fill="#15A0D7" d="M96.958,41.686c0.562,0,1-0.449,1-1c0-0.549-0.438-1-1-1c-0.549,0-1,0.451-1,1
	C95.958,41.236,96.411,41.686,96.958,41.686z"/>
<path fill="#15A0D7" d="M106.959,41.686c0.561,0,1-0.449,1-1c0-0.549-0.439-1-1-1c-0.549,0-1,0.451-1,1
	C105.959,41.236,106.411,41.686,106.959,41.686z"/>
<path fill="#15A0D7" d="M101.958,41.686c0.562,0,1-0.449,1-1c0-0.549-0.438-1-1-1c-0.549,0-1,0.451-1,1
	C100.958,41.236,101.411,41.686,101.958,41.686z"/>
<path fill="#15A0D7" d="M91.958,41.686c0.562,0,1-0.449,1-1c0-0.549-0.438-1-1-1c-0.549,0-1,0.451-1,1
	C90.958,41.236,91.411,41.686,91.958,41.686z"/>
<path fill="#15A0D7" d="M76.958,41.686c0.562,0,1-0.449,1-1c0-0.549-0.438-1-1-1c-0.549,0-1,0.451-1,1
	C75.958,41.236,76.411,41.686,76.958,41.686z"/>
<path fill="#15A0D7" d="M81.958,41.686c0.562,0,1-0.449,1-1c0-0.549-0.438-1-1-1c-0.549,0-1,0.451-1,1
	C80.958,41.236,81.411,41.686,81.958,41.686z"/>
<path fill="#15A0D7" d="M86.958,41.686c0.562,0,1-0.449,1-1c0-0.549-0.438-1-1-1c-0.549,0-1,0.451-1,1
	C85.958,41.236,86.411,41.686,86.958,41.686z"/>
<path fill="#15A0D7" d="M172.619,28.158c0.379-0.389,0.379-1.02-0.011-1.41c-0.19-0.188-0.45-0.289-0.7-0.289
	c-0.26,0-0.52,0.102-0.709,0.299c-0.391,0.393-0.391,1.021,0,1.41C171.587,28.559,172.228,28.559,172.619,28.158z"/>
<path fill="#15A0D7" d="M176.253,24.906c0.391-0.391,0.379-1.02-0.01-1.41c-0.191-0.188-0.451-0.289-0.701-0.289
	c-0.26,0-0.521,0.102-0.709,0.299c-0.393,0.393-0.393,1.021,0,1.41C175.233,25.307,175.863,25.307,176.253,24.906z"/>
<path fill="#15A0D7" d="M163.041,41.686c0.561,0,1-0.449,1-1c0-0.549-0.439-1-1-1c-0.549,0-1,0.451-1,1
	C162.041,41.236,162.492,41.686,163.041,41.686z"/>
<path fill="#15A0D7" d="M153.041,41.686c0.561,0,1-0.449,1-1c0-0.549-0.439-1-1-1c-0.549,0-1,0.451-1,1
	C152.041,41.236,152.492,41.686,153.041,41.686z"/>
<path fill="#15A0D7" d="M158.041,41.686c0.561,0,1-0.449,1-1c0-0.549-0.439-1-1-1c-0.549,0-1,0.451-1,1
	C157.041,41.236,157.492,41.686,158.041,41.686z"/>
<path fill="#15A0D7" d="M111.959,41.686c0.561,0,1-0.449,1-1c0-0.549-0.439-1-1-1c-0.549,0-1,0.451-1,1
	C110.959,41.236,111.411,41.686,111.959,41.686z"/>
<path fill="#15A0D7" d="M142.342,0.229c-0.562,0-1,0.45-1,1s0.438,1,1,1c0.549,0,1-0.45,1-1S142.891,0.229,142.342,0.229z"/>
<path fill="#15A0D7" d="M122.342,0.229c-0.562,0-1,0.45-1,1s0.438,1,1,1c0.549,0,1-0.45,1-1S122.891,0.229,122.342,0.229z"/>
<path fill="#15A0D7" d="M117.342,0.229c-0.562,0-1,0.45-1,1s0.438,1,1,1c0.549,0,1-0.45,1-1S117.891,0.229,117.342,0.229z"/>
<path fill="#15A0D7" d="M137.342,0.229c-0.562,0-1,0.45-1,1s0.438,1,1,1c0.549,0,0.989-0.45,0.989-1S137.891,0.229,137.342,0.229z"
	/>
<path fill="#15A0D7" d="M132.342,0.229c-0.562,0-1,0.45-1,1s0.438,1,1,1c0.549,0,1-0.45,1-1S132.891,0.229,132.342,0.229z"/>
<path fill="#15A0D7" d="M127.342,0.229c-0.562,0-1,0.45-1,1s0.438,1,1,1c0.549,0,1-0.45,1-1S127.891,0.229,127.342,0.229z"/>
<path fill="#15A0D7" d="M127.18,41.686c0.562,0,1-0.449,1-1c0-0.549-0.438-1-1-1c-0.549,0-1,0.451-1,1
	C126.18,41.236,126.633,41.686,127.18,41.686z"/>
<path fill="#15A0D7" d="M137.182,41.686c0.561,0,1-0.449,1-1c0-0.549-0.439-1-1-1c-0.549,0-1,0.451-1,1
	C136.182,41.236,136.633,41.686,137.182,41.686z"/>
<path fill="#15A0D7" d="M132.18,41.686c0.562,0,1-0.449,1-1c0-0.549-0.438-1-1-1c-0.549,0-1,0.451-1,1
	C131.18,41.236,131.633,41.686,132.18,41.686z"/>
<path fill="#15A0D7" d="M122.18,41.686c0.562,0,1-0.449,1-1c0-0.549-0.438-1-1-1c-0.549,0-1,0.451-1,1
	C121.18,41.236,121.633,41.686,122.18,41.686z"/>
<path fill="#15A0D7" d="M117.18,41.686c0.562,0,1-0.449,1-1c0-0.549-0.438-1-1-1c-0.549,0-1,0.451-1,1
	C116.18,41.236,116.633,41.686,117.18,41.686z"/>
<path fill="#15A0D7" d="M142.182,41.686c0.561,0,1-0.449,1-1c0-0.549-0.439-1-1-1c-0.549,0-1,0.451-1,1
	C141.182,41.236,141.633,41.686,142.182,41.686z"/>
<path fill="#15A0D7" d="M147.556,0.229c-0.562,0-1,0.45-1,1s0.438,1,1,1c0.549,0,1-0.45,1-1S148.105,0.229,147.556,0.229z"/>
<path fill="#15A0D7" d="M147.396,41.686c0.561,0,1-0.449,1-1c0-0.549-0.439-1-1-1c-0.549,0-1,0.451-1,1
	C146.396,41.236,146.847,41.686,147.396,41.686z"/>
<path fill="#15A0D7" d="M21.959,41.686c0.561,0,1-0.449,1-1c0-0.549-0.439-1-1-1c-0.549,0-1,0.451-1,1
	C20.959,41.236,21.411,41.686,21.959,41.686z"/>
<path fill="#15A0D7" d="M16.959,41.686c0.561,0,1-0.449,1-1c0-0.549-0.439-1-1-1c-0.549,0-1,0.451-1,1
	C15.959,41.236,16.411,41.686,16.959,41.686z"/>
<path fill="#15A0D7" d="M26.959,41.686c0.561,0,1-0.449,1-1c0-0.549-0.439-1-1-1c-0.549,0-1,0.451-1,1
	C25.959,41.236,26.411,41.686,26.959,41.686z"/>
<path fill="#15A0D7" d="M31.959,41.686c0.561,0,1-0.449,1-1c0-0.549-0.439-1-1-1c-0.549,0-1,0.451-1,1
	C30.959,41.236,31.411,41.686,31.959,41.686z"/>
<path fill="#15A0D7" d="M51.958,41.686c0.562,0,1-0.449,1-1c0-0.549-0.438-1-1-1c-0.549,0-1,0.451-1,1
	C50.958,41.236,51.41,41.686,51.958,41.686z"/>
<path fill="#15A0D7" d="M61.958,41.686c0.562,0,1-0.449,1-1c0-0.549-0.438-1-1-1c-0.549,0-1,0.451-1,1
	C60.958,41.236,61.41,41.686,61.958,41.686z"/>
<path fill="#15A0D7" d="M56.958,41.686c0.562,0,1-0.449,1-1c0-0.549-0.438-1-1-1c-0.549,0-1,0.451-1,1
	C55.958,41.236,56.41,41.686,56.958,41.686z"/>
<path fill="#15A0D7" d="M66.958,41.686c0.562,0,1-0.449,1-1c0-0.549-0.438-1-1-1c-0.549,0-1,0.451-1,1
	C65.958,41.236,66.41,41.686,66.958,41.686z"/>
<path fill="#15A0D7" d="M71.958,41.686c0.562,0,1-0.449,1-1c0-0.549-0.438-1-1-1c-0.549,0-1,0.451-1,1
	C70.958,41.236,71.41,41.686,71.958,41.686z"/>
<path fill="#15A0D7" d="M36.959,41.686c0.561,0,1-0.449,1-1c0-0.549-0.439-1-1-1c-0.549,0-0.99,0.451-0.99,1
	C35.969,41.236,36.411,41.686,36.959,41.686z"/>
<path fill="#15A0D7" d="M41.958,41.686c0.562,0,1-0.449,1-1c0-0.549-0.438-1-1-1c-0.549,0-1,0.451-1,1
	C40.958,41.236,41.41,41.686,41.958,41.686z"/>
<path fill="#15A0D7" d="M46.958,41.686c0.562,0,1-0.449,1-1c0-0.549-0.438-1-1-1c-0.549,0-1,0.451-1,1
	C45.958,41.236,46.41,41.686,46.958,41.686z"/>
<path fill="#15A0D7" d="M167.041,40.686c0,0.562,0.449,1,1,1c0.549,0,1-0.438,1-1c0-0.549-0.451-1-1-1
	C167.49,39.686,167.041,40.137,167.041,40.686z"/>
<path fill="#15A0D7" d="M167.041,30.686c0,0.562,0.449,1,1,1c0.549,0,1-0.438,1-1c0-0.549-0.451-1-1-1
	C167.49,29.686,167.041,30.137,167.041,30.686z"/>
<path fill="#15A0D7" d="M167.041,35.686c0,0.562,0.449,1,1,1c0.549,0,1-0.438,1-1c0-0.549-0.451-1-1-1
	C167.49,34.686,167.041,35.137,167.041,35.686z"/>
<path fill="#15A0D7" d="M8.801,28.168c0.391-0.391,0.391-1.021,0-1.41c-0.19-0.199-0.449-0.299-0.709-0.299
	c-0.25,0-0.511,0.1-0.701,0.289c-0.389,0.391-0.389,1.021-0.01,1.41C7.771,28.559,8.411,28.559,8.801,28.168z"/>
<path fill="#15A0D7" d="M5.166,24.916c0.391-0.389,0.391-1.02,0-1.41c-0.189-0.197-0.45-0.299-0.71-0.299
	c-0.25,0-0.51,0.102-0.7,0.289c-0.39,0.393-0.4,1.021-0.01,1.41C4.137,25.307,4.766,25.307,5.166,24.916z"/>
<path fill="#15A0D7" d="M11.959,39.686c-0.551,0-1,0.451-1,1c0,0.562,0.449,1,1,1c0.549,0,1-0.438,1-1
	C12.959,40.137,12.508,39.686,11.959,39.686z"/>
<path fill="#15A0D7" d="M11.959,29.686c-0.551,0-1,0.451-1,1c0,0.562,0.449,1,1,1c0.549,0,1-0.438,1-1
	C12.959,30.137,12.508,29.686,11.959,29.686z"/>
<path fill="#15A0D7" d="M11.959,34.686c-0.551,0-1,0.451-1,1c0,0.562,0.449,1,1,1c0.549,0,1-0.438,1-1
	C12.959,35.137,12.508,34.686,11.959,34.686z"/>
</svg>
