<?xml version="1.0" encoding="utf-8"?>
<!-- Generator: Adobe Illustrator 16.0.0, SVG Export Plug-In . SVG Version: 6.00 Build 0)  -->
<!DOCTYPE svg PUBLIC "-//W3C//DTD SVG 1.1//EN" "http://www.w3.org/Graphics/SVG/1.1/DTD/svg11.dtd">
<svg version="1.1" xmlns="http://www.w3.org/2000/svg" xmlns:xlink="http://www.w3.org/1999/xlink" x="0px" y="0px"
	 width="144.118px" height="21px" viewBox="0 0 144.118 21" enable-background="new 0 0 144.118 21" xml:space="preserve">
<g id="Layer_1" display="none">
	<g display="inline" opacity="0.7">
		<g opacity="0.7">
			<polygon fill="#FFFFFF" points="132.115,1 10.115,1 0.114,11.083 10.115,20 132.115,20 142.115,11.025 			"/>
		</g>
	</g>
</g>
<g id="Layer_2">
	<polygon opacity="0.7" fill="#FFFFFF" points="131.961,1 143.114,10.312 131.961,20 12.114,20 0.961,10.312 12.114,1 	"/>
	<path fill="#0B9EB3" d="M47.119,0c-0.56,0-1,0.45-1,1c0,0.55,0.44,1,1,1c0.55,0,1-0.45,1-1C48.119,0.45,47.668,0,47.119,0z"/>
	<path fill="#0B9EB3" d="M47.119,19c-0.55,0-1,0.45-1,1s0.45,1,1,1c0.56,0,1-0.45,1-1S47.678,19,47.119,19z"/>
	<path fill="#0B9EB3" d="M72.119,19c-0.55,0-0.999,0.45-0.999,1s0.449,1,0.999,1c0.561,0,1-0.45,1-1S72.679,19,72.119,19z"/>
	<path fill="#0B9EB3" d="M37.119,0c-0.56,0-1,0.45-1,1c0,0.55,0.44,1,1,1c0.55,0,1-0.45,1-1C38.119,0.45,37.668,0,37.119,0z"/>
	<path fill="#0B9EB3" d="M42.119,19c-0.56,0-1.01,0.45-1.01,1s0.45,1,1.01,1c0.55,0,1-0.45,1-1S42.668,19,42.119,19z"/>
	<path fill="#0B9EB3" d="M37.119,19c-0.55,0-0.99,0.45-0.99,1s0.44,1,0.99,1c0.56,0,1-0.45,1-1S37.678,19,37.119,19z"/>
	<path fill="#0B9EB3" d="M42.119,0c-0.56,0-1,0.45-1,1c0,0.55,0.44,1,1,1c0.55,0,1-0.45,1-1C43.119,0.45,42.668,0,42.119,0z"/>
	<path fill="#0B9EB3" d="M52.119,0c-0.56,0-1,0.45-1,1c0,0.55,0.44,1,1,1c0.55,0,1-0.45,1-1C53.119,0.45,52.668,0,52.119,0z"/>
	<path fill="#0B9EB3" d="M67.119,19c-0.55,0-1,0.45-1,1s0.45,1,1,1c0.56,0,1-0.45,1-1S67.678,19,67.119,19z"/>
	<path fill="#0B9EB3" d="M67.119,0c-0.56,0-1,0.45-1,1c0,0.55,0.44,1,1,1c0.55,0,1-0.45,1-1C68.119,0.45,67.668,0,67.119,0z"/>
	<path fill="#0B9EB3" d="M62.119,0c-0.56,0-1,0.45-1,1c0,0.55,0.44,1,1,1c0.55,0,1-0.45,1-1C63.119,0.45,62.668,0,62.119,0z"/>
	<path fill="#0B9EB3" d="M62.119,19c-0.56,0-1,0.45-1,1s0.44,1,1,1c0.55,0,1-0.45,1-1S62.668,19,62.119,19z"/>
	<path fill="#0B9EB3" d="M57.119,19c-0.55,0-1,0.45-1,1s0.45,1,1,1c0.56,0,1-0.45,1-1S57.678,19,57.119,19z"/>
	<path fill="#0B9EB3" d="M57.119,0c-0.56,0-1,0.45-1,1c0,0.55,0.44,1,1,1c0.55,0,1-0.45,1-1C58.119,0.45,57.668,0,57.119,0z"/>
	<path fill="#0B9EB3" d="M52.119,19c-0.56,0-1,0.45-1,1s0.44,1,1,1c0.55,0,1-0.45,1-1S52.668,19,52.119,19z"/>
	<path fill="#0B9EB3" d="M12.119,0c-0.56,0-1,0.45-1,1c0,0.55,0.44,1,1,1c0.55,0,1-0.45,1-1C13.119,0.45,12.668,0,12.119,0z"/>
	<path fill="#0B9EB3" d="M7.289,2.43c-0.38,0.39-0.38,1.02,0.01,1.41c0.19,0.19,0.45,0.29,0.7,0.29c0.26,0,0.52-0.1,0.71-0.3
		c0.39-0.39,0.39-1.02,0-1.41S7.679,2.03,7.289,2.43z"/>
	<path fill="#0B9EB3" d="M12.109,19c-0.55,0-1,0.45-1,1s0.45,1,1,1c0.56,0,1.01-0.45,1.01-1S12.668,19,12.109,19z"/>
	<path fill="#0B9EB3" d="M7.257,16.27c-0.37,0.41-0.34,1.05,0.08,1.41c0.19,0.17,0.43,0.26,0.66,0.26c0.28,0,0.55-0.12,0.75-0.34
		c0.37-0.41,0.33-1.04-0.08-1.41C8.247,15.819,7.617,15.859,7.257,16.27z"/>
	<path fill="#0B9EB3" d="M3.769,5.98C3.378,6.37,3.389,7,3.779,7.39c0.19,0.19,0.45,0.29,0.7,0.29c0.26,0,0.52-0.1,0.71-0.3
		c0.39-0.39,0.39-1.02,0-1.41C4.789,5.58,4.159,5.58,3.769,5.98z"/>
	<path fill="#0B9EB3" d="M3.731,12.95c-0.36,0.409-0.33,1.04,0.08,1.409c0.19,0.171,0.43,0.25,0.67,0.25
		c0.28,0,0.55-0.109,0.75-0.34c0.36-0.41,0.33-1.04-0.08-1.41C4.731,12.5,4.101,12.53,3.731,12.95z"/>
	<path fill="#0B9EB3" d="M17.119,0c-0.56,0-1,0.45-1,1c0,0.55,0.44,1,1,1c0.55,0,1-0.45,1-1C18.119,0.45,17.668,0,17.119,0z"/>
	<path fill="#0B9EB3" d="M27.119,0c-0.56,0-1,0.45-1,1c0,0.55,0.44,1,1,1c0.55,0,1-0.45,1-1C28.119,0.45,27.668,0,27.119,0z"/>
	<path fill="#0B9EB3" d="M17.128,19c-0.56,0-1,0.45-1,1s0.44,1,1,1c0.55,0,0.99-0.45,0.99-1S17.678,19,17.128,19z"/>
	<path fill="#0B9EB3" d="M32.119,19c-0.56,0-1.01,0.45-1.01,1s0.45,1,1.01,1c0.55,0,1-0.45,1-1S32.668,19,32.119,19z"/>
	<path fill="#0B9EB3" d="M27.119,19c-0.55,0-0.99,0.45-0.99,1s0.44,1,0.99,1c0.56,0,1-0.45,1-1S27.678,19,27.119,19z"/>
	<path fill="#0B9EB3" d="M22.119,0c-0.56,0-1,0.45-1,1c0,0.55,0.44,1,1,1c0.55,0,1-0.45,1-1C23.119,0.45,22.668,0,22.119,0z"/>
	<path fill="#0B9EB3" d="M32.119,0c-0.56,0-1,0.45-1,1c0,0.55,0.44,1,1,1c0.55,0,1-0.45,1-1C33.119,0.45,32.668,0,32.119,0z"/>
	<path fill="#0B9EB3" d="M22.109,19c-0.55,0-1,0.45-1,1s0.45,1,1,1c0.56,0,1.01-0.45,1.01-1S22.668,19,22.109,19z"/>
	<path fill="#0B9EB3" d="M92.119,19c-0.55,0-1,0.45-1,1s0.45,1,1,1c0.561,0,1-0.45,1-1S92.679,19,92.119,19z"/>
	<path fill="#0B9EB3" d="M122.119,0c-0.561,0-1,0.45-1,1c0,0.55,0.439,1,1,1c0.55,0,1-0.45,1-1C123.119,0.45,122.668,0,122.119,0z"
		/>
	<path fill="#0B9EB3" d="M127.119,19c-0.55,0-1,0.45-1,1s0.45,1,1,1c0.561,0,1-0.45,1-1S127.679,19,127.119,19z"/>
	<path fill="#0B9EB3" d="M127.119,0c-0.561,0-1,0.45-1,1c0,0.55,0.439,1,1,1c0.55,0,1-0.45,1-1C128.119,0.45,127.668,0,127.119,0z"
		/>
	<path fill="#0B9EB3" d="M117.119,19c-0.55,0-1,0.45-1,1s0.45,1,1,1c0.561,0,1-0.45,1-1S117.679,19,117.119,19z"/>
	<path fill="#0B9EB3" d="M132.119,19c-0.55,0-1,0.45-1,1s0.45,1,1,1c0.561,0,1-0.45,1-1S132.679,19,132.119,19z"/>
	<path fill="#0B9EB3" d="M122.119,19c-0.55,0-1,0.45-1,1s0.45,1,1,1c0.561,0,1-0.45,1-1S122.679,19,122.119,19z"/>
	<path fill="#0B9EB3" d="M117.119,0c-0.561,0-1,0.45-1,1c0,0.55,0.439,1,1,1c0.55,0,1-0.45,1-1C118.119,0.45,117.668,0,117.119,0z"
		/>
	<path fill="#0B9EB3" d="M132.119,0c-0.561,0-1,0.45-1,1c0,0.55,0.439,1,1,1c0.55,0,1-0.45,1-1C133.119,0.45,132.668,0,132.119,0z"
		/>
	<path fill="#0B9EB3" d="M112.119,0c-0.561,0-1,0.45-1,1c0,0.55,0.439,1,1,1c0.55,0,1-0.45,1-1C113.119,0.45,112.668,0,112.119,0z"
		/>
	<path fill="#0B9EB3" d="M92.119,0c-0.561,0-1,0.45-1,1c0,0.55,0.439,1,1,1c0.55,0,1-0.45,1-1C93.119,0.45,92.668,0,92.119,0z"/>
	<path fill="#0B9EB3" d="M82.119,0c-0.561,0-1,0.45-1,1c0,0.55,0.439,1,1,1c0.55,0,1-0.45,1-1C83.119,0.45,82.668,0,82.119,0z"/>
	<path fill="#0B9EB3" d="M87.119,19c-0.55,0-1,0.45-1,1s0.45,1,1,1c0.561,0,1-0.45,1-1S87.679,19,87.119,19z"/>
	<path fill="#0B9EB3" d="M87.119,0c-0.561,0-1,0.45-1,1c0,0.55,0.439,1,1,1c0.55,0,1-0.45,1-1C88.119,0.45,87.668,0,87.119,0z"/>
	<path fill="#0B9EB3" d="M77.119,0c-0.561,0-1,0.45-1,1c0,0.55,0.439,1,1,1c0.55,0,1-0.45,1-1C78.119,0.45,77.668,0,77.119,0z"/>
	<path fill="#0B9EB3" d="M77.119,19c-0.55,0-1,0.45-1,1s0.45,1,1,1c0.561,0,1-0.45,1-1S77.679,19,77.119,19z"/>
	<path fill="#0B9EB3" d="M82.119,19c-0.55,0-0.989,0.45-0.989,1s0.439,1,0.989,1c0.561,0,1-0.45,1-1S82.679,19,82.119,19z"/>
	<path fill="#0B9EB3" d="M72.119,0c-0.561,0-1,0.45-1,1c0,0.55,0.439,1,1,1c0.55,0,1-0.45,1-1C73.119,0.45,72.668,0,72.119,0z"/>
	<path fill="#0B9EB3" d="M107.119,0c-0.561,0-1,0.45-1,1c0,0.55,0.439,1,1,1c0.55,0,0.99-0.45,0.99-1
		C108.109,0.45,107.668,0,107.119,0z"/>
	<path fill="#0B9EB3" d="M102.119,0c-0.561,0-1,0.45-1,1c0,0.55,0.439,1,1,1c0.55,0,1-0.45,1-1C103.119,0.45,102.668,0,102.119,0z"
		/>
	<path fill="#0B9EB3" d="M107.109,19c-0.55,0-1,0.45-1,1s0.45,1,1,1c0.561,0,1-0.45,1-1S107.669,19,107.109,19z"/>
	<path fill="#0B9EB3" d="M112.119,19c-0.55,0-1,0.45-1,1s0.45,1,1,1c0.561,0,1-0.45,1-1S112.679,19,112.119,19z"/>
	<path fill="#0B9EB3" d="M97.119,19c-0.55,0-1,0.45-1,1s0.45,1,1,1c0.561,0,1-0.45,1-1S97.679,19,97.119,19z"/>
	<path fill="#0B9EB3" d="M102.119,19c-0.55,0-1,0.45-1,1s0.45,1,1,1c0.561,0,1-0.45,1-1S102.679,19,102.119,19z"/>
	<path fill="#0B9EB3" d="M97.119,0c-0.561,0-1,0.45-1,1c0,0.55,0.439,1,1,1c0.55,0,1-0.45,1-1C98.119,0.45,97.668,0,97.119,0z"/>
	<circle fill="#0B9EB3" cx="0.961" cy="10.229" r="1"/>
	<path fill="#0B9EB3" d="M131.96,0c0.56,0,1,0.449,1,1c0,0.55-0.44,1-1,1c-0.55,0-1-0.45-1-1C130.96,0.449,131.411,0,131.96,0z"/>
	<path fill="#0B9EB3" d="M136.791,2.43c0.38,0.391,0.38,1.02-0.011,1.41c-0.189,0.189-0.449,0.29-0.699,0.29
		c-0.26,0-0.52-0.101-0.71-0.3c-0.39-0.391-0.39-1.02,0-1.41S136.401,2.029,136.791,2.43z"/>
	<path fill="#0B9EB3" d="M131.97,19c0.55,0,1,0.45,1,1s-0.45,1-1,1c-0.56,0-1.01-0.45-1.01-1S131.411,19,131.97,19z"/>
	<path fill="#0B9EB3" d="M136.823,16.27c0.369,0.41,0.34,1.05-0.08,1.41c-0.19,0.17-0.431,0.26-0.66,0.26
		c-0.28,0-0.551-0.12-0.75-0.34c-0.371-0.41-0.33-1.04,0.08-1.41C135.833,15.819,136.461,15.859,136.823,16.27z"/>
	<path fill="#0B9EB3" d="M140.311,5.98c0.39,0.389,0.379,1.02-0.011,1.409c-0.19,0.19-0.45,0.29-0.7,0.29
		c-0.26,0-0.52-0.1-0.709-0.3c-0.391-0.39-0.391-1.021,0-1.41C139.291,5.58,139.92,5.58,140.311,5.98z"/>
	<path fill="#0B9EB3" d="M140.348,12.95c0.36,0.409,0.33,1.04-0.08,1.409c-0.189,0.171-0.43,0.25-0.67,0.25
		c-0.279,0-0.55-0.109-0.75-0.34c-0.359-0.41-0.33-1.04,0.08-1.41C139.348,12.5,139.979,12.53,140.348,12.95z"/>
	<circle fill="#0B9EB3" cx="143.118" cy="10.229" r="1"/>
</g>
</svg>
