<?xml version="1.0" encoding="utf-8"?>
<!-- Generator: Adobe Illustrator 16.0.0, SVG Export Plug-In . SVG Version: 6.00 Build 0)  -->
<!DOCTYPE svg PUBLIC "-//W3C//DTD SVG 1.1//EN" "http://www.w3.org/Graphics/SVG/1.1/DTD/svg11.dtd">
<svg version="1.1" id="Layer_1" xmlns="http://www.w3.org/2000/svg" xmlns:xlink="http://www.w3.org/1999/xlink" x="0px" y="0px"
	 width="144.118px" height="42px" viewBox="0 0 144.118 42" enable-background="new 0 0 144.118 42" xml:space="preserve">
<g id="Layer_1_1_" display="none">
	<g display="inline" opacity="0.7">
		<g opacity="0.7">
			<polygon fill="#FFFFFF" points="132.116,1 10.115,1 0.114,11.083 10.115,20 132.116,20 142.116,11.025 			"/>
		</g>
	</g>
</g>
<g id="Layer_2">
	<polygon opacity="0.7" fill="#FFFFFF" enable-background="new    " points="143.114,20.77 132.12,11.588 132.12,1.229 
		11.959,1.229 11.959,11.586 0.961,20.77 11.959,30.322 11.959,40.686 132.12,40.686 132.12,30.319 	"/>
	<path fill="#0B9EB3" d="M47.119,0.229c-0.56,0-1,0.45-1,1s0.44,1,1,1c0.55,0,1-0.45,1-1S47.668,0.229,47.119,0.229z"/>
	<path fill="#0B9EB3" d="M37.119,0.229c-0.56,0-1,0.45-1,1s0.44,1,1,1c0.55,0,1-0.45,1-1S37.668,0.229,37.119,0.229z"/>
	<path fill="#0B9EB3" d="M42.119,0.229c-0.56,0-1,0.45-1,1s0.44,1,1,1c0.55,0,1-0.45,1-1S42.668,0.229,42.119,0.229z"/>
	<path fill="#0B9EB3" d="M52.119,0.229c-0.56,0-1,0.45-1,1s0.44,1,1,1c0.55,0,1-0.45,1-1S52.668,0.229,52.119,0.229z"/>
	<path fill="#0B9EB3" d="M67.119,0.229c-0.56,0-1,0.45-1,1s0.44,1,1,1c0.55,0,1-0.45,1-1S67.668,0.229,67.119,0.229z"/>
	<path fill="#0B9EB3" d="M62.119,0.229c-0.56,0-1,0.45-1,1s0.44,1,1,1c0.55,0,1-0.45,1-1S62.668,0.229,62.119,0.229z"/>
	<path fill="#0B9EB3" d="M57.119,0.229c-0.56,0-1,0.45-1,1s0.44,1,1,1c0.55,0,1-0.45,1-1S57.668,0.229,57.119,0.229z"/>
	<path fill="#0B9EB3" d="M7.542,13.755c-0.38,0.39-0.38,1.02,0.01,1.41c0.19,0.19,0.45,0.29,0.7,0.29c0.26,0,0.52-0.1,0.71-0.3
		c0.39-0.39,0.39-1.021,0-1.41C8.572,13.355,7.932,13.355,7.542,13.755z"/>
	<path fill="#0B9EB3" d="M3.907,17.007c-0.391,0.39-0.38,1.02,0.01,1.41c0.19,0.19,0.45,0.29,0.7,0.29c0.26,0,0.52-0.1,0.71-0.3
		c0.39-0.39,0.39-1.02,0-1.41C4.927,16.607,4.297,16.607,3.907,17.007z"/>
	<path fill="#0B9EB3" d="M17.119,0.229c-0.56,0-1,0.45-1,1s0.44,1,1,1c0.55,0,1-0.45,1-1S17.668,0.229,17.119,0.229z"/>
	<path fill="#0B9EB3" d="M27.119,0.229c-0.56,0-1,0.45-1,1s0.44,1,1,1c0.55,0,1-0.45,1-1S27.668,0.229,27.119,0.229z"/>
	<path fill="#0B9EB3" d="M22.119,0.229c-0.56,0-1,0.45-1,1s0.44,1,1,1c0.55,0,1-0.45,1-1S22.668,0.229,22.119,0.229z"/>
	<path fill="#0B9EB3" d="M32.119,0.229c-0.56,0-1,0.45-1,1s0.44,1,1,1c0.55,0,1-0.45,1-1S32.668,0.229,32.119,0.229z"/>
	<path fill="#0B9EB3" d="M122.12,0.229c-0.562,0-1,0.45-1,1s0.438,1,1,1c0.549,0,1-0.45,1-1S122.668,0.229,122.12,0.229z"/>
	<path fill="#0B9EB3" d="M127.12,0.229c-0.562,0-1,0.45-1,1s0.438,1,1,1c0.549,0,1-0.45,1-1S127.668,0.229,127.12,0.229z"/>
	<path fill="#0B9EB3" d="M117.12,0.229c-0.562,0-1,0.45-1,1s0.438,1,1,1c0.549,0,1-0.45,1-1S117.668,0.229,117.12,0.229z"/>
	<path fill="#0B9EB3" d="M112.12,0.229c-0.562,0-1,0.45-1,1s0.438,1,1,1c0.549,0,1-0.45,1-1S112.668,0.229,112.12,0.229z"/>
	<path fill="#0B9EB3" d="M92.12,0.229c-0.562,0-1,0.45-1,1s0.438,1,1,1c0.549,0,1-0.45,1-1S92.668,0.229,92.12,0.229z"/>
	<path fill="#0B9EB3" d="M82.12,0.229c-0.562,0-1,0.45-1,1s0.438,1,1,1c0.549,0,1-0.45,1-1S82.668,0.229,82.12,0.229z"/>
	<path fill="#0B9EB3" d="M87.12,0.229c-0.562,0-1,0.45-1,1s0.438,1,1,1c0.549,0,1-0.45,1-1S87.668,0.229,87.12,0.229z"/>
	<path fill="#0B9EB3" d="M77.12,0.229c-0.562,0-1,0.45-1,1s0.438,1,1,1c0.549,0,1-0.45,1-1S77.668,0.229,77.12,0.229z"/>
	<path fill="#0B9EB3" d="M72.119,0.229c-0.561,0-1,0.45-1,1s0.439,1,1,1c0.549,0,1-0.45,1-1S72.668,0.229,72.119,0.229z"/>
	<path fill="#0B9EB3" d="M107.12,0.229c-0.562,0-1,0.45-1,1s0.438,1,1,1c0.549,0,0.989-0.45,0.989-1S107.668,0.229,107.12,0.229z"/>
	<path fill="#0B9EB3" d="M102.12,0.229c-0.562,0-1,0.45-1,1s0.438,1,1,1c0.549,0,1-0.45,1-1S102.668,0.229,102.12,0.229z"/>
	<path fill="#0B9EB3" d="M97.12,0.229c-0.562,0-1,0.45-1,1s0.438,1,1,1c0.549,0,1-0.45,1-1S97.668,0.229,97.12,0.229z"/>
	<circle fill="#0B9EB3" cx="0.961" cy="20.957" r="1"/>
	<circle fill="#0B9EB3" cx="143.118" cy="20.957" r="1"/>
</g>
<path fill="#0B9EB3" d="M13.119,1.229c0-0.561-0.45-1-1-1c-0.55,0-1,0.439-1,1c0,0.549,0.45,1,1,1
	C12.669,2.229,13.119,1.777,13.119,1.229z"/>
<path fill="#0B9EB3" d="M13.119,11.229c0-0.561-0.45-1-1-1c-0.55,0-1,0.439-1,1c0,0.549,0.45,1,1,1
	C12.669,12.229,13.119,11.777,13.119,11.229z"/>
<path fill="#0B9EB3" d="M13.119,6.229c0-0.561-0.45-1-1-1c-0.55,0-1,0.439-1,1c0,0.549,0.45,1,1,1
	C12.669,7.229,13.119,6.777,13.119,6.229z"/>
<path fill="#0B9EB3" d="M135.278,13.746c-0.391,0.39-0.391,1.02,0,1.41c0.189,0.2,0.449,0.3,0.709,0.3c0.25,0,0.512-0.1,0.701-0.29
	c0.389-0.39,0.389-1.02,0.01-1.41C136.307,13.355,135.667,13.355,135.278,13.746z"/>
<path fill="#0B9EB3" d="M138.913,16.999c-0.391,0.39-0.391,1.02,0,1.41c0.189,0.2,0.45,0.3,0.711,0.3c0.25,0,0.51-0.1,0.699-0.29
	c0.391-0.39,0.4-1.02,0.01-1.41C139.942,16.607,139.313,16.607,138.913,16.999z"/>
<path fill="#0B9EB3" d="M132.12,2.229c0.551,0,1-0.451,1-1c0-0.561-0.449-1-1-1c-0.549,0-1,0.439-1,1
	C131.12,1.777,131.571,2.229,132.12,2.229z"/>
<path fill="#0B9EB3" d="M132.12,12.229c0.551,0,1-0.451,1-1c0-0.561-0.449-1-1-1c-0.549,0-1,0.439-1,1
	C131.12,11.777,131.571,12.229,132.12,12.229z"/>
<path fill="#0B9EB3" d="M132.12,7.229c0.551,0,1-0.451,1-1c0-0.561-0.449-1-1-1c-0.549,0-1,0.439-1,1
	C131.12,6.777,131.571,7.229,132.12,7.229z"/>
<path fill="#0B9EB3" d="M96.958,41.686c0.562,0,1-0.449,1-1c0-0.549-0.438-1-1-1c-0.549,0-1,0.451-1,1
	C95.958,41.236,96.411,41.686,96.958,41.686z"/>
<path fill="#0B9EB3" d="M106.959,41.686c0.561,0,1-0.449,1-1c0-0.549-0.439-1-1-1c-0.549,0-1,0.451-1,1
	C105.959,41.236,106.411,41.686,106.959,41.686z"/>
<path fill="#0B9EB3" d="M101.958,41.686c0.562,0,1-0.449,1-1c0-0.549-0.438-1-1-1c-0.549,0-1,0.451-1,1
	C100.958,41.236,101.411,41.686,101.958,41.686z"/>
<path fill="#0B9EB3" d="M91.958,41.686c0.562,0,1-0.449,1-1c0-0.549-0.438-1-1-1c-0.549,0-1,0.451-1,1
	C90.958,41.236,91.411,41.686,91.958,41.686z"/>
<path fill="#0B9EB3" d="M76.958,41.686c0.562,0,1-0.449,1-1c0-0.549-0.438-1-1-1c-0.549,0-1,0.451-1,1
	C75.958,41.236,76.411,41.686,76.958,41.686z"/>
<path fill="#0B9EB3" d="M81.958,41.686c0.562,0,1-0.449,1-1c0-0.549-0.438-1-1-1c-0.549,0-1,0.451-1,1
	C80.958,41.236,81.411,41.686,81.958,41.686z"/>
<path fill="#0B9EB3" d="M86.958,41.686c0.562,0,1-0.449,1-1c0-0.549-0.438-1-1-1c-0.549,0-1,0.451-1,1
	C85.958,41.236,86.411,41.686,86.958,41.686z"/>
<path fill="#0B9EB3" d="M136.538,28.158c0.379-0.389,0.379-1.02-0.011-1.41c-0.19-0.188-0.45-0.289-0.7-0.289
	c-0.26,0-0.52,0.101-0.709,0.299c-0.391,0.392-0.391,1.021,0,1.41C135.506,28.559,136.147,28.559,136.538,28.158z"/>
<path fill="#0B9EB3" d="M140.172,24.906c0.391-0.391,0.379-1.02-0.01-1.41c-0.191-0.188-0.451-0.289-0.701-0.289
	c-0.26,0-0.521,0.101-0.709,0.299c-0.392,0.392-0.392,1.021,0,1.41C139.152,25.307,139.782,25.307,140.172,24.906z"/>
<path fill="#0B9EB3" d="M126.959,41.686c0.561,0,1-0.449,1-1c0-0.549-0.439-1-1-1c-0.549,0-1,0.451-1,1
	C125.959,41.236,126.411,41.686,126.959,41.686z"/>
<path fill="#0B9EB3" d="M116.959,41.686c0.561,0,1-0.449,1-1c0-0.549-0.439-1-1-1c-0.549,0-1,0.451-1,1
	C115.959,41.236,116.411,41.686,116.959,41.686z"/>
<path fill="#0B9EB3" d="M121.959,41.686c0.561,0,1-0.449,1-1c0-0.549-0.439-1-1-1c-0.549,0-1,0.451-1,1
	C120.959,41.236,121.411,41.686,121.959,41.686z"/>
<path fill="#0B9EB3" d="M111.959,41.686c0.561,0,1-0.449,1-1c0-0.549-0.439-1-1-1c-0.549,0-1,0.451-1,1
	C110.959,41.236,111.411,41.686,111.959,41.686z"/>
<path fill="#0B9EB3" d="M21.959,41.686c0.561,0,1-0.449,1-1c0-0.549-0.439-1-1-1c-0.549,0-1,0.451-1,1
	C20.959,41.236,21.411,41.686,21.959,41.686z"/>
<path fill="#0B9EB3" d="M16.959,41.686c0.561,0,1-0.449,1-1c0-0.549-0.439-1-1-1c-0.549,0-1,0.451-1,1
	C15.959,41.236,16.411,41.686,16.959,41.686z"/>
<path fill="#0B9EB3" d="M26.959,41.686c0.561,0,1-0.449,1-1c0-0.549-0.439-1-1-1c-0.549,0-1,0.451-1,1
	C25.959,41.236,26.411,41.686,26.959,41.686z"/>
<path fill="#0B9EB3" d="M31.959,41.686c0.561,0,1-0.449,1-1c0-0.549-0.439-1-1-1c-0.549,0-1,0.451-1,1
	C30.959,41.236,31.411,41.686,31.959,41.686z"/>
<path fill="#0B9EB3" d="M51.958,41.686c0.562,0,1-0.449,1-1c0-0.549-0.438-1-1-1c-0.549,0-1,0.451-1,1
	C50.958,41.236,51.41,41.686,51.958,41.686z"/>
<path fill="#0B9EB3" d="M61.958,41.686c0.562,0,1-0.449,1-1c0-0.549-0.438-1-1-1c-0.549,0-1,0.451-1,1
	C60.958,41.236,61.41,41.686,61.958,41.686z"/>
<path fill="#0B9EB3" d="M56.958,41.686c0.562,0,1-0.449,1-1c0-0.549-0.438-1-1-1c-0.549,0-1,0.451-1,1
	C55.958,41.236,56.41,41.686,56.958,41.686z"/>
<path fill="#0B9EB3" d="M66.958,41.686c0.562,0,1-0.449,1-1c0-0.549-0.438-1-1-1c-0.549,0-1,0.451-1,1
	C65.958,41.236,66.41,41.686,66.958,41.686z"/>
<path fill="#0B9EB3" d="M71.958,41.686c0.562,0,1-0.449,1-1c0-0.549-0.438-1-1-1c-0.549,0-1,0.451-1,1
	C70.958,41.236,71.41,41.686,71.958,41.686z"/>
<path fill="#0B9EB3" d="M36.959,41.686c0.561,0,1-0.449,1-1c0-0.549-0.439-1-1-1c-0.549,0-0.99,0.451-0.99,1
	C35.969,41.236,36.411,41.686,36.959,41.686z"/>
<path fill="#0B9EB3" d="M41.958,41.686c0.562,0,1-0.449,1-1c0-0.549-0.438-1-1-1c-0.549,0-1,0.451-1,1
	C40.958,41.236,41.41,41.686,41.958,41.686z"/>
<path fill="#0B9EB3" d="M46.958,41.686c0.562,0,1-0.449,1-1c0-0.549-0.438-1-1-1c-0.549,0-1,0.451-1,1
	C45.958,41.236,46.41,41.686,46.958,41.686z"/>
<path fill="#0B9EB3" d="M130.959,40.686c0,0.561,0.449,1,1,1c0.549,0,1-0.439,1-1c0-0.549-0.451-1-1-1
	C131.409,39.686,130.959,40.137,130.959,40.686z"/>
<path fill="#0B9EB3" d="M130.959,30.686c0,0.561,0.449,1,1,1c0.549,0,1-0.439,1-1c0-0.549-0.451-1-1-1
	C131.409,29.686,130.959,30.137,130.959,30.686z"/>
<path fill="#0B9EB3" d="M130.959,35.686c0,0.561,0.449,1,1,1c0.549,0,1-0.439,1-1c0-0.549-0.451-1-1-1
	C131.409,34.686,130.959,35.137,130.959,35.686z"/>
<path fill="#0B9EB3" d="M8.801,28.168c0.391-0.39,0.391-1.021,0-1.41c-0.19-0.199-0.449-0.299-0.709-0.299
	c-0.25,0-0.511,0.1-0.701,0.289c-0.389,0.391-0.389,1.021-0.01,1.41C7.771,28.559,8.411,28.559,8.801,28.168z"/>
<path fill="#0B9EB3" d="M5.166,24.916c0.391-0.389,0.391-1.02,0-1.41c-0.189-0.198-0.45-0.299-0.71-0.299
	c-0.25,0-0.51,0.101-0.7,0.289c-0.39,0.392-0.4,1.021-0.01,1.41C4.137,25.307,4.766,25.307,5.166,24.916z"/>
<path fill="#0B9EB3" d="M11.959,39.686c-0.551,0-1,0.451-1,1c0,0.561,0.449,1,1,1c0.549,0,1-0.439,1-1
	C12.959,40.137,12.508,39.686,11.959,39.686z"/>
<path fill="#0B9EB3" d="M11.959,29.686c-0.551,0-1,0.451-1,1c0,0.561,0.449,1,1,1c0.549,0,1-0.439,1-1
	C12.959,30.137,12.508,29.686,11.959,29.686z"/>
<path fill="#0B9EB3" d="M11.959,34.686c-0.551,0-1,0.451-1,1c0,0.561,0.449,1,1,1c0.549,0,1-0.439,1-1
	C12.959,35.137,12.508,34.686,11.959,34.686z"/>
</svg>
