<svg width="17" height="17" viewBox="0 0 17 17" fill="none" xmlns="http://www.w3.org/2000/svg">
<path d="M8.49978 0C3.80565 0 0 3.80662 0 8.5C0 13.1934 3.80652 17 8.49978 17C13.193 17 17 13.1934 17 8.5C17 3.80662 13.1943 0 8.49978 0ZM5.03239 9.02254C3.75202 8.88975 2.61006 8.21537 1.73586 7.07338C1.66656 6.9859 1.62755 6.87827 1.62469 6.76669C1.61865 6.67557 1.63561 6.58439 1.674 6.50153C1.70082 6.44443 2.34577 5.09827 3.87054 4.63542C4.68504 4.38799 5.6038 4.53679 6.45681 5.05458C6.57673 5.13375 6.66127 5.25634 6.69264 5.39657C6.72402 5.53681 6.69978 5.68374 6.62503 5.80646C6.55027 5.92919 6.43083 6.01813 6.29184 6.05458C6.15284 6.09104 6.00513 6.07215 5.87977 6.00191C5.30014 5.65023 4.70062 5.54165 4.19279 5.69608C3.62009 5.86911 3.22213 6.2355 2.97817 6.53094L2.97341 6.53657C2.9427 6.5781 2.9274 6.62903 2.93015 6.68061C2.93408 6.73491 2.95706 6.78608 2.99504 6.82509C3.6136 7.45664 4.34765 7.83427 5.14832 7.91733C6.10643 8.01725 7.13333 7.68677 7.8942 7.03402C9.07768 6.01835 9.63655 4.16695 8.41587 2.59326C8.32808 2.47679 8.28967 2.33046 8.30893 2.18589C8.32819 2.04133 8.40359 1.91016 8.5188 1.82074C8.63402 1.73133 8.7798 1.69087 8.92461 1.7081C9.06943 1.72533 9.20164 1.79887 9.29266 1.91282C10.5384 3.51896 10.7067 6.0828 8.61701 7.87623C7.75071 8.6234 6.64655 9.03747 5.50258 9.04417C5.34558 9.04528 5.18863 9.03806 5.03239 9.02254ZM13.1299 12.3663C12.3154 12.6137 11.3966 12.4649 10.5436 11.9472C10.4178 11.8708 10.3274 11.7476 10.2924 11.6046C10.2574 11.4616 10.2806 11.3106 10.357 11.1847C10.4333 11.0589 10.5565 10.9685 10.6995 10.9335C10.8425 10.8985 10.9935 10.9217 11.1194 10.9981C11.699 11.3502 12.2985 11.4588 12.8063 11.3039C13.379 11.1309 13.777 10.7649 14.021 10.4695C14.0227 10.4677 14.0242 10.4658 14.0257 10.4639C14.0564 10.4222 14.0717 10.3711 14.069 10.3194C14.0649 10.2651 14.0419 10.214 14.0041 10.1749C13.3855 9.54379 12.6515 9.16616 11.8508 9.08267C10.8927 8.98318 9.8658 9.31367 9.10493 9.96641C7.92145 10.9821 7.36259 12.8335 8.58327 14.4067C8.67105 14.5232 8.70947 14.6695 8.6902 14.8141C8.67094 14.9587 8.59555 15.0898 8.48033 15.1793C8.36512 15.2687 8.21934 15.3091 8.07452 15.2919C7.9297 15.2747 7.79749 15.2011 7.70647 15.0872C6.4607 13.4815 6.29243 10.9176 8.38213 9.1242C9.24851 8.37716 10.3526 7.96311 11.4965 7.95626C11.6526 7.95634 11.8085 7.96442 11.9637 7.98048C13.2441 8.11371 14.386 8.78766 15.2598 9.93008C15.3295 10.0174 15.3685 10.1251 15.371 10.2368C15.3774 10.3279 15.3605 10.4191 15.3221 10.5019C15.2996 10.5569 14.6542 11.903 13.1299 12.3663Z" fill="#00A3E2"/>
</svg>
