<svg width="54" height="12" viewBox="0 0 54 12" fill="none" xmlns="http://www.w3.org/2000/svg">
<path d="M3.2067 9.83975C3.83358 9.83975 4.38812 9.70239 4.87033 9.42768C5.35254 9.15297 5.72625 8.76171 5.99147 8.2539C6.26472 7.73777 6.40135 7.13007 6.40135 6.4308V0.574402H5.01499V4.28304H5.00294C4.81005 3.95005 4.52876 3.68366 4.15907 3.48387C3.79741 3.27575 3.40361 3.1717 2.97765 3.1717C2.399 3.1717 1.88464 3.30905 1.43458 3.58377C0.984514 3.85016 0.630893 4.22477 0.373713 4.7076C0.124571 5.19043 0 5.7565 0 6.40583C0 7.08845 0.12859 7.68783 0.385769 8.20395C0.650985 8.72008 1.02068 9.12383 1.49485 9.41519C1.97706 9.69823 2.54768 9.83975 3.2067 9.83975ZM3.2067 8.61603C2.67627 8.61603 2.24228 8.4204 1.90473 8.02914C1.56719 7.63788 1.39841 7.13007 1.39841 6.50572C1.39841 6.09782 1.47476 5.73569 1.62746 5.41935C1.78016 5.10302 1.99314 4.85328 2.26639 4.67014C2.53964 4.48699 2.84906 4.39542 3.19465 4.39542C3.72508 4.39542 4.15907 4.59521 4.49662 4.9948C4.83417 5.38606 5.00294 5.8897 5.00294 6.50572C5.00294 7.13007 4.83417 7.63788 4.49662 8.02914C4.15907 8.4204 3.7291 8.61603 3.2067 8.61603Z" fill="#00A3E2"/>
<path d="M7.77254 9.68991V3.32154H9.1589V9.68991H7.77254ZM8.45969 2.43496C8.21859 2.43496 8.00963 2.34339 7.83282 2.16025C7.65601 1.97711 7.5676 1.76067 7.5676 1.51093C7.5676 1.26119 7.65601 1.04474 7.83282 0.861603C8.00963 0.67846 8.21859 0.586889 8.45969 0.586889C8.70884 0.586889 8.9178 0.67846 9.08657 0.861603C9.26338 1.04474 9.35178 1.26119 9.35178 1.51093C9.35178 1.76067 9.26338 1.97711 9.08657 2.16025C8.9178 2.34339 8.70884 2.43496 8.45969 2.43496Z" fill="#00A3E2"/>
<path d="M13.076 9.83975C12.4893 9.83975 11.983 9.68991 11.5571 9.39022C11.1311 9.09053 10.8016 8.69095 10.5685 8.19147C10.3435 7.68366 10.231 7.12591 10.231 6.51821C10.231 5.88554 10.3596 5.31946 10.6167 4.81998C10.8739 4.31217 11.2436 3.91259 11.7258 3.62123C12.2161 3.32154 12.8028 3.1717 13.4859 3.1717C14.153 3.1717 14.7236 3.32154 15.1977 3.62123C15.6719 3.91259 16.0336 4.31217 16.2827 4.81998C16.5319 5.31946 16.6564 5.87721 16.6564 6.49324V9.68991H15.2701V8.50364H15.246C15.0611 8.85328 14.7959 9.16545 14.4503 9.44017C14.1047 9.70656 13.6466 9.83975 13.076 9.83975ZM13.4497 8.61603C13.8114 8.61603 14.1248 8.52445 14.39 8.34131C14.6633 8.14984 14.8763 7.89594 15.029 7.5796C15.1817 7.25494 15.254 6.89282 15.246 6.49324C15.246 6.09365 15.1736 5.73985 15.029 5.43184C14.8843 5.11551 14.6794 4.86577 14.4142 4.68262C14.1489 4.49116 13.8315 4.39542 13.4618 4.39542C13.076 4.39542 12.7465 4.49116 12.4733 4.68262C12.208 4.86577 11.9991 5.11967 11.8464 5.44433C11.7017 5.76067 11.6294 6.11446 11.6294 6.50572C11.6294 6.89698 11.7017 7.25494 11.8464 7.5796C11.991 7.89594 12.196 8.14984 12.4612 8.34131C12.7345 8.52445 13.064 8.61603 13.4497 8.61603Z" fill="#00A3E2"/>
<path d="M21.2206 9.83975C20.5937 9.83975 20.0392 9.70239 19.5569 9.42768C19.0747 9.15297 18.697 8.76171 18.4238 8.2539C18.1585 7.73777 18.0259 7.13007 18.0259 6.4308V0.574402H19.4123V4.28304H19.4243C19.6172 3.95005 19.8945 3.68366 20.2562 3.48387C20.6259 3.27575 21.0237 3.1717 21.4496 3.1717C22.0283 3.1717 22.5426 3.30905 22.9927 3.58377C23.4428 3.85016 23.7924 4.22477 24.0415 4.7076C24.2987 5.19043 24.4273 5.7565 24.4273 6.40583C24.4273 7.08845 24.2947 7.68783 24.0295 8.20395C23.7723 8.72008 23.4026 9.12383 22.9204 9.41519C22.4462 9.69823 21.8796 9.83975 21.2206 9.83975ZM21.2206 8.61603C21.751 8.61603 22.185 8.4204 22.5225 8.02914C22.8601 7.63788 23.0289 7.13007 23.0289 6.50572C23.0289 6.09782 22.9525 5.73569 22.7998 5.41935C22.6471 5.10302 22.4341 4.85328 22.1609 4.67014C21.8876 4.48699 21.5782 4.39542 21.2326 4.39542C20.7022 4.39542 20.2682 4.59521 19.9307 4.9948C19.5931 5.38606 19.4243 5.8897 19.4243 6.50572C19.4243 7.13007 19.5931 7.63788 19.9307 8.02914C20.2682 8.4204 20.6982 8.61603 21.2206 8.61603Z" fill="#00A3E2"/>
<path d="M28.6074 9.68991C27.9162 9.68991 27.3094 9.55671 26.787 9.29032C26.2726 9.01561 25.8708 8.641 25.5815 8.16649C25.2922 7.68366 25.1475 7.13007 25.1475 6.50572C25.1475 5.84808 25.2761 5.26951 25.5333 4.77003C25.7904 4.27055 26.1441 3.87929 26.5941 3.59625C27.0442 3.31322 27.5626 3.1717 28.1493 3.1717C28.8083 3.1717 29.3508 3.31738 29.7767 3.60874C30.2027 3.9001 30.5161 4.29136 30.717 4.78252C30.926 5.27367 31.0305 5.8231 31.0305 6.4308C31.0305 6.63059 31.0144 6.80957 30.9822 6.96774H26.6182C26.6906 7.4589 26.9116 7.83351 27.2813 8.09157C27.651 8.34131 28.093 8.46618 28.6074 8.46618H30.2589V9.68991H28.6074ZM26.6062 5.99376H29.6441C29.6361 5.72737 29.5798 5.4693 29.4753 5.21956C29.3709 4.9615 29.2101 4.75338 28.9931 4.59521C28.7842 4.43705 28.5029 4.35796 28.1493 4.35796C27.8278 4.35796 27.5545 4.44121 27.3295 4.6077C27.1125 4.76587 26.9437 4.96982 26.8232 5.21956C26.7026 5.4693 26.6303 5.72737 26.6062 5.99376Z" fill="#00A3E2"/>
<path d="M33.8684 9.80229C33.6031 9.79397 33.3701 9.7565 33.1691 9.68991C32.9763 9.63163 32.8115 9.54006 32.6749 9.41519C32.5463 9.282 32.4458 9.1155 32.3735 8.91571C32.3092 8.7076 32.2771 8.44953 32.2771 8.14152V0.149844L33.0606 0V8.11654C33.0606 8.31634 33.0767 8.47867 33.1089 8.60354C33.1491 8.72008 33.2053 8.81582 33.2776 8.89074C33.35 8.95734 33.4424 9.00729 33.5549 9.04058C33.6755 9.07388 33.8161 9.10302 33.9768 9.12799L33.8684 9.80229Z" fill="#00A3E2"/>
<path d="M40.4371 6.46826C40.4371 6.97607 40.3647 7.43809 40.2201 7.85432C40.0834 8.27055 39.8865 8.62435 39.6294 8.91571C39.3802 9.20708 39.0829 9.436 38.7373 9.6025C38.3917 9.76067 38.0099 9.83975 37.592 9.83975C37.1741 9.83975 36.7923 9.76067 36.4468 9.6025C36.1012 9.436 35.7998 9.20708 35.5426 8.91571C35.2935 8.62435 35.0966 8.27055 34.9519 7.85432C34.8153 7.43809 34.747 6.97607 34.747 6.46826C34.747 5.96046 34.8153 5.49844 34.9519 5.08221C35.0966 4.66597 35.2935 4.31217 35.5426 4.02081C35.7998 3.72112 36.1012 3.4922 36.4468 3.33403C36.7923 3.16753 37.1741 3.08429 37.592 3.08429C38.0099 3.08429 38.3917 3.16753 38.7373 3.33403C39.0829 3.4922 39.3802 3.72112 39.6294 4.02081C39.8865 4.31217 40.0834 4.66597 40.2201 5.08221C40.3647 5.49844 40.4371 5.96046 40.4371 6.46826ZM39.6052 6.46826C39.6052 5.66077 39.4244 5.01977 39.0628 4.54527C38.7011 4.06243 38.2109 3.82102 37.592 3.82102C36.9732 3.82102 36.4829 4.06243 36.1213 4.54527C35.7596 5.01977 35.5788 5.66077 35.5788 6.46826C35.5788 7.27575 35.7596 7.91675 36.1213 8.39126C36.4829 8.86577 36.9732 9.10302 37.592 9.10302C38.2109 9.10302 38.7011 8.86577 39.0628 8.39126C39.4244 7.91675 39.6052 7.27575 39.6052 6.46826Z" fill="#00A3E2"/>
<path d="M47.2125 6.46826C47.2125 6.97607 47.1402 7.43809 46.9955 7.85432C46.8589 8.27055 46.662 8.62435 46.4048 8.91571C46.1557 9.20708 45.8583 9.436 45.5127 9.6025C45.1671 9.76067 44.7854 9.83975 44.3675 9.83975C43.9495 9.83975 43.5678 9.76067 43.2222 9.6025C42.8766 9.436 42.5752 9.20708 42.3181 8.91571C42.0689 8.62435 41.872 8.27055 41.7274 7.85432C41.5907 7.43809 41.5224 6.97607 41.5224 6.46826C41.5224 5.96046 41.5907 5.49844 41.7274 5.08221C41.872 4.66597 42.0689 4.31217 42.3181 4.02081C42.5752 3.72112 42.8766 3.4922 43.2222 3.33403C43.5678 3.16753 43.9495 3.08429 44.3675 3.08429C44.7854 3.08429 45.1671 3.16753 45.5127 3.33403C45.8583 3.4922 46.1557 3.72112 46.4048 4.02081C46.662 4.31217 46.8589 4.66597 46.9955 5.08221C47.1402 5.49844 47.2125 5.96046 47.2125 6.46826ZM46.3807 6.46826C46.3807 5.66077 46.1999 5.01977 45.8382 4.54527C45.4765 4.06243 44.9863 3.82102 44.3675 3.82102C43.7486 3.82102 43.2584 4.06243 42.8967 4.54527C42.5351 5.01977 42.3542 5.66077 42.3542 6.46826C42.3542 7.27575 42.5351 7.91675 42.8967 8.39126C43.2584 8.86577 43.7486 9.10302 44.3675 9.10302C44.9863 9.10302 45.4765 8.86577 45.8382 8.39126C46.1999 7.91675 46.3807 7.27575 46.3807 6.46826Z" fill="#00A3E2"/>
<path d="M49.4552 8.52862C49.5275 8.58689 49.6159 8.64932 49.7204 8.71592C49.8329 8.78252 49.9615 8.84495 50.1061 8.90323C50.2508 8.9615 50.4075 9.01145 50.5763 9.05307C50.7451 9.08637 50.9219 9.10302 51.1067 9.10302C51.4925 9.10302 51.814 9.03642 52.0712 8.90323C52.3364 8.76171 52.5493 8.5744 52.7101 8.34131C52.8708 8.0999 52.9874 7.82102 53.0597 7.50468C53.132 7.18002 53.1682 6.83871 53.1682 6.48075C53.1682 5.63163 52.9632 4.98231 52.5534 4.53278C52.1435 4.07492 51.601 3.84599 50.9259 3.84599C50.5401 3.84599 50.2267 3.86681 49.9856 3.90843C49.7525 3.94173 49.5757 3.97919 49.4552 4.02081V8.52862ZM49.4552 12H48.6716V3.4589C48.9046 3.37565 49.202 3.29657 49.5637 3.22164C49.9253 3.14672 50.3834 3.10926 50.938 3.10926C51.3961 3.10926 51.81 3.18835 52.1797 3.34651C52.5574 3.49636 52.8789 3.71696 53.1441 4.00833C53.4173 4.29969 53.6263 4.65349 53.7709 5.06972C53.9236 5.48595 54 5.9563 54 6.48075C54 6.9719 53.9357 7.4256 53.8071 7.84183C53.6866 8.24974 53.5057 8.60354 53.2646 8.90323C53.0235 9.19459 52.7262 9.42352 52.3725 9.59001C52.027 9.7565 51.6291 9.83975 51.1791 9.83975C50.7692 9.83975 50.4115 9.78148 50.1061 9.66493C49.8088 9.54006 49.5918 9.42352 49.4552 9.3153V12Z" fill="#00A3E2"/>
</svg>
