<?xml version="1.0" encoding="utf-8"?>
<!-- Generator: Adobe Illustrator 24.1.2, SVG Export Plug-In . SVG Version: 6.00 Build 0)  -->
<svg version="1.1" id="Calque_1" xmlns="http://www.w3.org/2000/svg" xmlns:xlink="http://www.w3.org/1999/xlink" x="0px" y="0px"
	 viewBox="0 0 607.5 181" style="enable-background:new 0 0 607.5 181;" xml:space="preserve">
<style type="text/css">
	.st0{fill:#006D72;}
	.st1{fill:#0A9081;}
	.st2{fill:#6FC2B9;}
	.st3{fill:#585856;}
	.st4{fill:#FFFFFF;}
</style>
<g>
	<g>
		<g>
			<path class="st4" d="M277.4,94.1c0,3.5-0.5,6.7-1.5,9.5c-1,2.8-2.4,5.3-4.3,7.3c-1.8,2-4,3.6-6.6,4.7c-2.5,1.1-5.3,1.7-8.3,1.7
				c-3,0-5.8-0.6-8.3-1.7c-2.6-1.1-4.7-2.7-6.6-4.7c-1.8-2-3.3-4.5-4.3-7.3c-1-2.8-1.5-6-1.5-9.5c0-3.5,0.5-6.6,1.5-9.5
				c1-2.9,2.4-5.3,4.3-7.4c1.8-2,4-3.6,6.6-4.7c2.5-1.1,5.3-1.7,8.3-1.7c3,0,5.8,0.6,8.3,1.7c2.6,1.1,4.7,2.7,6.6,4.7
				c1.8,2,3.3,4.5,4.3,7.4C276.9,87.5,277.4,90.7,277.4,94.1z M269.2,94.1c0-5-1.1-8.9-3.4-11.9c-2.2-2.9-5.3-4.4-9.1-4.4
				s-6.9,1.5-9.1,4.4s-3.4,6.9-3.4,11.9c0,5,1.1,8.9,3.4,11.9c2.2,2.9,5.3,4.4,9.1,4.4s6.9-1.5,9.1-4.4
				C268,103,269.2,99.1,269.2,94.1z"/>
		</g>
		<g>
			<path class="st4" d="M322.7,113.9c0,0.6-0.4,1.2-1.1,1.3c-1.7,0.4-3.7,0.8-6.1,1.2c-3,0.5-6.4,0.8-10.3,0.8
				c-3.4,0-6.3-0.5-8.6-1.5c-2.3-1-4.2-2.4-5.6-4.2s-2.4-4-3.1-6.4c-0.6-2.5-0.9-5.2-0.9-8.2V73.4c0-0.8,0.6-1.4,1.4-1.4h5.2
				c0.8,0,1.4,0.6,1.4,1.4v21.8c0,5.4,0.9,9.2,2.6,11.6c1.7,2.3,4.6,3.5,8.6,3.5c0.9,0,1.7,0,2.6-0.1c0.9-0.1,1.8-0.1,2.5-0.2
				c0.8-0.1,1.5-0.2,2.2-0.3c0.7-0.1,1.1-0.2,1.4-0.3v-36c0-0.8,0.6-1.4,1.4-1.4h5.2c0.8,0,1.4,0.6,1.4,1.4V113.9z"/>
		</g>
		<g>
			<path class="st4" d="M352.6,71.1c0.7,0,1.5,0,2.3,0.1c0.9,0.1,1.7,0.2,2.6,0.3c0.9,0.1,1.6,0.3,2.3,0.4c0.7,0.1,1.2,0.3,1.6,0.4
				l-1.1,5.4c-0.2,0.8-0.9,1.3-1.7,1.1c-0.5-0.1-1.1-0.3-1.7-0.4c-1.4-0.3-3.3-0.5-5.5-0.5c-1.5,0-3.1,0.2-4.6,0.5
				c-0.6,0.1-1.2,0.3-1.6,0.3c-0.6,0.1-1.1,0.7-1.1,1.3v34.7c0,0.8-0.6,1.4-1.4,1.4h-5.2c-0.8,0-1.4-0.6-1.4-1.4v-40
				c0-0.6,0.4-1.1,0.9-1.3c1.7-0.6,3.7-1.1,6.1-1.6C346.1,71.4,349.2,71.1,352.6,71.1z"/>
		</g>
		<g>
			<path class="st4" d="M443.3,94.3c0,3.5-0.5,6.6-1.5,9.4c-1,2.8-2.4,5.2-4.2,7.2c-1.8,2-3.9,3.5-6.3,4.6c-2.4,1.1-5.1,1.7-8.1,1.7
				s-5.6-0.5-8.1-1.7c-2.4-1.1-4.5-2.6-6.3-4.6s-3.2-4.4-4.2-7.2c-1-2.8-1.5-6-1.5-9.4c0-3.5,0.5-6.6,1.5-9.4c1-2.8,2.4-5.3,4.2-7.3
				c1.8-2,3.9-3.6,6.3-4.7c2.4-1.1,5.1-1.7,8.1-1.7s5.6,0.6,8.1,1.7c2.4,1.1,4.6,2.7,6.3,4.7c1.8,2,3.2,4.4,4.2,7.3
				C442.8,87.7,443.3,90.8,443.3,94.3z M437.4,94.3c0-5.5-1.3-9.9-3.8-13.1c-2.6-3.3-6-4.9-10.4-4.9s-7.8,1.6-10.4,4.9
				c-2.6,3.3-3.8,7.6-3.8,13.1c0,5.5,1.3,9.9,3.8,13.1c2.5,3.2,6,4.8,10.4,4.8s7.8-1.6,10.4-4.8C436.2,104.1,437.4,99.8,437.4,94.3z
				"/>
		</g>
		<g>
			<path class="st4" d="M490.2,94.3c0,3.5-0.5,6.6-1.5,9.4c-1,2.8-2.4,5.2-4.2,7.2c-1.8,2-3.9,3.5-6.3,4.6c-2.4,1.1-5.1,1.7-8.1,1.7
				s-5.6-0.5-8.1-1.7c-2.4-1.1-4.5-2.6-6.3-4.6s-3.2-4.4-4.2-7.2c-1-2.8-1.5-6-1.5-9.4c0-3.5,0.5-6.6,1.5-9.4c1-2.8,2.4-5.3,4.2-7.3
				c1.8-2,3.9-3.6,6.3-4.7c2.4-1.1,5.1-1.7,8.1-1.7s5.6,0.6,8.1,1.7c2.4,1.1,4.6,2.7,6.3,4.7c1.8,2,3.2,4.4,4.2,7.3
				C489.7,87.7,490.2,90.8,490.2,94.3z M484.4,94.3c0-5.5-1.3-9.9-3.8-13.1c-2.6-3.3-6-4.9-10.4-4.9s-7.8,1.6-10.4,4.9
				c-2.6,3.3-3.8,7.6-3.8,13.1c0,5.5,1.3,9.9,3.8,13.1c2.5,3.2,6,4.8,10.4,4.8s7.8-1.6,10.4-4.8C483.1,104.1,484.4,99.8,484.4,94.3z
				"/>
		</g>
		<g>
			<path class="st4" d="M504.3,131.9h-2.8c-0.8,0-1.4-0.6-1.4-1.4V74.8c0-0.6,0.4-1.1,0.9-1.3c1.5-0.5,3.3-0.9,5.3-1.3
				c2.6-0.5,5.8-0.8,9.7-0.8c3.2,0,6.2,0.5,8.8,1.6c2.6,1,4.9,2.6,6.8,4.5c1.9,2,3.4,4.4,4.4,7.2c1,2.8,1.6,6,1.6,9.6
				c0,3.3-0.4,6.4-1.3,9.2c-0.9,2.8-2.2,5.2-3.9,7.2c-1.7,2-3.8,3.6-6.2,4.7c-2.5,1.1-5.3,1.7-8.5,1.7c-2.9,0-5.4-0.4-7.5-1.2
				c-1-0.4-1.9-0.8-2.7-1.2c-0.9-0.5-2,0.2-2,1.2v14.5C505.7,131.3,505.1,131.9,504.3,131.9z M505.7,107.6c0,0.5,0.2,0.9,0.6,1.1
				c0.4,0.3,0.8,0.5,1.3,0.8c0.8,0.4,1.7,0.9,2.7,1.3c1,0.4,2.1,0.7,3.3,1s2.4,0.4,3.7,0.4c2.7,0,5-0.5,6.8-1.4s3.3-2.2,4.5-3.8
				c1.1-1.6,2-3.5,2.5-5.7c0.5-2.2,0.8-4.5,0.8-6.9c0-5.8-1.4-10.2-4.3-13.3c-2.9-3.1-6.7-4.6-11.5-4.6c-2.7,0-4.9,0.1-6.6,0.4
				c-1.1,0.2-2,0.3-2.8,0.5c-0.6,0.1-1,0.7-1,1.3V107.6z"/>
		</g>
		<g>
			<path class="st4" d="M558.7,112.3c3.2,0,5.8-0.5,7.9-1.6c2.1-1,3.1-2.8,3.1-5.3c0-1.2-0.2-2.2-0.5-3.1c-0.4-0.9-1-1.6-1.8-2.3
				c-0.8-0.7-2-1.3-3.4-2c-1.4-0.6-3.1-1.4-5.1-2.2c-1.6-0.7-3.2-1.4-4.7-2.1c-1.5-0.7-2.8-1.5-3.9-2.5c-1.1-0.9-2-2.1-2.7-3.4
				c-0.7-1.3-1-2.9-1-4.8c0-3.6,1.3-6.5,4-8.7c2.7-2.2,6.4-3.3,11.1-3.3c3,0,5.5,0.3,7.4,0.8c1.2,0.3,2.2,0.6,3,0.9
				c0.7,0.2,1,0.9,0.9,1.6l-0.6,2.2c-0.2,0.8-1,1.2-1.8,0.9c-0.6-0.2-1.2-0.5-2-0.7c-1.6-0.6-4-0.9-7.1-0.9c-1.2,0-2.4,0.1-3.5,0.4
				c-1.1,0.2-2.1,0.7-2.9,1.2c-0.9,0.5-1.5,1.2-2,2c-0.5,0.8-0.8,1.8-0.8,3c0,1.2,0.2,2.2,0.7,3.1c0.5,0.9,1.1,1.6,2,2.3
				c0.9,0.7,2,1.3,3.2,1.8c1.3,0.6,2.7,1.2,4.4,1.9c1.7,0.7,3.3,1.4,4.9,2.1c1.6,0.7,2.9,1.6,4.1,2.5s2.2,2.2,2.9,3.6
				c0.7,1.4,1.1,3.1,1.1,5.2c0,4-1.5,7-4.5,9c-3,2-7,3.1-12.2,3.1c-3.9,0-6.8-0.3-8.8-1c-1.2-0.4-2.2-0.7-2.9-1
				c-0.7-0.3-1-1-0.8-1.7l1.1-3.8c0.2,0.1,0.5,0.3,1.1,0.6s1.3,0.5,2.3,0.9s2.1,0.6,3.4,0.8C555.5,112.2,557,112.3,558.7,112.3z"/>
		</g>
		<g>
			<path class="st4" d="M211.7,116.1V94.6c0-0.2-0.1-0.5-0.2-0.6c-3.7-5.8-7.3-11.5-10.6-17.2c-3-5.1-5.9-10.2-8.6-15.1
				c-0.4-0.8,0.2-1.8,1.1-1.8h6.7c0.5,0,0.9,0.3,1.1,0.7c2,4.3,4.3,8.7,6.7,13.1c2.6,4.7,5.3,9.2,8,13.5c2.7-4.3,5.4-8.8,8-13.5
				c2.5-4.4,4.7-8.8,6.8-13.1c0.2-0.4,0.6-0.7,1.1-0.7h6.2c0.9,0,1.5,1,1.1,1.8c-2.7,5-5.6,10-8.6,15.1c-3.3,5.6-6.8,11.3-10.5,17.1
				c-0.1,0.2-0.2,0.4-0.2,0.6v21.7c0,0.7-0.5,1.2-1.2,1.2h-5.7C212.3,117.3,211.7,116.8,211.7,116.1z"/>
		</g>
		<g>
			<path class="st4" d="M402,113.2v2.5c0,0.7-0.5,1.2-1.2,1.2h-30.3c-0.7,0-1.2-0.5-1.2-1.2V60.7c0-0.7,0.5-1.2,1.2-1.2h3.2
				c0.7,0,1.2,0.5,1.2,1.2v50.2c0,0.7,0.5,1.2,1.2,1.2h24.6C401.4,112,402,112.6,402,113.2z"/>
		</g>
	</g>
	<g>
		<g>
			<path class="st4" d="M56.2,135.4c-1.7,0-3.4-0.7-4.7-2c-2.6-2.6-2.6-6.9,0-9.5l71.1-71.3c1.2-1.2,1.9-2.8,1.9-4.6
				c0-1.8-0.7-3.4-2-4.7c-2.6-2.6-6.7-2.6-9.3-0.1L66.2,90.2c-3.7,3.7-8.7,5.8-14,5.8c0,0-0.1,0-0.1,0c-5.3,0-10.3-2.1-14.1-5.9
				c-3.8-3.8-5.9-8.8-5.9-14.1c0-5.3,2-10.4,5.8-14.1l32.2-32.2c2.6-2.6,6.9-2.6,9.5,0c2.6,2.6,2.6,6.9,0,9.5L47.3,71.4
				c-1.2,1.2-1.9,2.8-1.9,4.6c0,1.8,0.7,3.4,2,4.7c1.3,1.3,2.9,2,4.7,2c1.7,0.1,3.4-0.7,4.6-1.9l46.9-46.9
				c7.8-7.8,20.4-7.7,28.2,0.1c3.8,3.8,5.9,8.8,5.9,14.1c0,5.3-2,10.4-5.8,14.1l-71.1,71.3C59.6,134.7,57.9,135.4,56.2,135.4z"/>
		</g>
		<g>
			<path class="st4" d="M108.3,153.3c0,0-0.1,0-0.1,0c-5.3,0-10.3-2.1-14.1-5.9c-3.8-3.8-5.9-8.8-5.9-14.1c0-5.3,2-10.4,5.8-14.1
				l32.3-32.3c2.6-2.6,6.9-2.6,9.5,0c2.6,2.6,2.6,6.9,0,9.5l-32.3,32.3c-1.2,1.2-1.9,2.8-1.9,4.6c0,1.8,0.7,3.4,2,4.7
				c1.3,1.3,2.9,2,4.7,2c1.7-0.1,3.4-0.7,4.6-1.9l13-13c2.6-2.6,6.9-2.6,9.5,0c2.6,2.6,2.6,6.9,0,9.5l-13,13
				C118.6,151.2,113.6,153.3,108.3,153.3z"/>
		</g>
	</g>
</g>
</svg>
