<?xml version="1.0" encoding="utf-8"?>
<!-- Generator: Adobe Illustrator 16.0.0, SVG Export Plug-In . SVG Version: 6.00 Build 0)  -->
<!DOCTYPE svg PUBLIC "-//W3C//DTD SVG 1.1//EN" "http://www.w3.org/Graphics/SVG/1.1/DTD/svg11.dtd">
<svg version="1.1" id="Layer_1" xmlns="http://www.w3.org/2000/svg" xmlns:xlink="http://www.w3.org/1999/xlink" x="0px" y="0px"
	 width="14px" height="14px" viewBox="0 0 14 14" enable-background="new 0 0 14 14" xml:space="preserve">
<g>
	<g>
		<g>
			<path fill="#989897" d="M11.948,2.049C10.626,0.728,8.868,0,6.999,0C5.127,0,3.371,0.728,2.048,2.049
				c-2.73,2.729-2.73,7.172,0,9.901C3.371,13.272,5.127,14,6.997,14c1.871,0,3.629-0.728,4.951-2.05C13.269,10.629,14,8.87,14,7
				S13.269,3.371,11.948,2.049z M3.455,3.457C4.434,2.479,5.717,1.99,6.999,1.99c1.28,0,2.563,0.488,3.542,1.466l-7.086,7.087
				C1.498,8.586,1.498,5.414,3.455,3.457z"/>
		</g>
	</g>
	<g>
		<path fill="#FFFFFF" d="M3.455,3.457C4.434,2.479,5.717,1.99,6.999,1.99c1.28,0,2.563,0.488,3.542,1.466l-7.086,7.087
			C1.498,8.586,1.498,5.414,3.455,3.457z"/>
	</g>
</g>
</svg>
