<svg xmlns="http://www.w3.org/2000/svg" xmlns:xlink="http://www.w3.org/1999/xlink" width="24" height="24" viewBox="0 0 24 24">
    <defs>
        <path id="a" d="M11.5 17c0 .83-.67 1.5-1.5 1.5H7c-.28 0-.5-.22-.5-.5v-5c0-.28.22-.5.5-.5h3c.83 0 1.5.67 1.5 1.5v3zM8 14v3h2v-3H8zm6-1.5a.75.75 0 0 1 .75.75v3.742l2.75.006a.752.752 0 0 1 0 1.502h-3.25a1 1 0 0 1-1-1v-4.25a.75.75 0 0 1 .75-.75zm4.25-6.25c0 .41-.34.75-.75.75h-2.75v3h2v-.75c0-.41.34-.75.75-.75s.75.34.75.75v1.25c0 .5-.4 1-1 1h-3c-.6 0-1-.5-1-1v-4c0-.5.4-1 1-1h3.25c.41 0 .75.34.75.75zm-7-.75c.55 0 1 .45 1 1v4.25c0 .41-.34.75-.75.75s-.75-.34-.75-.75V6.99h-1v2.76c0 .41-.34.75-.75.75s-.75-.34-.75-.75V7h-1v3.75c0 .41-.34.75-.75.75s-.75-.34-.75-.75V6.5c0-.55.45-1 1-1h4.5z"/>
    </defs>
    <g fill="none" fill-rule="evenodd">
        <mask id="b" fill="#fff">
            <use xlink:href="#a"/>
        </mask>
        <g fill="#000" fill-opacity=".54" mask="url(#b)">
            <path d="M0 0h24v24H0z"/>
        </g>
    </g>
</svg>
