<svg xmlns="http://www.w3.org/2000/svg" xmlns:xlink="http://www.w3.org/1999/xlink" width="24" height="24" viewBox="0 0 24 24">
    <defs>
        <path id="a" d="M10.75 17c0 .83-.67 1.5-1.5 1.5h-2c-.83 0-1.5-.67-1.5-1.5v-3c0-.83.67-1.5 1.5-1.5h2c.83 0 1.5.67 1.5 1.5v3zm-3.5-3v3h2v-3h-2zm7.25-1.5a.75.75 0 0 1 .75.75v3.742l2.75.006a.752.752 0 0 1 0 1.502h-3.25a1 1 0 0 1-1-1v-4.25a.75.75 0 0 1 .75-.75zm3.5-7c.55 0 1 .45 1 1v4.25c0 .41-.34.75-.75.75s-.75-.34-.75-.75V6.99h-1v2.76c0 .41-.34.75-.75.75s-.75-.34-.75-.75V7h-1v3.75c0 .41-.34.75-.75.75s-.75-.34-.75-.75V6.5c0-.55.45-1 1-1H18zm-7.5 0c.55 0 1 .45 1 1v4.25c0 .41-.34.75-.75.75s-.75-.34-.75-.75V6.99H9v2.76c0 .41-.34.75-.75.75s-.75-.34-.75-.75V7h-1v3.75c0 .41-.34.75-.75.75S5 11.16 5 10.75V6.5c0-.55.45-1 1-1h4.5z"/>
    </defs>
    <g fill="none" fill-rule="evenodd">
        <mask id="b" fill="#fff">
            <use xlink:href="#a"/>
        </mask>
        <g fill="#000" fill-opacity=".54" mask="url(#b)">
            <path d="M0 0h24v24H0z"/>
        </g>
    </g>
</svg>
