<svg width="14" height="18" viewBox="0 0 14 18" fill="none" xmlns="http://www.w3.org/2000/svg">
<path d="M11.5977 9.46289C11.5898 8.13086 12.1934 7.12695 13.4121 6.38672C12.7305 5.41016 11.6992 4.87305 10.3398 4.76953C9.05273 4.66797 7.64453 5.51953 7.12891 5.51953C6.58398 5.51953 5.33789 4.80469 4.35742 4.80469C2.33398 4.83594 0.183594 6.41797 0.183594 9.63672C0.183594 10.5879 0.357422 11.5703 0.705078 12.582C1.16992 13.9141 2.8457 17.1777 4.59375 17.125C5.50781 17.1035 6.1543 16.4766 7.34375 16.4766C8.49805 16.4766 9.0957 17.125 10.1152 17.125C11.8789 17.0996 13.3945 14.1328 13.8359 12.7969C11.4707 11.6816 11.5977 9.53125 11.5977 9.46289ZM9.54492 3.50586C10.5352 2.33008 10.4453 1.25977 10.416 0.875C9.54102 0.925781 8.5293 1.4707 7.95312 2.14062C7.31836 2.85938 6.94531 3.74805 7.02539 4.75C7.9707 4.82227 8.83398 4.33594 9.54492 3.50586Z" fill="white"/>
</svg>
