<svg width="18" height="18" viewBox="0 0 18 18" fill="none" xmlns="http://www.w3.org/2000/svg">
<path d="M14 2.25C14.4141 2.25019 14.75 2.5859 14.75 3V11.5713C14.75 11.9854 14.4141 12.3211 14 12.3213H11.417V15.1426C11.417 15.5567 11.081 15.8924 10.667 15.8926H4C3.58579 15.8926 3.25 15.5568 3.25 15.1426V6.57129C3.25007 6.15713 3.58583 5.82129 4 5.82129H6.58301V3C6.58301 2.58587 6.91891 2.25013 7.33301 2.25H14ZM4.75 14.3926H9.91699V7.32129H4.75V14.3926ZM8.08301 5.82129H10.667C11.081 5.82148 11.4169 6.15725 11.417 6.57129V10.8213H13.25V3.75H8.08301V5.82129Z" fill="#F0F5FF"/>
</svg>
