<svg width="40" height="40" viewBox="0 0 40 40" fill="none" xmlns="http://www.w3.org/2000/svg">
<path d="M20 23C18.8954 23 18 22.1046 18 21L18 19C18 17.8954 18.8954 17 20 17L32 17C33.1046 17 34 17.8954 34 19L34 21C34 22.1046 33.1046 23 32 23L20 23Z" fill="#4F6A92"/>
<path d="M20 14C18.8954 14 18 13.1046 18 12L18 10C18 8.89543 18.8954 8 20 8L32 8C33.1046 8 34 8.89543 34 10L34 12C34 13.1046 33.1046 14 32 14L20 14Z" fill="#4F6A92"/>
<path d="M32 26C33.1046 26 34 26.8954 34 28L34 30C34 31.1046 33.1046 32 32 32L20 32C18.8954 32 18 31.1046 18 30L18 28C18 26.8954 18.8954 26 20 26L32 26Z" fill="#4F6A92"/>
<path d="M14 11L8.59327 11.1166L6 19.9538M6 19.9538L14 19.9538M6 19.9538L8.59327 29L14 29" stroke="#4F6A92" stroke-width="3" stroke-linecap="round" stroke-linejoin="round"/>
</svg>
