<svg xmlns="http://www.w3.org/2000/svg" width="18" height="18" viewBox="0 0 18 18" fill="none">
  <path d="M9.20836 10.4354C8.69552 10.4354 8.27979 10.0197 8.27979 9.50685L8.27979 8.79023C8.27979 8.27739 8.69552 7.86166 9.20836 7.86166L14.2146 7.86166C14.7274 7.86166 15.1432 8.27739 15.1432 8.79023L15.1432 9.50685C15.1432 10.0197 14.7274 10.4354 14.2146 10.4354L9.20836 10.4354Z" fill="#271B46"/>
  <path d="M9.20836 6.57379C8.69552 6.57379 8.27979 6.15806 8.27979 5.64522L8.27979 4.9286C8.27979 4.41576 8.69552 4.00003 9.20836 4.00002L14.2146 4.00002C14.7274 4.00002 15.1432 4.41576 15.1432 4.9286L15.1432 5.64522C15.1432 6.15806 14.7274 6.57379 14.2146 6.57379L9.20836 6.57379Z" fill="#271B46"/>
  <path d="M14.2147 11.722C14.7276 11.722 15.1433 12.1378 15.1433 12.6506L15.1433 13.3672C15.1433 13.8801 14.7276 14.2958 14.2147 14.2958L9.20851 14.2958C8.69567 14.2958 8.27993 13.8801 8.27993 13.3672L8.27993 12.6506C8.27993 12.1378 8.69567 11.722 9.20851 11.722L14.2147 11.722Z" fill="#271B46"/>
  <path d="M6.43169 5.28558L4.11241 5.33561L3 9.12641M3 9.12641L6.43169 9.12641M3 9.12641L4.11241 13.0069L6.43169 13.0069" stroke="#271B46" stroke-width="1.5" stroke-linecap="round" stroke-linejoin="round"/>
</svg>