<svg xmlns="http://www.w3.org/2000/svg" width="18" height="18" viewBox="0 0 18 18" fill="none">
  <path d="M9.25 6.5C9.25 6.36193 9.36193 6.25 9.5 6.25H11.5C11.6381 6.25 11.75 6.36193 11.75 6.5V9.5C11.75 9.63807 11.6381 9.75 11.5 9.75H9.5C9.36193 9.75 9.25 9.63807 9.25 9.5V6.5Z" fill="#271B46" stroke="#271B46" stroke-width="1.5"/>
  <path fill-rule="evenodd" clip-rule="evenodd" d="M9 4.5H12C12.8284 4.5 13.5 5.17157 13.5 6V12C13.5 12.8284 12.8284 13.5 12 13.5H9.59865C9.85391 13.0587 10 12.5464 10 12V11C10 9.5135 8.91886 8.27952 7.5 8.04148V6C7.5 5.17157 8.17157 4.5 9 4.5ZM6 8V6C6 4.34315 7.34315 3 9 3H12C13.6569 3 15 4.34315 15 6V12C15 13.6569 13.6569 15 12 15H9C8.64936 15 8.31278 14.9398 7.99999 14.8293C7.68722 14.9398 7.35064 15 7 15H6C4.34315 15 3 13.6569 3 12V11C3 9.34315 4.34315 8 6 8ZM6 9.5H7C7.82843 9.5 8.5 10.1716 8.5 11V12C8.5 12.8284 7.82843 13.5 7 13.5H6C5.17157 13.5 4.5 12.8284 4.5 12V11C4.5 10.1716 5.17157 9.5 6 9.5Z" fill="#271B46"/>
</svg>