<?xml version="1.0" encoding="UTF-8"?>
<svg xmlns="http://www.w3.org/2000/svg" xmlns:xlink="http://www.w3.org/1999/xlink" width="137px" height="32px" viewBox="0 0 137 32" version="1.1">
<g id="surface1">
<path style=" stroke:none;fill-rule:nonzero;fill:rgb(16.078432%,15.686275%,51.372552%);fill-opacity:1;" d="M 71.996094 21.453125 L 71.726562 23.003906 L 65.535156 23.003906 C 65 23.003906 64.730469 22.738281 64.730469 22.257812 C 64.730469 22.199219 64.730469 22.109375 64.761719 21.992188 L 66.339844 13.101562 C 66.457031 12.535156 66.515625 12.027344 66.515625 11.636719 C 66.515625 11.070312 66.367188 10.683594 65.890625 10.476562 L 65.921875 10.296875 L 68.929688 10.296875 L 66.964844 21.425781 L 71.996094 21.425781 Z M 71.996094 21.453125 "/>
<path style=" stroke:none;fill-rule:nonzero;fill:rgb(16.078432%,15.686275%,51.372552%);fill-opacity:1;" d="M 76.671875 13.996094 L 75.09375 23.035156 L 73.1875 23.035156 L 74.40625 16.023438 C 74.46875 15.695312 74.496094 15.398438 74.496094 15.160156 C 74.496094 14.652344 74.347656 14.324219 73.902344 14.175781 L 73.929688 13.996094 Z M 77.148438 11.609375 C 77.085938 12.234375 76.550781 12.742188 75.925781 12.742188 C 75.359375 12.742188 74.941406 12.292969 74.941406 11.726562 C 74.941406 11.699219 74.941406 11.667969 74.941406 11.609375 C 75.003906 11.011719 75.539062 10.503906 76.132812 10.503906 C 76.730469 10.503906 77.175781 10.953125 77.175781 11.519531 C 77.148438 11.519531 77.148438 11.578125 77.148438 11.609375 Z M 77.148438 11.609375 "/>
<path style=" stroke:none;fill-rule:nonzero;fill:rgb(16.078432%,15.686275%,51.372552%);fill-opacity:1;" d="M 86.554688 18.410156 C 86.199219 20.796875 84.324219 23.242188 80.71875 23.242188 C 79.828125 23.242188 78.84375 23.09375 78.097656 22.796875 C 77.773438 22.648438 77.5625 22.410156 77.5625 21.992188 C 77.5625 21.929688 77.5625 21.839844 77.59375 21.722656 L 79.230469 12.414062 C 79.289062 12.117188 79.320312 11.847656 79.320312 11.609375 C 79.320312 11.070312 79.171875 10.742188 78.695312 10.59375 L 78.726562 10.386719 L 81.433594 10.386719 L 80.421875 16.171875 L 79.5 21.484375 C 79.976562 21.691406 80.453125 21.722656 81.015625 21.722656 L 81.046875 21.722656 C 82.921875 21.722656 84.261719 20.410156 84.589844 18.5 L 84.621094 18.378906 C 84.679688 18.082031 84.710938 17.8125 84.710938 17.546875 C 84.710938 16.234375 84.054688 15.308594 82.65625 15.308594 C 82.207031 15.308594 81.792969 15.425781 81.40625 15.636719 C 81.253906 15.488281 81.167969 15.25 81.167969 15.007812 C 81.167969 14.980469 81.167969 14.949219 81.167969 14.890625 C 81.195312 14.59375 81.40625 14.261719 81.730469 14.113281 C 82.207031 13.847656 82.746094 13.757812 83.371094 13.757812 C 85.511719 13.757812 86.675781 15.21875 86.675781 17.394531 C 86.613281 17.695312 86.613281 18.050781 86.554688 18.410156 Z M 86.554688 18.410156 "/>
<path style=" stroke:none;fill-rule:nonzero;fill:rgb(16.078432%,15.686275%,51.372552%);fill-opacity:1;" d="M 93.730469 15.546875 C 93.464844 15.546875 93.253906 15.515625 93.078125 15.515625 C 92.988281 15.515625 92.898438 15.515625 92.777344 15.546875 C 91.707031 15.664062 90.636719 16.621094 90.246094 18.859375 L 89.503906 23.035156 L 87.597656 23.035156 L 88.847656 16.023438 C 88.90625 15.695312 88.9375 15.425781 88.9375 15.160156 C 88.9375 14.652344 88.789062 14.324219 88.3125 14.175781 L 88.34375 13.964844 L 90.992188 13.964844 L 90.695312 15.726562 C 91.617188 14.234375 92.6875 13.757812 93.640625 13.757812 C 94.238281 13.757812 94.683594 13.964844 95.011719 14.234375 C 95.011719 15.367188 94.296875 15.546875 93.730469 15.546875 Z M 93.730469 15.546875 "/>
<path style=" stroke:none;fill-rule:nonzero;fill:rgb(16.078432%,15.686275%,51.372552%);fill-opacity:1;" d="M 103.140625 17.664062 C 103.082031 18.378906 102.664062 18.796875 102.007812 18.796875 L 97.214844 18.796875 C 97.214844 18.707031 97.183594 18.648438 97.183594 18.558594 C 97.183594 17.84375 97.632812 17.484375 98.257812 17.484375 L 101.355469 17.484375 C 101.382812 17.335938 101.382812 17.1875 101.382812 17.066406 C 101.382812 15.90625 100.816406 15.25 99.566406 15.25 C 98.285156 15.25 96.976562 16.203125 96.648438 18.140625 C 96.589844 18.46875 96.558594 18.769531 96.558594 19.066406 C 96.558594 20.765625 97.542969 21.722656 99.300781 21.722656 C 100.101562 21.722656 100.9375 21.574219 101.742188 21.066406 C 101.890625 21.214844 101.980469 21.453125 101.980469 21.664062 C 101.980469 22.019531 101.769531 22.378906 101.414062 22.648438 C 100.789062 23.09375 100.015625 23.273438 98.792969 23.273438 C 96.292969 23.273438 94.59375 21.691406 94.59375 19.277344 C 94.59375 19.035156 94.625 18.796875 94.65625 18.5 C 95.042969 15.605469 97.363281 13.757812 99.863281 13.757812 C 101.859375 13.757812 103.171875 14.949219 103.171875 17.097656 C 103.171875 17.277344 103.171875 17.484375 103.140625 17.664062 Z M 103.140625 17.664062 "/>
<path style=" stroke:none;fill-rule:nonzero;fill:rgb(16.078432%,15.686275%,51.372552%);fill-opacity:1;" d="M 136.636719 7.101562 C 136.070312 6.328125 132.976562 7.609375 130.652344 9.042969 C 128.480469 10.355469 125.949219 11.9375 123.953125 14.382812 C 123.921875 14.414062 123.953125 14.351562 123.953125 14.292969 C 124.074219 13.933594 123.863281 13.695312 123.683594 13.667969 C 123.148438 13.578125 123.058594 14.113281 123.058594 14.113281 L 123.03125 14.113281 C 122.195312 7.789062 115.644531 0.210938 110.792969 0.00390625 C 109.75 -0.0585938 108.855469 0.71875 108.976562 1.824219 C 109.304688 5.222656 110.40625 7.789062 109.988281 11.011719 C 109.660156 13.695312 108.738281 14.351562 111.894531 14.503906 C 111.953125 14.503906 112.011719 14.53125 112.011719 14.53125 C 111.835938 14.5625 111.535156 14.621094 111.269531 14.710938 C 110.671875 14.859375 110.167969 15.425781 109.722656 16.320312 C 108.441406 18.769531 105.96875 22.082031 108.648438 25.300781 C 110.433594 27.449219 113.742188 26.855469 114.992188 25.957031 C 116.898438 24.554688 119.515625 21.574219 120.589844 20.351562 L 120.617188 20.351562 C 120.441406 20.648438 120.796875 20.917969 121.003906 20.648438 C 121.003906 20.648438 121.09375 20.648438 121.066406 20.707031 C 120.527344 21.929688 117.460938 29.597656 121.570312 29.507812 C 122.734375 29.480469 126.394531 23.183594 126.066406 20.558594 C 125.976562 19.902344 125.828125 19.125 125.828125 19.125 C 126.453125 19.78125 127.554688 19.84375 128.09375 18.976562 C 131.695312 12.921875 138.15625 9.160156 136.636719 7.101562 Z M 124.964844 13.875 C 126.1875 12.683594 127.914062 11.101562 129.34375 10.59375 C 129.96875 10.742188 128.65625 11.609375 128.300781 11.875 C 127.257812 12.652344 124.519531 14.472656 124.519531 14.472656 C 124.519531 14.472656 124.519531 14.324219 124.964844 13.875 Z M 116.808594 6.65625 C 116.808594 6.625 116.835938 6.597656 116.925781 6.597656 L 116.925781 6.535156 L 116.925781 6.597656 C 116.957031 6.597656 116.957031 6.597656 116.984375 6.597656 C 117.96875 6.746094 118.832031 7.042969 120.648438 9.757812 C 121.125 10.476562 121.957031 12.59375 122.105469 12.980469 C 122.167969 13.128906 122.195312 13.519531 122.257812 13.816406 C 122.285156 13.964844 122.285156 14.054688 122.285156 14.113281 C 122.226562 14.054688 122.136719 13.933594 121.929688 13.726562 C 121.363281 13.128906 120.441406 12.117188 120.171875 11.789062 C 119.875 11.429688 119.636719 11.191406 119.367188 10.921875 C 118.980469 10.535156 118.683594 10.207031 118.355469 9.699219 C 118.296875 9.609375 118.207031 9.460938 118.085938 9.28125 C 117.671875 8.65625 116.597656 7.015625 116.808594 6.65625 Z M 118.652344 11.488281 C 118.625 11.488281 118.59375 11.519531 118.5625 11.519531 C 117.910156 11.398438 117.285156 11.160156 116.152344 10.980469 C 115.855469 10.921875 115.554688 10.863281 115.230469 10.804688 C 114.214844 10.625 113.054688 10.324219 112.402344 10.296875 C 111.863281 10.234375 111.6875 10.085938 111.65625 9.460938 C 111.625 8.894531 111.714844 8.566406 111.894531 8.355469 C 112.011719 8.207031 112.222656 8.148438 112.488281 8.148438 C 112.519531 8.148438 112.578125 8.148438 112.609375 8.148438 C 114.128906 8.148438 116.152344 9.222656 117.222656 9.847656 C 117.582031 10.027344 117.761719 10.234375 117.96875 10.503906 C 118.027344 10.5625 118.058594 10.625 118.117188 10.683594 C 118.148438 10.714844 118.207031 10.773438 118.265625 10.863281 C 118.355469 10.980469 118.652344 11.339844 118.652344 11.429688 C 118.683594 11.398438 118.683594 11.488281 118.652344 11.488281 Z M 116.539062 7.9375 C 116.660156 8.175781 116.777344 8.445312 116.925781 8.714844 C 115.882812 8.148438 114.066406 7.492188 112.460938 7.3125 C 112.402344 7.3125 112.164062 7.253906 112.191406 6.773438 C 112.222656 6.476562 112.339844 6.179688 112.519531 5.941406 C 112.667969 5.761719 112.9375 5.523438 113.351562 5.523438 C 115.320312 5.640625 115.882812 6.535156 116.539062 7.9375 Z M 112.460938 1.882812 C 113.113281 2.210938 115.109375 3.375 114.574219 3.761719 C 114.246094 4.03125 111.894531 5.105469 111.773438 4.476562 C 111.65625 3.941406 111.597656 3.523438 111.359375 2.660156 C 111.148438 1.882812 112.074219 1.671875 112.460938 1.882812 Z M 109.808594 19.78125 C 110.167969 18.917969 110.644531 17.8125 111.894531 17.753906 C 112.101562 17.753906 112.371094 17.722656 112.726562 17.722656 L 112.726562 17.664062 L 112.726562 17.722656 C 114.128906 17.722656 116.332031 17.84375 116.867188 17.875 C 116.332031 18.292969 114.960938 19.035156 114.425781 19.1875 C 113.980469 19.277344 113.382812 19.367188 112.789062 19.453125 C 111.714844 19.632812 110.496094 19.8125 109.660156 20.082031 C 109.722656 20.023438 109.78125 19.902344 109.808594 19.78125 Z M 108.917969 22.707031 C 108.976562 22.46875 109.09375 21.78125 109.304688 21.363281 C 109.632812 20.707031 111.121094 20.5 112.429688 20.289062 C 112.90625 20.230469 113.382812 20.140625 113.742188 20.082031 C 113.679688 20.171875 113.5625 20.320312 113.441406 20.4375 C 113.085938 20.886719 112.964844 21.035156 112.9375 21.09375 C 112.636719 21.183594 111.296875 21.722656 108.976562 22.675781 C 108.976562 22.675781 108.945312 22.707031 108.917969 22.707031 Z M 111.535156 25.09375 C 111.535156 25.09375 111.507812 25.09375 111.535156 25.09375 C 110.347656 25.003906 109.691406 24.378906 109.421875 23.988281 C 109.183594 23.691406 109.125 23.421875 109.125 23.363281 C 109.332031 23.183594 112.667969 21.929688 112.996094 21.839844 C 113.234375 21.78125 113.503906 21.753906 113.742188 21.753906 C 113.828125 21.753906 113.949219 21.753906 114.039062 21.753906 C 114.15625 21.753906 114.277344 21.753906 114.367188 21.753906 C 114.605469 21.753906 114.902344 21.753906 115.167969 21.691406 C 114.84375 21.960938 114.574219 22.257812 114.246094 22.617188 C 113.980469 22.914062 113.679688 23.242188 113.265625 23.632812 C 113.027344 23.839844 112.816406 24.078125 112.667969 24.289062 C 112.28125 24.765625 111.984375 25.09375 111.535156 25.09375 Z M 119.367188 19.664062 C 119.339844 19.722656 119.339844 19.78125 119.308594 19.8125 C 118.472656 20.765625 117.371094 21.992188 116.242188 23.09375 C 115.230469 24.109375 113.917969 25.332031 113.351562 25.363281 C 113.324219 25.363281 113.324219 25.363281 113.292969 25.363281 C 113.234375 25.363281 113.175781 25.332031 113.144531 25.273438 C 113.085938 25.125 113.144531 24.882812 113.203125 24.796875 C 115.109375 22.675781 117.9375 20.109375 119.425781 19.453125 C 119.398438 19.542969 119.367188 19.605469 119.367188 19.664062 Z M 118.980469 18.949219 C 118.535156 19.1875 118.085938 19.425781 117.699219 19.695312 C 117.433594 19.871094 117.015625 20.199219 116.507812 20.648438 C 116.480469 20.679688 116.480469 20.679688 116.480469 20.679688 C 116.121094 20.945312 115.082031 21.09375 114.304688 21.09375 C 114.066406 21.09375 113.917969 21.09375 113.828125 21.066406 C 114.039062 20.796875 114.84375 19.902344 115.050781 19.78125 C 115.082031 19.78125 117.640625 18.292969 117.789062 18.203125 C 118 18.082031 118.921875 17.902344 119.695312 17.753906 C 120.171875 17.664062 120.617188 17.574219 120.945312 17.515625 C 120.617188 18.082031 119.816406 18.5 118.980469 18.949219 Z M 121.003906 16.648438 C 120.203125 17.007812 118.800781 17.1875 116.71875 17.1875 C 115.527344 17.1875 114.304688 17.128906 113.292969 17.066406 C 112.636719 17.039062 112.074219 17.007812 111.65625 17.007812 C 112.28125 15.933594 113.113281 15.425781 114.304688 15.425781 C 114.335938 15.425781 114.394531 15.425781 114.425781 15.425781 C 114.484375 15.425781 114.574219 15.425781 114.632812 15.425781 C 115.585938 15.425781 120.378906 16.320312 120.679688 16.382812 C 121.003906 16.472656 121.035156 16.53125 121.003906 16.648438 Z M 121.242188 21.8125 C 121.242188 21.78125 121.273438 21.753906 121.304688 21.78125 C 120.917969 23.511719 120.796875 26.167969 120.140625 27.300781 C 119.785156 25.511719 120.617188 23.570312 121.242188 21.8125 Z M 121.15625 27.925781 C 121.035156 28.167969 120.976562 28.167969 120.855469 28.226562 C 120.796875 28.253906 120.796875 28.226562 120.765625 28.105469 C 120.558594 27.480469 121.066406 24.40625 121.570312 23.125 C 121.570312 23.09375 121.601562 23.09375 121.601562 23.125 C 121.601562 24.4375 121.480469 26.824219 121.15625 27.925781 Z M 121.273438 15.21875 C 121.242188 15.21875 121.242188 15.21875 121.273438 15.21875 C 121.15625 15.21875 121.035156 15.1875 120.886719 15.1875 C 120.589844 15.160156 118.238281 14.652344 116.152344 14.203125 C 114.664062 13.875 113.351562 13.605469 113.027344 13.546875 C 112.578125 13.457031 112.132812 13.398438 111.835938 13.339844 C 111.359375 13.25 111.296875 12.832031 111.359375 12.027344 C 111.359375 11.90625 111.359375 11.816406 111.359375 11.699219 C 111.359375 11.132812 111.65625 10.890625 112.222656 10.890625 C 112.3125 10.890625 112.429688 10.890625 112.550781 10.921875 C 113.027344 10.980469 118.265625 11.996094 118.863281 12.175781 C 119.515625 12.382812 120.378906 13.011719 120.976562 13.695312 C 121.214844 13.996094 121.390625 14.175781 121.542969 14.324219 C 121.75 14.5625 121.839844 14.652344 121.929688 14.800781 C 121.957031 14.832031 121.957031 14.859375 121.957031 14.890625 C 121.898438 14.949219 121.660156 15.128906 121.628906 15.160156 C 121.570312 15.1875 121.421875 15.21875 121.273438 15.21875 Z M 121.867188 27.808594 C 121.660156 27.628906 121.808594 25.628906 121.867188 24.707031 C 121.988281 22.855469 122.046875 21.425781 122.554688 19.695312 C 122.496094 21.007812 122.582031 22.4375 122.671875 23.78125 C 122.882812 25.570312 122.761719 26.585938 121.867188 27.808594 Z M 123.269531 25.09375 C 123.238281 24.914062 122.644531 20.855469 122.96875 18.5 C 123.179688 19.097656 124.308594 21.542969 124.339844 22.4375 C 124.371094 23.09375 123.835938 24.855469 123.269531 25.09375 Z M 124.785156 21.722656 C 124.429688 20.976562 122.941406 17.933594 123.386719 17.066406 C 123.386719 17.066406 123.417969 17.039062 123.445312 17.039062 C 123.507812 17.039062 123.507812 17.066406 123.507812 17.066406 C 124.042969 17.484375 124.90625 18.648438 125.054688 19.484375 C 125.175781 20.140625 125.144531 21.273438 124.785156 21.722656 Z M 127.226562 17.875 C 126.363281 17.785156 126.007812 17.21875 125.324219 16.769531 C 123.953125 15.90625 123.65625 15.753906 123.921875 15.488281 C 124.132812 15.277344 125.234375 14.679688 125.5625 14.710938 C 126.214844 14.800781 128.210938 16.082031 128.332031 16.53125 C 128.449219 17.066406 127.972656 17.902344 127.226562 17.875 Z M 129.371094 15.546875 C 129.074219 15.875 128.867188 15.992188 128.539062 15.785156 C 127.972656 15.367188 126.902344 14.859375 126.007812 14.414062 C 125.679688 14.261719 126.992188 13.429688 127.4375 13.398438 C 127.617188 13.398438 129.492188 13.847656 129.730469 13.90625 C 130.535156 14.054688 129.640625 15.21875 129.371094 15.546875 Z M 130.742188 13.339844 C 130.058594 13.488281 128.746094 13.25 127.792969 12.949219 C 128.449219 12.414062 129.847656 11.25 130.921875 11.28125 C 132.648438 11.21875 131.875 12.921875 130.742188 13.339844 Z M 133.152344 10.476562 C 132.796875 10.625 131.457031 10.027344 131.875 9.519531 C 132.289062 9.011719 134.40625 8.328125 135.207031 8.386719 C 136.308594 8.445312 133.988281 10.148438 133.152344 10.476562 Z M 133.152344 10.476562 "/>
<path style=" stroke:none;fill-rule:nonzero;fill:rgb(16.078432%,15.686275%,51.372552%);fill-opacity:1;" d="M 6.042969 11.546875 C 5.417969 11.546875 1.667969 11.546875 1.667969 11.546875 L 1.667969 15.457031 L 6.164062 15.457031 C 6.164062 15.457031 6.222656 16.679688 5.328125 16.679688 C 4.703125 16.679688 1.667969 16.679688 1.667969 16.679688 L 1.667969 22.796875 C 1.667969 22.796875 1.398438 23.003906 0.953125 23.003906 C 0.476562 23.003906 0.238281 22.796875 0.238281 22.796875 L 0.238281 10.324219 L 6.878906 10.324219 C 6.878906 10.324219 6.878906 11.546875 6.042969 11.546875 Z M 6.042969 11.546875 "/>
<path style=" stroke:none;fill-rule:evenodd;fill:rgb(16.078432%,15.686275%,51.372552%);fill-opacity:1;" d="M 8.753906 14.085938 C 8.632812 13.339844 7.710938 13.519531 7.175781 13.785156 C 7.324219 13.964844 7.265625 16.234375 7.292969 18.351562 C 7.292969 20.589844 7.292969 22.824219 7.292969 22.824219 C 7.292969 22.824219 7.53125 23.035156 8.007812 23.035156 C 8.484375 23.035156 8.722656 22.824219 8.722656 22.824219 L 8.722656 15.25 C 9.378906 14.234375 11.046875 14.679688 11.074219 14.679688 C 11.222656 14.679688 11.3125 14.621094 11.460938 14.414062 C 11.671875 14.113281 11.96875 13.605469 11.96875 13.605469 C 10.480469 13.339844 9.289062 13.695312 8.753906 14.085938 Z M 8.753906 14.085938 "/>
<path style=" stroke:none;fill-rule:nonzero;fill:rgb(16.078432%,15.686275%,51.372552%);fill-opacity:1;" d="M 52.195312 22.738281 C 52.195312 22.738281 52.195312 22.707031 52.164062 22.707031 C 52.136719 22.617188 52.074219 22.527344 52.074219 22.496094 C 52.015625 22.347656 51.925781 22.082031 51.925781 22.019531 C 51.835938 21.632812 51.777344 20.917969 51.75 20.082031 C 51.75 20.050781 51.75 19.992188 51.75 19.960938 C 51.75 17.753906 51.75 10.085938 51.75 10.058594 L 51.71875 10.058594 C 51.660156 10.058594 51.300781 10.027344 50.914062 10.148438 C 50.46875 10.265625 50.289062 10.5625 50.289062 10.5625 L 50.289062 20.828125 C 50.320312 21.273438 50.347656 21.691406 50.46875 21.960938 C 50.617188 22.410156 50.914062 22.675781 51.300781 22.886719 C 51.363281 22.914062 51.390625 22.914062 51.449219 22.945312 C 51.480469 22.945312 51.570312 22.976562 51.628906 22.976562 C 51.71875 22.976562 52.015625 23.003906 52.105469 22.945312 C 52.164062 22.914062 52.195312 22.886719 52.195312 22.824219 C 52.253906 22.855469 52.226562 22.796875 52.195312 22.738281 Z M 52.195312 22.738281 "/>
<path style=" stroke:none;fill-rule:evenodd;fill:rgb(16.078432%,15.686275%,51.372552%);fill-opacity:1;" d="M 24.148438 13.546875 C 23.789062 13.578125 23.3125 13.667969 23.015625 13.785156 C 19.414062 15.070312 19.652344 21.929688 24 22.976562 C 25.128906 23.242188 27.035156 23.035156 27.542969 22.410156 C 27.71875 22.140625 27.480469 22.050781 27.453125 22.050781 C 27.242188 22.019531 26.917969 22.050781 26.558594 22.109375 C 25.964844 22.199219 24.800781 22.199219 23.761719 21.722656 C 22.539062 21.183594 21.972656 19.632812 22.09375 18.230469 L 28.730469 18.230469 C 29 15.308594 27.304688 13.191406 24.148438 13.546875 Z M 22.121094 17.097656 C 22.242188 16.082031 22.835938 15.039062 23.730469 14.742188 C 25.605469 14.054688 27.242188 15.425781 27.183594 17.097656 Z M 22.121094 17.097656 "/>
<path style=" stroke:none;fill-rule:evenodd;fill:rgb(16.078432%,15.686275%,51.372552%);fill-opacity:1;" d="M 56.78125 13.546875 C 56.421875 13.578125 55.945312 13.667969 55.648438 13.785156 C 52.046875 15.070312 52.285156 21.929688 56.632812 22.976562 C 57.761719 23.242188 59.667969 23.035156 60.175781 22.410156 C 60.355469 22.140625 60.117188 22.050781 60.085938 22.050781 C 59.878906 22.019531 59.550781 22.050781 59.191406 22.109375 C 58.597656 22.199219 57.4375 22.199219 56.394531 21.722656 C 55.171875 21.183594 54.605469 19.632812 54.726562 18.230469 L 61.367188 18.230469 C 61.632812 15.308594 59.9375 13.191406 56.78125 13.546875 Z M 54.753906 17.097656 C 54.875 16.082031 55.441406 15.039062 56.363281 14.742188 C 58.238281 14.054688 59.878906 15.425781 59.816406 17.097656 Z M 54.753906 17.097656 "/>
<path style=" stroke:none;fill-rule:evenodd;fill:rgb(16.078432%,15.686275%,51.372552%);fill-opacity:1;" d="M 15.09375 13.546875 C 14.738281 13.578125 14.261719 13.667969 13.964844 13.785156 C 10.359375 15.070312 10.597656 21.929688 14.945312 22.976562 C 16.078125 23.242188 17.984375 23.035156 18.488281 22.410156 C 18.667969 22.140625 18.429688 22.050781 18.398438 22.050781 C 18.191406 22.019531 17.863281 22.050781 17.507812 22.109375 C 16.910156 22.199219 15.75 22.199219 14.707031 21.722656 C 13.488281 21.183594 12.921875 19.632812 13.039062 18.230469 L 19.679688 18.230469 C 19.949219 15.308594 18.25 13.191406 15.09375 13.546875 Z M 13.070312 17.097656 C 13.191406 16.082031 13.753906 15.039062 14.679688 14.742188 C 16.554688 14.054688 18.191406 15.425781 18.132812 17.097656 Z M 13.070312 17.097656 "/>
<path style=" stroke:none;fill-rule:nonzero;fill:rgb(16.078432%,15.686275%,51.372552%);fill-opacity:1;" d="M 49.394531 13.605469 C 49.394531 13.605469 49.070312 13.519531 48.621094 13.519531 C 48.175781 13.519531 47.878906 13.605469 47.878906 13.605469 L 45.347656 20.976562 C 45.347656 20.976562 42.847656 13.636719 42.847656 13.636719 L 42.816406 13.519531 L 39.390625 13.519531 L 39.390625 11.757812 C 39.390625 11.757812 39.003906 11.699219 38.558594 11.847656 C 38.113281 11.964844 37.933594 12.265625 37.933594 12.265625 L 37.933594 13.519531 L 36.265625 13.519531 C 36.265625 13.519531 36.144531 13.785156 36.058594 14.085938 C 35.96875 14.382812 35.96875 14.652344 35.96875 14.652344 L 37.933594 14.652344 L 37.933594 20.351562 C 37.933594 21.035156 37.992188 21.691406 38.140625 22.082031 C 38.289062 22.527344 38.585938 22.796875 38.976562 23.003906 C 39.035156 23.035156 39.0625 23.035156 39.125 23.066406 C 39.152344 23.066406 39.242188 23.09375 39.300781 23.09375 C 39.390625 23.09375 39.691406 23.125 39.777344 23.066406 C 39.839844 23.035156 39.867188 23.003906 39.867188 22.945312 C 39.867188 22.914062 39.867188 22.855469 39.839844 22.796875 C 39.839844 22.796875 39.839844 22.765625 39.808594 22.765625 C 39.777344 22.675781 39.71875 22.585938 39.71875 22.558594 C 39.660156 22.410156 39.570312 22.140625 39.570312 22.082031 C 39.480469 21.722656 39.421875 20.976562 39.390625 20.140625 L 39.390625 14.652344 L 41.683594 14.652344 L 44.363281 21.992188 C 44.394531 22.019531 44.394531 22.082031 44.421875 22.140625 C 44.511719 22.378906 44.632812 22.914062 44.453125 23.363281 C 44.273438 23.871094 44.066406 24.40625 43.796875 24.882812 C 43.441406 25.660156 43.023438 25.988281 42.996094 26.019531 C 42.996094 26.019531 42.964844 26.046875 42.964844 26.046875 C 42.933594 26.078125 42.90625 26.136719 42.90625 26.167969 C 42.90625 26.199219 42.90625 26.257812 42.933594 26.285156 C 42.964844 26.316406 42.996094 26.347656 43.054688 26.375 C 43.113281 26.40625 43.261719 26.4375 43.5 26.4375 C 43.558594 26.4375 44.007812 26.347656 44.394531 25.957031 C 44.394531 25.957031 44.394531 25.957031 44.421875 25.957031 C 44.421875 25.957031 44.453125 25.929688 44.453125 25.929688 C 45.289062 24.972656 45.675781 23.691406 46.089844 22.558594 Z M 49.394531 13.605469 "/>
<path style=" stroke:none;fill-rule:evenodd;fill:rgb(16.078432%,15.686275%,51.372552%);fill-opacity:1;" d="M 36.027344 20.707031 C 36.027344 20.679688 36.058594 20.617188 36.058594 20.589844 C 36.058594 20.589844 36.058594 20.558594 36.058594 20.558594 C 36.144531 20.199219 36.207031 19.78125 36.207031 19.367188 C 36.207031 18.859375 36.117188 18.441406 35.9375 18.023438 C 35.757812 17.636719 35.492188 17.277344 35.195312 16.980469 C 34.894531 16.679688 34.566406 16.472656 34.269531 16.292969 C 33.972656 16.113281 33.347656 15.816406 32.425781 15.398438 C 31.175781 14.832031 30.546875 14.144531 30.546875 13.398438 C 30.546875 12.863281 30.726562 12.414062 31.085938 12.085938 C 31.085938 12.085938 31.859375 11.191406 33.882812 11.398438 C 34.09375 11.429688 34.300781 11.429688 34.449219 11.488281 C 34.480469 11.488281 34.480469 11.488281 34.507812 11.519531 C 34.6875 11.546875 34.835938 11.578125 34.957031 11.636719 C 35.074219 11.667969 35.164062 11.667969 35.222656 11.667969 C 35.34375 11.636719 35.402344 11.546875 35.433594 11.460938 C 35.433594 11.429688 35.433594 11.429688 35.433594 11.398438 C 35.433594 11.398438 35.433594 11.371094 35.433594 11.371094 C 35.433594 11.339844 35.433594 11.339844 35.433594 11.339844 C 35.433594 11.308594 35.402344 11.28125 35.402344 11.25 C 35.34375 11.160156 35.253906 11.011719 35.074219 10.863281 C 34.390625 10.324219 33.050781 10.148438 32.125 10.265625 C 32.007812 10.296875 31.917969 10.296875 31.800781 10.324219 C 31.234375 10.476562 30.726562 10.714844 30.28125 11.042969 C 29.535156 11.636719 29.148438 12.445312 29.148438 13.488281 C 29.148438 13.875 29.207031 14.234375 29.359375 14.59375 C 29.507812 14.921875 29.714844 15.21875 29.953125 15.488281 C 30.222656 15.753906 30.488281 15.964844 30.757812 16.113281 C 31.023438 16.261719 31.589844 16.5625 32.515625 16.980469 C 33.40625 17.394531 34.003906 17.785156 34.328125 18.171875 C 34.65625 18.558594 34.804688 19.035156 34.804688 19.605469 C 34.804688 20.320312 34.566406 20.886719 34.121094 21.304688 C 34.121094 21.304688 34.09375 21.335938 34.0625 21.363281 C 33.765625 21.601562 32.722656 22.347656 30.726562 22.257812 C 30.578125 22.257812 30.429688 22.230469 30.308594 22.230469 C 30.222656 22.230469 30.160156 22.199219 30.070312 22.199219 C 30.042969 22.199219 30.042969 22.199219 30.042969 22.199219 C 30.042969 22.199219 30.042969 22.199219 30.011719 22.199219 C 29.953125 22.199219 29.921875 22.199219 29.863281 22.167969 C 29.714844 22.140625 29.535156 22.140625 29.445312 22.167969 C 29.328125 22.199219 29.269531 22.289062 29.238281 22.378906 C 29.238281 22.410156 29.238281 22.4375 29.238281 22.4375 C 29.238281 22.4375 29.238281 22.46875 29.238281 22.46875 C 29.238281 22.496094 29.238281 22.496094 29.269531 22.496094 C 29.269531 22.496094 29.269531 22.496094 29.269531 22.527344 C 29.359375 22.648438 29.804688 23.214844 31.261719 23.332031 C 31.621094 23.363281 31.976562 23.363281 32.335938 23.304688 C 32.335938 23.304688 34.925781 23.242188 35.878906 21.035156 C 35.90625 21.007812 35.90625 20.945312 35.9375 20.917969 C 35.96875 20.828125 35.996094 20.765625 36.027344 20.707031 Z M 36.027344 20.707031 "/>
</g>
</svg>
