<svg width="2215" height="697" viewBox="0 0 2215 697" fill="none" xmlns="http://www.w3.org/2000/svg">
<path d="M141.632 61.8476H425.009V0H141.632V61.8476ZM1436.49 393.164H1238.28V187.616H1436.48C1507.1 187.616 1554.56 228.923 1554.56 290.393C1554.56 351.864 1507.1 393.164 1436.48 393.164M1502.14 441.241C1570.13 421.626 1614.06 362.414 1614.06 290.393C1614.06 196.91 1542.7 134.099 1436.48 134.099H1178.8V686.59H1238.28V447.516H1439.87L1568.24 686.585H1632.6L1498.78 442.207L1502.14 441.241ZM869.905 697C1015.79 697 1117.68 593.342 1117.68 444.917V134.101H1056.54V440.749C1056.54 555.212 979.792 635.157 869.905 635.157C778.827 635.157 680.799 574.321 680.799 440.749V134.101H619.67V444.919C619.67 593.342 722.569 696.998 869.91 696.998M1937.44 206.178L2066.38 491.463H1807.67L1937.44 206.178ZM1908.76 134.105L1659.05 686.592H1722.91L1784.66 544.973H2089.37L2151.15 686.592H2215L1965.3 134.099L1908.76 134.105ZM283.378 123.693C127.123 123.693 0 252.284 0 410.342C0 568.407 127.123 696.998 283.378 696.998C439.638 696.998 566.762 568.407 566.762 410.342C566.762 252.284 439.638 123.693 283.378 123.693M283.378 635.152C160.833 635.152 61.1328 534.301 61.1328 410.342C61.1328 286.385 160.835 185.538 283.38 185.538C405.927 185.538 505.631 286.385 505.631 410.342C505.631 534.301 405.927 635.152 283.38 635.152" fill="black"/>
</svg>
