<svg width="15" height="14" viewBox="0 0 15 14" fill="none" xmlns="http://www.w3.org/2000/svg">
<path d="M1 4.23556L1 10.5556C1 11.6601 1.89543 12.5556 3 12.5556H4.2697M1 4.23556V3C1 1.89543 1.89543 1 3 1L4.2697 1M1 4.23556H7.5M14 4.23556V3C14 1.89543 13.1046 1 12 1L4.2697 1M14 4.23556V7.00889M14 4.23556H10.75M4.2697 1V7.00889M4.2697 12.5556V9.78222M4.2697 12.5556H7.5M4.2697 7.00889H14M4.2697 7.00889V9.78222M14 7.00889V9.78222M4.2697 9.78222H14M14 9.78222V10.5556C14 11.6601 13.1046 12.5556 12 12.5556H7.5M7.5 4.23556V12.5556M7.5 4.23556H10.75M10.75 4.23556V13" stroke="#4F6A92"/>
</svg>
