<svg width="47" height="32" viewBox="0 0 47 32" fill="none" xmlns="http://www.w3.org/2000/svg">
<path d="M9.16872 19.8101C8.88803 21.1128 8.18364 21.7318 7.07145 21.7318C5.58853 21.7318 4.34923 20.7198 4.34923 18.6636V15.2886H4.34393H2.78687V13.9429H4.32804H4.34923V11.2676H5.77389V13.9536H8.28427V15.2886H5.77389V18.6636C5.77389 19.8586 6.28762 20.3807 7.06615 20.3807C7.53221 20.3807 7.69639 20.1977 7.92413 19.794L9.16872 19.8101Z" fill="#002B3C"/>
<path d="M43.9011 19.8101C43.6204 21.1128 42.9161 21.7318 41.8039 21.7318C40.3209 21.7318 39.0817 20.7198 39.0817 18.6636V15.2886H39.0764H37.5193V13.9429H39.0658H39.0869V11.2676H40.5116V13.9536H43.022V15.2886H40.5116V18.6636C40.5116 19.8586 41.0253 20.3807 41.8039 20.3807C42.2699 20.3807 42.4341 20.1977 42.6618 19.794L43.9011 19.8101Z" fill="#002B3C"/>
<path d="M9.73535 18.4874V13.7451H11.2871V18.4874C11.2871 20.0107 12.0868 20.6944 13.2149 20.6944C14.3059 20.6944 15.1427 19.9784 15.1427 18.4874V13.7451H16.6945V18.4874C16.6945 19.9784 17.5101 20.6944 18.6064 20.6944C19.7345 20.6944 20.5342 20.0161 20.5342 18.4874V13.7451H22.086V18.4874C22.086 20.9904 20.6507 22.1531 18.7547 22.1531C17.4995 22.1531 16.4721 21.5879 15.916 20.5275C15.3493 21.5933 14.3059 22.1531 13.0666 22.1531C11.1706 22.1531 9.73535 20.9958 9.73535 18.4874Z" fill="#002B3C"/>
<path d="M23.6541 11.3388C23.6541 10.709 24.1095 10.2461 24.7292 10.2461C25.3488 10.2461 25.8043 10.709 25.8043 11.3388C25.8043 11.9686 25.3488 12.4477 24.7292 12.4477C24.1148 12.4531 23.6541 11.9686 23.6541 11.3388Z" fill="#002B3C"/>
<path d="M25.5181 13.7451H23.9663V21.9378H25.5181V13.7451Z" fill="#002B3C"/>
<path d="M27.3452 11.3388C27.3452 10.709 27.8007 10.2461 28.4203 10.2461C29.04 10.2461 29.4955 10.709 29.4955 11.3388C29.4955 11.9686 29.04 12.4477 28.4203 12.4477C27.8007 12.4531 27.3452 11.9686 27.3452 11.3388Z" fill="#002B3C"/>
<path d="M29.2044 13.7451H27.6526V21.9378H29.2044V13.7451Z" fill="#002B3C"/>
<path d="M30.4382 19.5683H32.0059C32.0377 20.2466 32.6573 20.731 33.7854 20.731C34.9611 20.731 35.5649 20.2143 35.5649 19.5683C35.5649 18.7878 34.7175 18.6909 33.706 18.5564C32.3025 18.3734 30.6077 18.1096 30.6077 16.2364C30.6077 14.6269 31.847 13.5342 33.7748 13.5342C35.7026 13.5342 36.8942 14.643 36.926 16.0534H35.3901C35.3425 15.4236 34.7705 14.9606 33.7907 14.9606C32.7632 14.9606 32.1754 15.4559 32.1754 16.1072C32.1754 16.8877 33.0228 16.9684 34.0184 17.103C35.4219 17.286 37.1379 17.5498 37.1379 19.423C37.1379 21.0809 35.8138 22.1575 33.7907 22.1575C31.7623 22.1521 30.4859 21.0594 30.4382 19.5683Z" fill="#002B3C"/>
<path d="M25.9312 9.69605C24.0564 7.72055 21.1117 6.4502 18.3895 6.4502C15.0635 6.4502 12.8339 8.03275 10.9272 10.4981L12.246 9.40537C14.1155 8.02737 16.1387 7.24147 18.8662 7.56983C21.0958 7.83897 22.5364 8.40955 23.8445 9.69605H25.9312Z" fill="#ED3E95"/>
<path d="M25.9312 23.3479C24.0564 25.3234 21.1117 26.5938 18.3895 26.5938C15.0635 26.5938 12.8339 25.0112 10.9272 22.5459L12.246 23.6386C14.1155 25.0166 16.1387 25.8025 18.8662 25.4742C21.0958 25.205 22.5364 24.6344 23.8445 23.3479H25.9312Z" fill="#ED3E95"/>
<path d="M29.146 9.82603C28.2191 8.17888 26.2013 6.1657 24.0934 5.44978C21.5142 4.57776 19.3216 5.05145 17.1184 6.20338L18.4636 5.8212C20.3173 5.38519 22.118 5.39057 24.1358 6.32719C25.7882 7.09155 27.1228 8.62028 27.7584 9.82603H29.146Z" fill="#00ABBE"/>
<path d="M29.146 23.1738C28.2191 24.821 26.2013 26.8342 24.0934 27.5501C21.5142 28.4221 19.3216 27.9484 17.1184 26.7965L18.4636 27.1787C20.3173 27.6147 22.118 27.6093 24.1358 26.6727C25.7882 25.9083 27.1228 24.3796 27.7584 23.1738H29.146Z" fill="#00ABBE"/>
<path d="M42.8948 11.2622V11.3968H42.6459V12.0643H42.4923V11.3968H42.2434V11.2622H42.8948ZM43.7422 12.0643L43.7157 11.596C43.7104 11.5367 43.7104 11.456 43.7104 11.3699H43.6998C43.6787 11.4399 43.6522 11.5367 43.631 11.6067L43.488 12.0481H43.3238L43.1808 11.5906C43.1649 11.5314 43.1438 11.4345 43.1279 11.3645H43.1173C43.1173 11.4399 43.112 11.5152 43.112 11.5906L43.0855 12.0589H42.9372L42.9955 11.2568H43.2285L43.3662 11.6498C43.3874 11.709 43.398 11.7682 43.4192 11.8543H43.4244C43.4456 11.7844 43.4615 11.7144 43.4774 11.6552L43.6151 11.2568H43.8428L43.9011 12.0589H43.7422V12.0643Z" fill="#002B3C"/>
</svg>
