<svg xmlns="http://www.w3.org/2000/svg" width="200" height="200" fill="none"><g clip-path="url(#a)"><path fill="#CBDBFB" d="M21 34a9 9 0 0 1 9-9h122a9 9 0 0 1 9 9v130.5a9 9 0 0 1-9 9H30a9 9 0 0 1-9-9V34Z"/><rect width="115" height="108" x="34" y="54" fill="#fff" rx="5"/><path fill="#7C91F6" d="M146 54H37a3 3 0 0 0-3 3v5h115v-5a3 3 0 0 0-3-3Z"/><path fill="#FCCE9F" fill-opacity=".5" d="M87 70H45a3 3 0 0 0-3 3v2a3 3 0 0 0 3 3h42a3 3 0 0 0 3-3v-2a3 3 0 0 0-3-3ZM116 82H45a3 3 0 0 0-3 3v2a3 3 0 0 0 3 3h71a3 3 0 0 0 3-3v-2a3 3 0 0 0-3-3Z"/><rect width="115" height="9" fill="#fff" rx="2" transform="matrix(1 0 0 -1 34 47)"/><path fill="#7C91F6" d="m45 101 90.421-2.933a3 3 0 0 1 2.871 1.857l2.557 6.21c.1.242.151.5.151.762V127a2 2 0 0 1-2 2H46c-.63 0-1.222-.296-1.6-.8l-1.915-2.554a1.998 1.998 0 0 1-.385-1.448L45 101Z"/><rect width="96" height="28" x="42" y="98" fill="#271B46" rx="2"/><path fill="#fff" d="m119.858 114.82 1.716.528a.725.725 0 0 0-.06.288c0 .336.444.588 1.104.588.78 0 1.296-.432 1.296-1.236v-.828c-.348.492-.852.744-1.536.744-.804 0-1.488-.276-2.052-.828-.564-.552-.852-1.284-.852-2.184 0-.912.276-1.644.816-2.184.552-.552 1.236-.828 2.04-.828.684 0 1.212.228 1.584.684v-.516h1.8v5.436c0 2.028-1.092 3.132-3.072 3.132-1.92 0-2.952-.804-2.952-2.052 0-.288.06-.54.168-.744Zm3.72-3.96c-.252-.252-.576-.372-.948-.372s-.696.132-.96.384-.396.588-.396 1.032c0 .432.132.768.396 1.02s.588.372.96.372.696-.12.948-.36c.252-.252.384-.588.384-1.032 0-.444-.132-.792-.384-1.044ZM118.528 110.944V115h-1.8v-3.24c0-.708-.348-1.176-1.056-1.176-.72 0-1.2.6-1.2 1.548V115h-1.8v-5.952h1.8v.852c.492-.684 1.128-1.02 1.932-1.02 1.332 0 2.124.828 2.124 2.064ZM111.331 115h-1.8v-5.952h1.8V115Zm.072-6.648h-1.944v-1.92h1.944v1.92ZM108.723 108.964l-.3 1.692a1.683 1.683 0 0 0-.492-.072c-.876 0-1.428.672-1.428 1.716v2.7h-1.8v-5.952h1.8v.756c.372-.612.924-.924 1.656-.924.192 0 .384.024.564.084ZM103.785 115h-1.824c-.168-.168-.264-.42-.288-.768-.444.624-1.044.936-1.824.936-1.308 0-2.1-.78-2.1-1.896 0-1.14.924-1.752 2.328-1.98l1.512-.24v-.108c0-.576-.312-.864-.924-.864-.54 0-.912.204-.912.54 0 .036 0 .072.012.108l-1.632.552a2.58 2.58 0 0 1-.096-.576c0-.54.252-.984.744-1.32.504-.336 1.128-.504 1.884-.504 1.812 0 2.724.756 2.724 2.256v2.388c0 .6.132 1.092.396 1.476Zm-3.564-1.224c.408 0 .732-.144.984-.432.252-.3.384-.636.384-1.02v-.108l-1.272.216c-.54.084-.816.324-.816.72 0 .336.288.624.72.624ZM96.758 110.944V115h-1.8v-3.18c0-.756-.396-1.236-1.116-1.236-.732 0-1.284.624-1.284 1.548V115h-1.8v-8.4h1.8v3.276c.516-.66 1.2-.996 2.04-.996 1.308 0 2.16.804 2.16 2.064ZM86.842 109.912c1.86.396 2.688 1.164 2.688 2.556 0 .768-.276 1.416-.84 1.932s-1.332.768-2.316.768c-1.968 0-3.192-.912-3.684-2.724l1.644-.792c.3 1.2.9 1.812 2.04 1.812.756 0 1.248-.372 1.248-.864 0-.624-.588-.996-1.884-1.236-1.764-.348-2.64-1.188-2.64-2.52 0-.732.276-1.308.828-1.752.552-.444 1.284-.66 2.196-.66 1.644 0 2.676.708 3.264 2.196l-1.452.864c-.336-.984-.948-1.476-1.848-1.476-.72 0-1.236.324-1.236.804 0 .468.54.792 1.992 1.092ZM73.843 117.448h-1.8v-8.4h1.8v.684c.468-.564 1.128-.852 1.968-.852.732 0 1.368.276 1.908.84.552.552.828 1.32.828 2.304 0 .972-.276 1.74-.84 2.304-.564.564-1.2.84-1.932.84-.804 0-1.44-.264-1.932-.792v3.072Zm2.448-6.504c-.288-.276-.636-.408-1.056-.408-.408 0-.756.132-1.056.408-.288.276-.432.636-.432 1.08 0 .444.144.804.432 1.08.3.276.648.408 1.056.408.42 0 .768-.132 1.056-.408.288-.276.432-.636.432-1.08 0-.444-.144-.804-.432-1.08ZM70.035 109.72c.648.54.972 1.308.972 2.304 0 .996-.324 1.764-.972 2.316-.648.552-1.428.828-2.34.828-.9 0-1.68-.276-2.328-.828-.636-.552-.96-1.32-.96-2.316 0-.996.324-1.764.96-2.316.648-.552 1.428-.828 2.328-.828.912 0 1.692.276 2.34.84Zm-3.372 3.36c.288.252.636.384 1.032.384.408 0 .756-.132 1.044-.384.3-.264.444-.612.444-1.056 0-.444-.144-.792-.444-1.044a1.49 1.49 0 0 0-1.044-.396c-.396 0-.744.132-1.032.396-.288.252-.432.6-.432 1.044 0 .444.144.792.432 1.056ZM60.71 110.44h-.864v-1.392h.864v-1.608h1.8v1.608h1.236v1.392H62.51v2.352c0 .48.24.768.66.768.204 0 .396-.036.564-.096l.168 1.5c-.36.132-.756.204-1.2.204-.564 0-1.032-.156-1.416-.48-.384-.324-.576-.828-.576-1.536v-2.712ZM56.62 109.912c1.86.396 2.688 1.164 2.688 2.556 0 .768-.276 1.416-.84 1.932s-1.332.768-2.316.768c-1.968 0-3.192-.912-3.684-2.724l1.644-.792c.3 1.2.9 1.812 2.04 1.812.756 0 1.248-.372 1.248-.864 0-.624-.588-.996-1.884-1.236-1.764-.348-2.64-1.188-2.64-2.52 0-.732.276-1.308.828-1.752.552-.444 1.284-.66 2.196-.66 1.644 0 2.676.708 3.264 2.196l-1.452.864c-.336-.984-.948-1.476-1.848-1.476-.72 0-1.236.324-1.236.804 0 .468.54.792 1.992 1.092Z"/><path stroke="#B0BDFF" stroke-linecap="round" d="m51 118.5.552-.221a5.415 5.415 0 0 1 3.912-.042l.253.094c1.144.43 2.41.4 3.533-.081v0a4.738 4.738 0 0 1 3.533-.081l.368.137a5.258 5.258 0 0 0 3.698 0l.271-.101a4.601 4.601 0 0 1 3.676.193l.24.12a4.105 4.105 0 0 0 3.87-.108l.221-.126A3.537 3.537 0 0 1 78 118v0"/><path fill="#DBBCAA" d="m157.709 179.437 1.74.294a16.04 16.04 0 0 1 9.38 5.239l.903 1.03c5.952 6.787 16.532 6.737 22.42-.105a14.849 14.849 0 0 0 .366-18.927l-1.567-1.972a17.876 17.876 0 0 1-3.363-6.834l-1.403-5.663a44.703 44.703 0 0 0-6.311-14.215l-4.715-7.001-1.366-1.518a2.346 2.346 0 0 0-3.532.054l-2.465 2.913a.093.093 0 0 1-.13.01l-2.291-1.939a3.259 3.259 0 0 0-4.592.381l-2.156 2.547a.084.084 0 0 1-.11.017l-2.522-1.637a2.738 2.738 0 0 0-4.042 1.296l-.837 2.13c-.088.225-.254.41-.467.523l-.089.048a1.376 1.376 0 0 1-1.784-.445l-6.052-8.95L134 114.827a3.44 3.44 0 0 0-5.812 3.648l7.406 13.957 3.566 7.394a36.623 36.623 0 0 1 2.102 5.42 36.583 36.583 0 0 0 2.737 6.675l1.107 2.086 1.146 3.089c.198.534-.508.931-.861.484l-.994-1.261-6.065-9.744a3.852 3.852 0 0 0-1.323-1.29l-1.3-.764c-1.697-.998-3.868.006-4.207 1.945a2.814 2.814 0 0 0 .164 1.545l3.325 8.211a33.724 33.724 0 0 0 2.514 4.98l4.034 6.577a25.756 25.756 0 0 0 3.957 4.954l1.051 1.026a21.013 21.013 0 0 0 11.162 5.678Z"/><path stroke="#FCCE9F" stroke-linecap="round" stroke-width="2" d="m92.58 139-9.08 8.597M100.04 139l-11.28 18m18.74-18-4.127 15.313"/><circle cx="142" cy="43" r="25" fill="#92A4F7"/><path stroke="#fff" stroke-linecap="round" stroke-width="2.7" d="M152.227 49.534v-2.27a5.4 5.4 0 0 0-5.4-5.4h-9.654a5.4 5.4 0 0 0-5.4 5.4v2.27"/><rect width="10.227" height="10.227" x="136.886" y="31.636" stroke="#fff" stroke-width="2.7" rx="5.114"/><path stroke="#fff" stroke-linecap="round" stroke-width="2.7" d="M131.773 49.534c2.559 1.574 6.194 2.557 10.227 2.557s7.668-.983 10.227-2.557"/></g><defs><clipPath id="a"><path fill="#fff" d="M0 0h200v200H0z"/></clipPath></defs></svg>