<svg xmlns="http://www.w3.org/2000/svg" width="200" height="200" fill="none"><g clip-path="url(#a)"><path fill="#B0BDFF" d="M160.016 94.986c-.195.3-.462.55-.776.719-.061.036-.13.068-.195.097l-37.552 18.379a4.38 4.38 0 0 1-2.249.426 4.348 4.348 0 0 1-1.56-.426l-.346-.17-37.404-18.306a2.149 2.149 0 0 1-.776-.719c.195-.3.462-.548.776-.718l37.75-18.476a4.358 4.358 0 0 1 2.246-.426 4.39 4.39 0 0 1 1.563.426l37.552 18.379c.065.028.134.06.195.097.314.17.581.419.776.718Z"/><path fill="#92A4F7" d="M160.367 96.165v35.859a4.329 4.329 0 0 1-2.43 3.891l-36.23 17.733-.426.209-.019.008a4.33 4.33 0 0 1-1.667.332h-.008V114.62a4.385 4.385 0 0 0 1.907-.441L159.045 95.8c.065-.029.134-.061.195-.097.315-.17.582-.419.777-.719.22.34.35.748.35 1.18Z"/><path fill="#7C91F6" d="M119.587 114.62v39.577h-.007a4.339 4.339 0 0 1-1.668-.332l-.018-.008-.426-.209-36.23-17.733a4.33 4.33 0 0 1-2.43-3.891v-35.86c0-.432.13-.84.35-1.18.195.3.462.55.776.719l37.404 18.306.347.17a4.342 4.342 0 0 0 1.902.441ZM132.052 88.724l-1.122-.545a4.518 4.518 0 0 0-3.946-.007l-.119.057-1.574.77-18.173 8.895h-.004c-1.397.685-1.394 2.678.007 3.36l1.123.546a4.52 4.52 0 0 0 3.946.007l.119-.058 1.574-.769 18.173-8.895h.004c1.397-.686 1.393-2.679-.008-3.361Z"/><path fill="#B1BEFF" d="M85.338 59.233v2.354l-4.444-1.419s-.018-.003-.025-.007c-2.772-.964-4.177-2.148-4.177-3.52 0-.62.502-1.122 1.12-1.122.617 0 1.093.473 1.122 1.068.109.192.773.794 2.657 1.451l3.748 1.195Z"/><path fill="#271B46" d="M85.338 59.233v2.354l-4.444-1.419s-.018-.003-.025-.007c-2.772-.964-4.177-2.148-4.177-3.52 0-.62.502-1.122 1.12-1.122.617 0 1.093.473 1.122 1.068.109.192.773.794 2.657 1.451l3.748 1.195Z"/><path fill="#7990FF" d="M86.472 70.302c-.069-.003-.188-.032-.346-.068l.346.069ZM102.652 49.994c-.548 0-1.09.025-1.617.083-.036-.03-.072-.054-.108-.083h1.725Z"/><path fill="#fff" d="M118.347 58.241v25.616a2.632 2.632 0 0 1-2.633 2.633H89.759a2.634 2.634 0 0 1-2.633-2.633v-9.941c.254.049.471.092.642.128.026.007.05.01.076.016.145.033.253.06.316.063.01.003.02.003.026.003.02.01.03.01.03.01l3.113.98a3.631 3.631 0 0 0 4.561-2.369 3.73 3.73 0 0 0 .171-1.096 3.652 3.652 0 0 0-1.056-2.56 3.633 3.633 0 0 0-1.484-.901l-.649-.211-4.38-1.379h-.016c-.046-.01-.092-.023-.138-.036l-1.212-.385V58.24a2.634 2.634 0 0 1 2.633-2.633h11.578c.032.027.065.05.098.076a13.56 13.56 0 0 1 1.475-.076h12.804a2.632 2.632 0 0 1 2.633 2.633Z"/><path fill="#7F4E32" d="M95.199 69.306c.55.651.862 1.484.862 2.35 0 .365-.06.73-.171 1.095a3.631 3.631 0 0 1-4.561 2.37l-3.113-.981s-.01 0-.03-.01c-.007 0-.016 0-.026-.003l-.316-.063-.076-.016a42.997 42.997 0 0 0-.642-.129c-3.245-.648-12.719-2.484-14.062-2.171-2.629.595-7.65-1.439-9.797-4.065-2.155-2.63-3.31-4.462-4.62-4.663l5.11-14.457 1.956.359c1.204.22 2.428.29 3.65.19 4.903-.4 15.818-1.816 18.487-1.757 2.775.06 11.216 6.493 13.486 8.257H89.759a2.634 2.634 0 0 0-2.633 2.633v5.792l-3.416-1.09c-1.717-.598-2.323-1.148-2.422-1.322a1.024 1.024 0 0 0-1.023-.974c-.55 0-1.02.457-1.02 1.023 0 1.25 1.28 2.33 3.807 3.209.007 0 .017.006.023.006l4.051 1.294 1.211.385c.046.013.093.026.139.032h.016l4.38 1.383.649.21a3.632 3.632 0 0 1 1.678 1.113Z"/><path fill="#627CFF" d="M112.482 61.343h-2.916c-.727 0-1.316.59-1.316 1.317v16.75c0 .727.589 1.317 1.316 1.317h2.916c.727 0 1.316-.59 1.316-1.317V62.66c0-.727-.589-1.317-1.316-1.317ZM103.928 66.165h-2.915c-.727 0-1.317.59-1.317 1.316v11.93c0 .727.59 1.316 1.317 1.316h2.915c.727 0 1.317-.59 1.317-1.316V67.48c0-.727-.59-1.316-1.317-1.316Z"/><path fill="#7C91F6" d="m57.967 43.735 4.137 1.468a2.797 2.797 0 0 1 1.701 3.567l-4.867 13.733a2.797 2.797 0 0 1-3.568 1.701l-4.136-1.467a2.797 2.797 0 0 1-1.702-3.568L54.4 45.437a2.797 2.797 0 0 1 3.567-1.702Z"/><path fill="#fff" d="M58.506 93.036H22.551a1.46 1.46 0 0 0-1.46 1.46v23.982a1.46 1.46 0 0 0 1.46 1.461h35.955a1.46 1.46 0 0 0 1.46-1.461V94.496a1.46 1.46 0 0 0-1.46-1.46Z"/><path fill="#271B46" d="M42.484 105.804a2.212 2.212 0 0 1-2.209-2.211v-.66a.389.389 0 0 0-.39-.393h-.721a2.21 2.21 0 0 1-2.207-2.21v-.768a.388.388 0 0 0-.39-.393h-.714a.387.387 0 0 0-.39.393v4.03c0 1.219-.992 2.21-2.207 2.21h-.714a2.21 2.21 0 0 1-2.206-2.21v-.661a.389.389 0 0 0-.39-.393h-2.012a.909.909 0 0 1 0-1.817h2.011a2.21 2.21 0 0 1 2.207 2.21v.661c0 .219.171.39.39.39h.714c.219 0 .39-.171.39-.39v-4.03c0-1.22.992-2.21 2.207-2.21h.714a2.21 2.21 0 0 1 2.206 2.21v.768c0 .219.172.391.39.391h.722c1.22 0 2.214.991 2.214 2.21v.661c0 .219.171.39.39.39h.714c.219 0 .39-.171.39-.39v-4.03c0-1.22.991-2.21 2.209-2.21h.714c1.217 0 2.208.99 2.208 2.21v.768c0 .219.172.391.39.391h3.99a.91.91 0 0 1 0 1.817h-3.99a2.214 2.214 0 0 1-2.213-2.21v-.768a.388.388 0 0 0-.391-.393h-.714a.387.387 0 0 0-.39.393v4.03c0 1.215-.99 2.206-2.207 2.21h-.713l-.002.004Z"/><path fill="#271B46" d="M43.197 105.392h-.714a1.8 1.8 0 0 1-1.796-1.799v-.661a.798.798 0 0 0-.801-.801h-.721c-.99 0-1.796-.809-1.796-1.8v-.768a.798.798 0 0 0-.801-.801h-.714a.8.8 0 0 0-.801.801v4.03a1.8 1.8 0 0 1-1.796 1.799h-.714a1.8 1.8 0 0 1-1.796-1.799v-.661a.798.798 0 0 0-.8-.801h-2.012a.498.498 0 1 1 0-.997h2.011c.99 0 1.796.809 1.796 1.8v.661c0 .445.356.801.801.801h.714a.8.8 0 0 0 .801-.801v-4.03c0-.991.807-1.8 1.796-1.8h.714c.989 0 1.796.809 1.796 1.8v.768c0 .446.355.801.8.801h.722c.989 0 1.803.809 1.803 1.8v.661c0 .445.356.801.801.801h.714a.8.8 0 0 0 .801-.801v-4.03c0-.991.807-1.8 1.796-1.8h.714c.989 0 1.796.809 1.796 1.8v.768c0 .446.355.801.8.801h3.99a.498.498 0 1 1 0 .997h-3.99c-.988 0-1.802-.809-1.802-1.8v-.768a.798.798 0 0 0-.802-.801h-.713a.8.8 0 0 0-.801.801v4.03c0 .991-.807 1.799-1.804 1.799h.008Z"/><path fill="#627CFF" d="M53.122 115.623c-2.604 0-3.913-2.084-4.964-3.758-.986-1.564-1.832-2.907-3.428-2.907-1.595 0-2.44 1.343-3.422 2.898-1.056 1.683-2.365 3.767-4.97 3.767-2.604 0-3.913-2.084-4.964-3.758-.985-1.564-1.832-2.907-3.427-2.907a.911.911 0 0 1-.91-.909c0-.5.408-.909.91-.909 2.604 0 3.913 2.082 4.964 3.758.985 1.562 1.832 2.907 3.428 2.907 1.595 0 2.447-1.347 3.427-2.907 1.051-1.674 2.36-3.758 4.964-3.758 2.605 0 3.914 2.082 4.965 3.758.985 1.562 1.832 2.907 3.427 2.907a.91.91 0 0 1 .91.909.91.91 0 0 1-.91.909Z"/><path fill="#627CFF" d="M53.122 115.214c-2.376 0-3.566-1.893-4.615-3.565-1.002-1.589-1.952-3.099-3.775-3.099s-2.772 1.51-3.774 3.099c-1.05 1.672-2.247 3.565-4.616 3.565-2.369 0-3.566-1.893-4.616-3.565-1.002-1.589-1.95-3.099-3.774-3.099a.497.497 0 1 1 0-.996c2.376 0 3.566 1.894 4.616 3.564 1.002 1.59 1.95 3.099 3.776 3.099 1.825 0 2.772-1.502 3.774-3.099 1.05-1.672 2.247-3.564 4.616-3.564 2.369 0 3.566 1.894 4.616 3.564 1.002 1.59 1.95 3.099 3.776 3.099a.498.498 0 1 1 0 .997h-.004Z"/><path fill="#fff" d="M97.61 129.417H55.622c-.942 0-1.705.763-1.705 1.705v28.006c0 .942.763 1.705 1.705 1.705H97.61c.942 0 1.705-.763 1.705-1.705v-28.006c0-.942-.763-1.705-1.705-1.705Z"/><path fill="#627CFF" d="M62.608 154.97h-2.242a.852.852 0 0 1-.853-.852v-12.676c0-.47.382-.852.853-.852h2.242c.47 0 .853.382.853.852v12.676a.852.852 0 0 1-.853.852ZM74.778 154.97h-2.242a.852.852 0 0 1-.852-.852v-18.526c0-.471.381-.853.852-.853h2.242c.471 0 .853.382.853.853v18.526a.852.852 0 0 1-.853.852Z"/><path fill="#FCCE9F" d="M80.693 154.97H78.45a.852.852 0 0 1-.853-.852v-15.613c0-.47.382-.852.853-.852h2.242c.47 0 .852.382.852.852v15.613a.852.852 0 0 1-.852.852ZM92.863 154.97H90.62a.852.852 0 0 1-.853-.852v-15.613c0-.47.382-.852.853-.852h2.242c.47 0 .852.382.852.852v15.613a.852.852 0 0 1-.852.852Z"/><path fill="#627CFF" d="M86.64 154.97h-2.243a.852.852 0 0 1-.853-.852v-10.849c0-.471.382-.853.853-.853h2.242c.471 0 .853.382.853.853v10.849a.852.852 0 0 1-.853.852Z"/><path fill="#271B46" d="M68.735 154.97h-2.242a.852.852 0 0 1-.852-.852v-7.727c0-.47.381-.852.852-.852h2.242c.471 0 .853.382.853.852v7.727a.852.852 0 0 1-.853.852Z"/><path fill="#fff" d="M159.003 43.576h-29.779c-.668 0-1.209.54-1.209 1.21v19.862c0 .668.541 1.21 1.209 1.21h29.779a1.21 1.21 0 0 0 1.21-1.21V44.785a1.21 1.21 0 0 0-1.21-1.21Z"/><path fill="#627CFF" d="M148.706 47.782v4.177a2.748 2.748 0 0 0-2.744 2.754c0 .503.138.972.37 1.377l-3.617 2.09a6.938 6.938 0 0 1 2.533-9.467 6.6 6.6 0 0 1 3.464-.931h-.006Z"/><path fill="#FCCE9F" d="M154.696 58.176a6.915 6.915 0 0 1-9.452 2.536 6.601 6.601 0 0 1-2.534-2.536l3.618-2.091a2.744 2.744 0 0 0 2.379 1.377 2.763 2.763 0 0 0 2.385-1.377l3.612 2.09h-.008Z"/><path fill="#271B46" d="M155.626 54.712c0 1.275-.29 2.36-.93 3.468l-3.611-2.09a2.753 2.753 0 0 0-2.378-4.125v-4.177a6.924 6.924 0 0 1 6.92 6.929v-.006l-.001.001Z"/><path fill="#627CFF" d="M134.358 51.292a1.753 1.753 0 1 0-.002-3.505 1.753 1.753 0 0 0 .002 3.505Z"/><path fill="#FCCE9F" d="M134.358 61.645a1.753 1.753 0 1 0-.002-3.506 1.753 1.753 0 0 0 .002 3.506Z"/><path fill="#271B46" d="M134.358 56.469a1.754 1.754 0 0 0 0-3.507 1.753 1.753 0 0 0 0 3.507Z"/></g><defs><clipPath id="a"><path fill="#fff" d="M0 0h200v200H0z"/></clipPath></defs></svg>