<svg width="206" height="20" viewBox="0 0 206 20" fill="none" xmlns="http://www.w3.org/2000/svg">
<path fill-rule="evenodd" clip-rule="evenodd" d="M30.2734 0C29.4734 0 28.8418 0.631578 28.8418 1.43158C28.8418 2.23158 29.4734 2.86315 30.2734 2.86315C31.0734 2.86315 31.705 2.23158 31.705 1.43158C31.705 0.631578 31.0734 0 30.2734 0Z" fill="#281946"/>
<path fill-rule="evenodd" clip-rule="evenodd" d="M30.2734 4.25244C29.4734 4.25244 28.8418 4.88402 28.8418 5.68402C28.8418 6.48402 29.4734 7.11559 30.2734 7.11559C31.0734 7.11559 31.705 6.48402 31.705 5.68402C31.705 4.92612 31.0734 4.25244 30.2734 4.25244Z" fill="#281946"/>
<path fill-rule="evenodd" clip-rule="evenodd" d="M74.0624 0C73.2624 0 72.6309 0.631578 72.6309 1.43158C72.6309 2.23158 73.2624 2.86315 74.0624 2.86315C74.8624 2.86315 75.494 2.23158 75.494 1.43158C75.494 0.631578 74.8624 0 74.0624 0Z" fill="#281946"/>
<path fill-rule="evenodd" clip-rule="evenodd" d="M78.3154 0C77.5154 0 76.8838 0.631578 76.8838 1.43158C76.8838 2.23158 77.5154 2.86315 78.3154 2.86315C79.1154 2.86315 79.7469 2.23158 79.7469 1.43158C79.7469 0.631578 79.1154 0 78.3154 0Z" fill="#281946"/>
<path fill-rule="evenodd" clip-rule="evenodd" d="M78.3154 17.0947C77.5154 17.0947 76.8838 17.7263 76.8838 18.5263C76.8838 19.3263 77.5154 19.9579 78.3154 19.9579C79.1154 19.9579 79.7469 19.3263 79.7469 18.5263C79.789 17.7263 79.1154 17.0947 78.3154 17.0947Z" fill="#281946"/>
<path fill-rule="evenodd" clip-rule="evenodd" d="M82.6103 17.0947C82.2313 17.0947 81.8524 17.2631 81.5998 17.5158C81.3471 17.7684 81.1787 18.1474 81.1787 18.5263C81.1787 18.9052 81.3471 19.2842 81.5998 19.5368C81.8524 19.7895 82.2313 19.9579 82.6103 19.9579C82.9892 19.9579 83.3682 19.7895 83.6208 19.5368C83.8734 19.2842 84.0419 18.9052 84.0419 18.5263C84.0419 18.1474 83.8734 17.7684 83.6208 17.5158C83.3682 17.2631 82.9892 17.0947 82.6103 17.0947Z" fill="#281946"/>
<path fill-rule="evenodd" clip-rule="evenodd" d="M82.6103 0C81.8103 0 81.1787 0.631578 81.1787 1.43158C81.1787 2.23158 81.8103 2.86315 82.6103 2.86315C83.4103 2.86315 84.0419 2.23158 84.0419 1.43158C84.0419 0.631578 83.4103 0 82.6103 0Z" fill="#281946"/>
<path fill-rule="evenodd" clip-rule="evenodd" d="M69.7685 17.0947C68.9685 17.0947 68.3369 17.7263 68.3369 18.5263C68.3369 19.3263 68.9685 19.9579 69.7685 19.9579C70.5685 19.9579 71.2001 19.3263 71.2001 18.5263C71.2422 17.7684 70.5685 17.0947 69.7685 17.0947Z" fill="#281946"/>
<path fill-rule="evenodd" clip-rule="evenodd" d="M74.0624 17.0947C73.2624 17.0947 72.6309 17.7263 72.6309 18.5263C72.6309 19.3263 73.2624 19.9579 74.0624 19.9579C74.8624 19.9579 75.494 19.3263 75.494 18.5263C75.494 17.7263 74.8624 17.0947 74.0624 17.0947Z" fill="#281946"/>
<path fill-rule="evenodd" clip-rule="evenodd" d="M69.7685 12.8003C68.9685 12.8003 68.3369 13.4319 68.3369 14.2319C68.3369 15.0319 68.9685 15.6634 69.7685 15.6634C70.5685 15.6634 71.2001 15.0319 71.2001 14.2319C71.2422 13.474 70.5685 12.8003 69.7685 12.8003Z" fill="#281946"/>
<path fill-rule="evenodd" clip-rule="evenodd" d="M183.873 17.0947C183.073 17.0947 182.441 17.7263 182.441 18.5263C182.441 19.3263 183.073 19.9579 183.873 19.9579C184.673 19.9579 185.305 19.3263 185.305 18.5263C185.347 17.7263 184.673 17.0947 183.873 17.0947Z" fill="#281946"/>
<path fill-rule="evenodd" clip-rule="evenodd" d="M171.031 0C170.231 0 169.6 0.631578 169.6 1.43158C169.6 2.23158 170.231 2.86315 171.031 2.86315C171.831 2.86315 172.463 2.23158 172.463 1.43158C172.505 0.631578 171.831 0 171.031 0Z" fill="#281946"/>
<path fill-rule="evenodd" clip-rule="evenodd" d="M171.031 4.25244C170.231 4.25244 169.6 4.88402 169.6 5.68402C169.6 6.48402 170.231 7.11559 171.031 7.11559C171.831 7.11559 172.463 6.48402 172.463 5.68402C172.505 4.92612 171.831 4.25244 171.031 4.25244Z" fill="#281946"/>
<path fill-rule="evenodd" clip-rule="evenodd" d="M181.052 18.5263C181.052 17.7263 180.42 17.0947 179.62 17.0947C178.82 17.0947 178.188 17.7263 178.188 18.5263C178.188 19.3263 178.82 19.9579 179.62 19.9579C180.378 20 181.052 19.3263 181.052 18.5263Z" fill="#281946"/>
<path fill-rule="evenodd" clip-rule="evenodd" d="M155.579 0.884764C154.863 0.547923 153.979 0.884763 153.684 1.60055C153.347 2.31634 153.684 3.20055 154.4 3.49528C154.61 3.57949 154.779 3.6216 154.989 3.6216C155.537 3.6216 156.084 3.28476 156.295 2.7795C156.631 2.06371 156.295 1.22161 155.579 0.884764Z" fill="#281946"/>
<path fill-rule="evenodd" clip-rule="evenodd" d="M144.758 15.5371C144.253 16.1266 144.295 17.0529 144.884 17.5582C145.179 17.8108 145.516 17.895 145.811 17.895C146.232 17.895 146.611 17.7266 146.905 17.3898C147.411 16.8003 147.369 15.874 146.779 15.3687C146.19 14.8635 145.263 14.9056 144.758 15.5371Z" fill="#281946"/>
<path fill-rule="evenodd" clip-rule="evenodd" d="M144.632 12.0002C144.421 11.2423 143.621 10.7792 142.821 11.0318C142.063 11.2423 141.6 12.0844 141.853 12.8423C142.021 13.4739 142.61 13.8949 143.242 13.8949C143.368 13.8949 143.537 13.8949 143.663 13.8528C144.421 13.5581 144.842 12.7581 144.632 12.0002Z" fill="#281946"/>
<path fill-rule="evenodd" clip-rule="evenodd" d="M150.441 17.0108C149.641 16.8845 148.926 17.4319 148.799 18.2319C148.673 19.0319 149.22 19.7476 150.02 19.874H150.231C150.947 19.874 151.578 19.3687 151.663 18.6108C151.789 17.8529 151.241 17.1371 150.441 17.0108V17.0108Z" fill="#281946"/>
<path fill-rule="evenodd" clip-rule="evenodd" d="M150.189 2.98968H150.399C151.199 2.86336 151.747 2.14757 151.621 1.34758C151.494 0.547577 150.778 0.000209117 149.978 0.126525C149.178 0.25284 148.631 0.968629 148.757 1.76863C148.884 2.44231 149.473 2.98968 150.189 2.98968Z" fill="#281946"/>
<path fill-rule="evenodd" clip-rule="evenodd" d="M145.81 4.96842C146.147 4.96842 146.484 4.8421 146.779 4.58947C147.368 4.08421 147.452 3.1579 146.905 2.52632C146.4 1.93685 145.473 1.85264 144.842 2.4C144.252 2.90527 144.168 3.83158 144.715 4.46316C145.01 4.8 145.431 4.96842 145.81 4.96842V4.96842Z" fill="#281946"/>
<path fill-rule="evenodd" clip-rule="evenodd" d="M142.821 8.96839C142.947 9.0105 143.074 9.01049 143.242 9.01049C143.874 9.01049 144.463 8.58944 144.632 7.95786C144.842 7.19997 144.421 6.39998 143.663 6.14734C142.905 5.93682 142.105 6.35787 141.853 7.11576C141.6 7.95787 142.063 8.75786 142.821 8.96839Z" fill="#281946"/>
<path fill-rule="evenodd" clip-rule="evenodd" d="M104.547 8.54785C103.747 8.54785 103.115 9.17943 103.115 9.97943C103.115 10.7794 103.747 11.411 104.547 11.411C105.347 11.411 105.978 10.7794 105.978 9.97943C106.02 9.17943 105.347 8.54785 104.547 8.54785Z" fill="#281946"/>
<path fill-rule="evenodd" clip-rule="evenodd" d="M95.831 4.25244C95.031 4.25244 94.3994 4.88402 94.3994 5.68402C94.3994 6.48402 95.031 7.11559 95.831 7.11559C96.631 7.11559 97.2626 6.48402 97.2626 5.68402C97.2626 4.92612 96.631 4.25244 95.831 4.25244Z" fill="#281946"/>
<path fill-rule="evenodd" clip-rule="evenodd" d="M95.831 0C95.031 0 94.3994 0.631578 94.3994 1.43158C94.3994 2.23158 95.031 2.86315 95.831 2.86315C96.631 2.86315 97.2626 2.23158 97.2626 1.43158C97.2626 0.631578 96.631 0 95.831 0Z" fill="#281946"/>
<path fill-rule="evenodd" clip-rule="evenodd" d="M104.589 0C103.789 0 103.157 0.631578 103.157 1.43158C103.157 2.23158 103.789 2.86315 104.589 2.86315C105.389 2.86315 106.02 2.23158 106.02 1.43158C106.02 0.631578 105.389 0 104.589 0Z" fill="#281946"/>
<path fill-rule="evenodd" clip-rule="evenodd" d="M108.126 6.35791C107.326 6.35791 106.694 6.98949 106.694 7.78949C106.694 8.58949 107.326 9.22106 108.126 9.22106C108.926 9.22106 109.557 8.58949 109.557 7.78949C109.557 6.98949 108.926 6.35791 108.126 6.35791Z" fill="#281946"/>
<path fill-rule="evenodd" clip-rule="evenodd" d="M108.126 2.18945C107.326 2.18945 106.694 2.82103 106.694 3.62103C106.694 4.42103 107.326 5.05261 108.126 5.05261C108.926 5.05261 109.557 4.42103 109.557 3.62103C109.557 2.82103 108.926 2.18945 108.126 2.18945Z" fill="#281946"/>
<path fill-rule="evenodd" clip-rule="evenodd" d="M45.0527 0C44.2527 0 43.6211 0.631578 43.6211 1.43158C43.6211 2.23158 44.2527 2.86315 45.0527 2.86315C45.8527 2.86315 46.4842 2.23158 46.4842 1.43158C46.4842 0.631578 45.8527 0 45.0527 0Z" fill="#281946"/>
<path fill-rule="evenodd" clip-rule="evenodd" d="M49.4736 0C48.6736 0 48.042 0.631578 48.042 1.43158C48.042 2.23158 48.6736 2.86315 49.4736 2.86315C50.2736 2.86315 50.9051 2.23158 50.9051 1.43158C50.9051 0.631578 50.2736 0 49.4736 0Z" fill="#281946"/>
<path fill-rule="evenodd" clip-rule="evenodd" d="M53.6835 1.1792C52.8835 1.1792 52.252 1.81078 52.252 2.61078C52.252 3.41077 52.8835 4.04235 53.6835 4.04235C54.4835 4.04235 55.1151 3.41077 55.1151 2.61078C55.1572 1.81078 54.5256 1.1792 53.6835 1.1792Z" fill="#281946"/>
<path fill-rule="evenodd" clip-rule="evenodd" d="M56.7577 4.29492C55.9577 4.29492 55.3262 4.9265 55.3262 5.7265C55.3262 6.5265 55.9577 7.15807 56.7577 7.15807C57.5577 7.15807 58.1893 6.5265 58.1893 5.7265C58.2314 4.96861 57.5577 4.29492 56.7577 4.29492Z" fill="#281946"/>
<path fill-rule="evenodd" clip-rule="evenodd" d="M45.0527 4.25244C44.2527 4.25244 43.6211 4.88402 43.6211 5.68402C43.6211 6.48402 44.2527 7.11559 45.0527 7.11559C45.8527 7.11559 46.4842 6.48402 46.4842 5.68402C46.5264 4.92612 45.8527 4.25244 45.0527 4.25244Z" fill="#281946"/>
<path fill-rule="evenodd" clip-rule="evenodd" d="M45.0527 17.0947C44.2527 17.0947 43.6211 17.7263 43.6211 18.5263C43.6211 19.3263 44.2527 19.9579 45.0527 19.9579C45.8527 19.9579 46.4842 19.3263 46.4842 18.5263C46.5264 17.7684 45.8527 17.0947 45.0527 17.0947Z" fill="#281946"/>
<path fill-rule="evenodd" clip-rule="evenodd" d="M45.0527 12.8003C44.2527 12.8003 43.6211 13.4319 43.6211 14.2319C43.6211 15.0319 44.2527 15.6634 45.0527 15.6634C45.8527 15.6634 46.4842 15.0319 46.4842 14.2319C46.5264 13.474 45.8527 12.8003 45.0527 12.8003Z" fill="#281946"/>
<path fill-rule="evenodd" clip-rule="evenodd" d="M45.0527 8.54785C44.2527 8.54785 43.6211 9.17943 43.6211 9.97943C43.6211 10.7794 44.2527 11.411 45.0527 11.411C45.8527 11.411 46.4842 10.7794 46.4842 9.97943C46.5264 9.17943 45.8527 8.54785 45.0527 8.54785Z" fill="#281946"/>
<path fill-rule="evenodd" clip-rule="evenodd" d="M100.21 0C99.4099 0 98.7783 0.631578 98.7783 1.43158C98.7783 2.23158 99.4099 2.86315 100.21 2.86315C101.01 2.86315 101.641 2.23158 101.641 1.43158C101.641 0.631578 101.01 0 100.21 0Z" fill="#281946"/>
<path fill-rule="evenodd" clip-rule="evenodd" d="M57.8946 8.54785C57.1367 8.54785 56.5472 9.17943 56.5472 9.89522V9.97943C56.5472 13.8952 53.3472 17.1373 49.3894 17.1794C48.6315 17.1794 48.042 17.811 48.042 18.5268C48.042 19.2847 48.6736 19.8741 49.3894 19.8741C54.8209 19.832 59.1999 15.3689 59.1999 9.97943V9.85311C59.242 9.13732 58.6525 8.54785 57.8946 8.54785V8.54785Z" fill="#627CFF"/>
<path fill-rule="evenodd" clip-rule="evenodd" d="M78.4418 8.63156H71.1576V1.34737C71.1576 0.589473 70.5681 0 69.8103 0C69.0524 0 68.4629 0.589473 68.4629 1.34737V9.97893C68.4629 10.7368 69.0524 11.3263 69.8103 11.3263H78.4839C79.2418 11.3263 79.8313 10.7368 79.8313 9.97893C79.7892 9.26314 79.1997 8.63156 78.4418 8.63156V8.63156Z" fill="#627CFF"/>
<path fill-rule="evenodd" clip-rule="evenodd" d="M5.7265 0C4.9265 0 4.29492 0.631578 4.29492 1.43158C4.29492 2.23158 4.9265 2.86315 5.7265 2.86315C6.5265 2.86315 7.15807 2.23158 7.15807 1.43158C7.15807 0.631578 6.5265 0 5.7265 0V0Z" fill="#281946"/>
<path fill-rule="evenodd" clip-rule="evenodd" d="M1.43158 0C0.631578 0 0 0.631578 0 1.43158C0 2.23158 0.631578 2.86315 1.43158 2.86315C2.23158 2.86315 2.86315 2.23158 2.86315 1.43158C2.86315 0.631578 2.23158 0 1.43158 0Z" fill="#281946"/>
<path fill-rule="evenodd" clip-rule="evenodd" d="M10.0214 12.8423C9.22142 12.8423 8.58984 13.4739 8.58984 14.2739C8.58984 15.0739 9.22142 15.7054 10.0214 15.7054C10.8214 15.7054 11.453 15.0739 11.453 14.2739C11.453 13.4739 10.8214 12.8423 10.0214 12.8423Z" fill="#281946"/>
<path fill-rule="evenodd" clip-rule="evenodd" d="M10.0214 17.0947C9.22142 17.0947 8.58984 17.7263 8.58984 18.5263C8.58984 19.3263 9.22142 19.9579 10.0214 19.9579C10.8214 19.9579 11.453 19.3263 11.453 18.5263C11.453 17.7263 10.8214 17.0947 10.0214 17.0947Z" fill="#281946"/>
<path fill-rule="evenodd" clip-rule="evenodd" d="M18.5685 0.0844727H10.0212C9.2633 0.0844727 8.67383 0.673946 8.67383 1.43184V9.97919C8.67383 10.7371 9.2633 11.3266 10.0212 11.3266C10.7791 11.3266 11.3686 10.7371 11.3686 9.97919V2.77921H18.5685C19.3264 2.77921 19.9159 2.18973 19.9159 1.43184C19.9159 0.673946 19.3264 0.0844727 18.5685 0.0844727V0.0844727Z" fill="#627CFF"/>
<path fill-rule="evenodd" clip-rule="evenodd" d="M30.2731 8.54785C29.5153 8.54785 28.9258 9.13733 28.9258 9.89522V18.6531C28.9258 19.411 29.5153 20.0005 30.2731 20.0005C31.031 20.0005 31.6205 19.411 31.6205 18.6531V9.89522C31.6205 9.13733 31.031 8.54785 30.2731 8.54785Z" fill="#627CFF"/>
<path fill-rule="evenodd" clip-rule="evenodd" d="M100.336 8.63184H95.8308C95.0729 8.63184 94.4834 9.22131 94.4834 9.9792V18.6108C94.4834 19.3687 95.0729 19.9581 95.8308 19.9581C96.5887 19.9581 97.1781 19.3687 97.1781 18.6108V11.3266H100.336C101.094 11.3266 101.683 10.7371 101.683 9.9792C101.683 9.26341 101.094 8.63184 100.336 8.63184Z" fill="#627CFF"/>
<path fill-rule="evenodd" clip-rule="evenodd" d="M175.41 17.1794H172.378V9.89522C172.378 9.13733 171.789 8.54785 171.031 8.54785C170.273 8.54785 169.684 9.13733 169.684 9.89522V18.5689C169.684 19.3268 170.273 19.9163 171.031 19.9163H175.41C176.168 19.9163 176.757 19.3268 176.757 18.5689C176.757 17.811 176.168 17.1794 175.41 17.1794V17.1794Z" fill="#627CFF"/>
<path fill-rule="evenodd" clip-rule="evenodd" d="M132.673 6.77878C132.926 6.77878 133.221 6.69457 133.473 6.52615C134.147 6.1051 134.315 5.17878 133.894 4.5051C133.473 3.83142 132.547 3.66299 131.873 4.08405C131.2 4.5051 131.031 5.43141 131.452 6.1051C131.747 6.56825 132.21 6.77878 132.673 6.77878V6.77878Z" fill="#281946"/>
<path fill-rule="evenodd" clip-rule="evenodd" d="M128.462 16.4633C127.747 16.8002 127.41 17.6423 127.747 18.4001C127.999 18.9475 128.504 19.2423 129.052 19.2423C129.262 19.2423 129.473 19.2001 129.641 19.1159C130.357 18.7791 130.694 17.937 130.357 17.1791C130.02 16.4212 129.178 16.1265 128.462 16.4633Z" fill="#281946"/>
<path fill-rule="evenodd" clip-rule="evenodd" d="M133.473 13.3897C132.8 12.9687 131.915 13.1371 131.452 13.8108C131.031 14.4844 131.2 15.3687 131.873 15.7897C132.126 15.9581 132.379 16.0423 132.673 16.0423C133.136 16.0423 133.6 15.7897 133.894 15.3687C134.357 14.7371 134.147 13.8108 133.473 13.3897V13.3897Z" fill="#281946"/>
<path fill-rule="evenodd" clip-rule="evenodd" d="M124.505 17.0108C123.705 16.8845 122.989 17.4319 122.863 18.2319C122.737 19.0319 123.284 19.7476 124.084 19.874H124.294C125.01 19.874 125.642 19.3687 125.726 18.6108C125.81 17.8529 125.263 17.1371 124.505 17.0108V17.0108Z" fill="#281946"/>
<path fill-rule="evenodd" clip-rule="evenodd" d="M118.82 15.5371C118.315 16.1266 118.357 17.0529 118.947 17.5582C119.242 17.8108 119.578 17.895 119.873 17.895C120.294 17.895 120.673 17.7266 120.968 17.3898C121.473 16.8003 121.431 15.874 120.842 15.3687C120.252 14.8635 119.326 14.9056 118.82 15.5371Z" fill="#281946"/>
<path fill-rule="evenodd" clip-rule="evenodd" d="M134.02 8.50537C133.22 8.50537 132.589 9.17905 132.589 9.97905V10.0212C132.589 10.8212 133.22 11.4527 134.02 11.4527C134.82 11.4527 135.452 10.8212 135.452 10.0212V9.97905C135.494 9.13695 134.82 8.50537 134.02 8.50537Z" fill="#281946"/>
<path fill-rule="evenodd" clip-rule="evenodd" d="M118.652 12.0002C118.442 11.2423 117.642 10.7792 116.842 11.0318C116.084 11.2423 115.62 12.0844 115.873 12.8423C116.042 13.4739 116.631 13.8949 117.263 13.8949C117.389 13.8949 117.557 13.8949 117.684 13.8528C118.442 13.5581 118.905 12.7581 118.652 12.0002Z" fill="#281946"/>
<path fill-rule="evenodd" clip-rule="evenodd" d="M128.42 3.49528C128.631 3.57949 128.799 3.6216 129.01 3.6216C129.557 3.6216 130.104 3.32686 130.315 2.7795C130.652 2.06371 130.315 1.1795 129.599 0.884764C128.883 0.547923 127.999 0.884763 127.662 1.60055C127.368 2.31634 127.704 3.20055 128.42 3.49528Z" fill="#281946"/>
<path fill-rule="evenodd" clip-rule="evenodd" d="M124.126 0.168329C120.294 0.715696 117.136 3.45253 116 7.15779C115.789 7.87358 116.21 8.63147 116.926 8.842C117.052 8.8841 117.179 8.8841 117.263 8.8841C117.852 8.8841 118.4 8.50516 118.61 7.91568C119.41 5.22095 121.726 3.24201 124.505 2.86306C125.263 2.77885 125.768 2.06306 125.642 1.34727C125.515 0.589381 124.842 0.0841185 124.126 0.168329V0.168329Z" fill="#627CFF"/>
<path fill-rule="evenodd" clip-rule="evenodd" d="M157.978 4.33718C157.347 4.71612 157.136 5.55823 157.557 6.18981C158.273 7.32665 158.652 8.63191 158.652 9.97927C158.652 12.8424 156.968 15.4529 154.315 16.5898C153.642 16.8845 153.305 17.6845 153.599 18.3582C153.81 18.8635 154.315 19.1582 154.82 19.1582C154.989 19.1582 155.199 19.1161 155.368 19.0319C158.989 17.474 161.305 13.8951 161.305 9.93717C161.305 8.08454 160.799 6.27402 159.831 4.71612C159.452 4.12665 158.61 3.91613 157.978 4.33718V4.33718Z" fill="#627CFF"/>
<path fill-rule="evenodd" clip-rule="evenodd" d="M197.962 5.6208C197.962 6.37449 198.556 6.96817 199.309 6.96817C200.063 6.96817 200.657 6.37449 200.657 5.6208C200.657 4.86712 200.063 4.27344 199.309 4.27344C198.556 4.27344 197.962 4.86712 197.962 5.6208Z" fill="#9365F4"/>
<path fill-rule="evenodd" clip-rule="evenodd" d="M199.309 4.27344C198.551 4.27344 197.962 4.86291 197.962 5.6208V14.3787C197.962 15.1366 198.551 15.726 199.309 15.726C200.067 15.726 200.657 15.1366 200.657 14.3787V5.6208C200.657 4.86291 200.067 4.27344 199.309 4.27344Z" fill="#9365F4"/>
<path fill-rule="evenodd" clip-rule="evenodd" d="M193.583 9.99971C193.583 10.7576 194.172 11.3471 194.93 11.3471H203.688C204.446 11.3471 205.036 10.7576 205.036 9.99971C205.036 9.24182 204.446 8.65234 203.688 8.65234H194.93C194.172 8.65234 193.583 9.24182 193.583 9.99971V9.99971Z" fill="#C8A4FC"/>
<path fill-rule="evenodd" clip-rule="evenodd" d="M194.909 8.65234C194.155 8.65234 193.562 9.24603 193.562 9.99971C193.562 10.7534 194.155 11.3471 194.909 11.3471C195.663 11.3471 196.256 10.7534 196.256 9.99971C196.294 9.24603 195.663 8.65234 194.909 8.65234Z" fill="#281946"/>
<path fill-rule="evenodd" clip-rule="evenodd" d="M199.309 13.0312C198.556 13.0312 197.962 13.6249 197.962 14.3786C197.962 15.1323 198.556 15.726 199.309 15.726C200.063 15.726 200.657 15.1323 200.657 14.3786C200.695 13.6249 200.063 13.0312 199.309 13.0312Z" fill="#281946"/>
</svg>
