<svg width="185" height="20" viewBox="0 0 185 20" fill="none" xmlns="http://www.w3.org/2000/svg">
<g clip-path="url(#clip0_2964_10699)">
<path fill-rule="evenodd" clip-rule="evenodd" d="M30.2734 0C29.4734 0 28.8418 0.631574 28.8418 1.43157C28.8418 2.23156 29.4734 2.86313 30.2734 2.86313C31.0734 2.86313 31.7049 2.23156 31.7049 1.43157C31.7049 0.631574 31.0734 0 30.2734 0Z" fill="#281946"/>
<path fill-rule="evenodd" clip-rule="evenodd" d="M30.2734 4.25244C29.4734 4.25244 28.8418 4.88401 28.8418 5.68401C28.8418 6.484 29.4734 7.11558 30.2734 7.11558C31.0734 7.11558 31.7049 6.484 31.7049 5.68401C31.7049 4.92612 31.0734 4.25244 30.2734 4.25244Z" fill="#281946"/>
<path fill-rule="evenodd" clip-rule="evenodd" d="M74.0624 0C73.2624 0 72.6309 0.631574 72.6309 1.43157C72.6309 2.23156 73.2624 2.86313 74.0624 2.86313C74.8624 2.86313 75.494 2.23156 75.494 1.43157C75.494 0.631574 74.8624 0 74.0624 0Z" fill="#281946"/>
<path fill-rule="evenodd" clip-rule="evenodd" d="M78.3154 0C77.5154 0 76.8838 0.631574 76.8838 1.43157C76.8838 2.23156 77.5154 2.86313 78.3154 2.86313C79.1154 2.86313 79.7469 2.23156 79.7469 1.43157C79.7469 0.631574 79.1154 0 78.3154 0Z" fill="#281946"/>
<path fill-rule="evenodd" clip-rule="evenodd" d="M78.3154 17.0947C77.5154 17.0947 76.8838 17.7263 76.8838 18.5263C76.8838 19.3263 77.5154 19.9579 78.3154 19.9579C79.1154 19.9579 79.7469 19.3263 79.7469 18.5263C79.789 17.7263 79.1154 17.0947 78.3154 17.0947Z" fill="#281946"/>
<path fill-rule="evenodd" clip-rule="evenodd" d="M82.6103 17.0947C82.2313 17.0947 81.8524 17.2631 81.5998 17.5158C81.3471 17.7684 81.1787 18.1474 81.1787 18.5263C81.1787 18.9052 81.3471 19.2842 81.5998 19.5368C81.8524 19.7894 82.2313 19.9579 82.6103 19.9579C82.9892 19.9579 83.3682 19.7894 83.6208 19.5368C83.8734 19.2842 84.0418 18.9052 84.0418 18.5263C84.0418 18.1474 83.8734 17.7684 83.6208 17.5158C83.3682 17.2631 82.9892 17.0947 82.6103 17.0947Z" fill="#281946"/>
<path fill-rule="evenodd" clip-rule="evenodd" d="M82.6103 0C81.8103 0 81.1787 0.631574 81.1787 1.43157C81.1787 2.23156 81.8103 2.86313 82.6103 2.86313C83.4103 2.86313 84.0418 2.23156 84.0418 1.43157C84.0418 0.631574 83.4103 0 82.6103 0Z" fill="#281946"/>
<path fill-rule="evenodd" clip-rule="evenodd" d="M69.7685 17.0947C68.9685 17.0947 68.3369 17.7263 68.3369 18.5263C68.3369 19.3263 68.9685 19.9579 69.7685 19.9579C70.5685 19.9579 71.2 19.3263 71.2 18.5263C71.2422 17.7684 70.5685 17.0947 69.7685 17.0947Z" fill="#281946"/>
<path fill-rule="evenodd" clip-rule="evenodd" d="M74.0624 17.0947C73.2624 17.0947 72.6309 17.7263 72.6309 18.5263C72.6309 19.3263 73.2624 19.9579 74.0624 19.9579C74.8624 19.9579 75.494 19.3263 75.494 18.5263C75.494 17.7263 74.8624 17.0947 74.0624 17.0947Z" fill="#281946"/>
<path fill-rule="evenodd" clip-rule="evenodd" d="M69.7685 12.7998C68.9685 12.7998 68.3369 13.4314 68.3369 14.2314C68.3369 15.0314 68.9685 15.6629 69.7685 15.6629C70.5685 15.6629 71.2 15.0314 71.2 14.2314C71.2422 13.4735 70.5685 12.7998 69.7685 12.7998Z" fill="#281946"/>
<path fill-rule="evenodd" clip-rule="evenodd" d="M183.872 17.0947C183.072 17.0947 182.44 17.7263 182.44 18.5263C182.44 19.3263 183.072 19.9579 183.872 19.9579C184.672 19.9579 185.304 19.3263 185.304 18.5263C185.346 17.7263 184.672 17.0947 183.872 17.0947Z" fill="#281946"/>
<path fill-rule="evenodd" clip-rule="evenodd" d="M171.03 0C170.23 0 169.599 0.631574 169.599 1.43157C169.599 2.23156 170.23 2.86313 171.03 2.86313C171.83 2.86313 172.462 2.23156 172.462 1.43157C172.504 0.631574 171.83 0 171.03 0Z" fill="#281946"/>
<path fill-rule="evenodd" clip-rule="evenodd" d="M171.03 4.25244C170.23 4.25244 169.599 4.88401 169.599 5.68401C169.599 6.484 170.23 7.11558 171.03 7.11558C171.83 7.11558 172.462 6.484 172.462 5.68401C172.504 4.92612 171.83 4.25244 171.03 4.25244Z" fill="#281946"/>
<path fill-rule="evenodd" clip-rule="evenodd" d="M181.051 18.5263C181.051 17.7263 180.419 17.0947 179.619 17.0947C178.819 17.0947 178.188 17.7263 178.188 18.5263C178.188 19.3263 178.819 19.9579 179.619 19.9579C180.377 20 181.051 19.3263 181.051 18.5263Z" fill="#281946"/>
<path fill-rule="evenodd" clip-rule="evenodd" d="M155.578 0.884275C154.862 0.547436 153.978 0.884274 153.683 1.60006C153.346 2.31584 153.683 3.20004 154.399 3.49478C154.609 3.57899 154.778 3.62109 154.988 3.62109C155.536 3.62109 156.083 3.28426 156.294 2.779C156.63 2.06321 156.294 1.22111 155.578 0.884275Z" fill="#281946"/>
<path fill-rule="evenodd" clip-rule="evenodd" d="M144.757 15.5366C144.252 16.1261 144.294 17.0524 144.883 17.5577C145.178 17.8103 145.515 17.8945 145.81 17.8945C146.231 17.8945 146.61 17.7261 146.904 17.3893C147.41 16.7998 147.368 15.8735 146.778 15.3682C146.189 14.863 145.262 14.9051 144.757 15.5366Z" fill="#281946"/>
<path fill-rule="evenodd" clip-rule="evenodd" d="M144.631 12.0002C144.42 11.2423 143.62 10.7792 142.82 11.0318C142.062 11.2423 141.599 12.0844 141.852 12.8423C142.02 13.4739 142.609 13.8949 143.241 13.8949C143.367 13.8949 143.536 13.8949 143.662 13.8528C144.42 13.5581 144.841 12.7581 144.631 12.0002Z" fill="#281946"/>
<path fill-rule="evenodd" clip-rule="evenodd" d="M150.441 17.0103C149.641 16.884 148.926 17.4314 148.799 18.2314C148.673 19.0314 149.22 19.7471 150.02 19.8734H150.231C150.947 19.8734 151.578 19.3682 151.663 18.6103C151.789 17.8524 151.241 17.1366 150.441 17.0103V17.0103Z" fill="#281946"/>
<path fill-rule="evenodd" clip-rule="evenodd" d="M150.188 2.98966H150.398C151.198 2.86335 151.746 2.14756 151.62 1.34757C151.493 0.547574 150.777 0.000209807 149.977 0.126525C149.177 0.252839 148.63 0.968624 148.756 1.76862C148.883 2.4423 149.472 2.98966 150.188 2.98966Z" fill="#281946"/>
<path fill-rule="evenodd" clip-rule="evenodd" d="M145.809 4.9684C146.146 4.9684 146.483 4.84209 146.778 4.58946C147.367 4.0842 147.451 3.15789 146.904 2.52632C146.399 1.93685 145.472 1.85264 144.841 2.4C144.251 2.90526 144.167 3.83157 144.714 4.46314C145.009 4.79998 145.43 4.9684 145.809 4.9684V4.9684Z" fill="#281946"/>
<path fill-rule="evenodd" clip-rule="evenodd" d="M142.82 8.96837C142.946 9.01048 143.073 9.01048 143.241 9.01048C143.873 9.01048 144.462 8.58943 144.631 7.95785C144.841 7.19996 144.42 6.39997 143.662 6.14734C142.904 5.93682 142.104 6.35787 141.852 7.11576C141.599 7.95785 142.062 8.75785 142.82 8.96837Z" fill="#281946"/>
<path fill-rule="evenodd" clip-rule="evenodd" d="M104.547 8.54736C103.747 8.54736 103.115 9.17894 103.115 9.97893C103.115 10.7789 103.747 11.4105 104.547 11.4105C105.347 11.4105 105.978 10.7789 105.978 9.97893C106.02 9.17894 105.347 8.54736 104.547 8.54736Z" fill="#281946"/>
<path fill-rule="evenodd" clip-rule="evenodd" d="M95.831 4.25244C95.031 4.25244 94.3994 4.88401 94.3994 5.68401C94.3994 6.484 95.031 7.11558 95.831 7.11558C96.631 7.11558 97.2626 6.484 97.2626 5.68401C97.2626 4.92612 96.631 4.25244 95.831 4.25244Z" fill="#281946"/>
<path fill-rule="evenodd" clip-rule="evenodd" d="M95.831 0C95.031 0 94.3994 0.631574 94.3994 1.43157C94.3994 2.23156 95.031 2.86313 95.831 2.86313C96.631 2.86313 97.2626 2.23156 97.2626 1.43157C97.2626 0.631574 96.631 0 95.831 0Z" fill="#281946"/>
<path fill-rule="evenodd" clip-rule="evenodd" d="M104.589 0C103.789 0 103.157 0.631574 103.157 1.43157C103.157 2.23156 103.789 2.86313 104.589 2.86313C105.389 2.86313 106.02 2.23156 106.02 1.43157C106.02 0.631574 105.389 0 104.589 0Z" fill="#281946"/>
<path fill-rule="evenodd" clip-rule="evenodd" d="M108.125 6.35791C107.325 6.35791 106.693 6.98948 106.693 7.78948C106.693 8.58947 107.325 9.22104 108.125 9.22104C108.925 9.22104 109.556 8.58947 109.556 7.78948C109.556 6.98948 108.925 6.35791 108.125 6.35791Z" fill="#281946"/>
<path fill-rule="evenodd" clip-rule="evenodd" d="M108.125 2.18945C107.325 2.18945 106.693 2.82103 106.693 3.62102C106.693 4.42101 107.325 5.05259 108.125 5.05259C108.925 5.05259 109.556 4.42101 109.556 3.62102C109.556 2.82103 108.925 2.18945 108.125 2.18945Z" fill="#281946"/>
<path fill-rule="evenodd" clip-rule="evenodd" d="M45.0527 0C44.2527 0 43.6211 0.631574 43.6211 1.43157C43.6211 2.23156 44.2527 2.86313 45.0527 2.86313C45.8527 2.86313 46.4842 2.23156 46.4842 1.43157C46.4842 0.631574 45.8527 0 45.0527 0Z" fill="#281946"/>
<path fill-rule="evenodd" clip-rule="evenodd" d="M49.4736 0C48.6736 0 48.042 0.631574 48.042 1.43157C48.042 2.23156 48.6736 2.86313 49.4736 2.86313C50.2736 2.86313 50.9051 2.23156 50.9051 1.43157C50.9051 0.631574 50.2736 0 49.4736 0Z" fill="#281946"/>
<path fill-rule="evenodd" clip-rule="evenodd" d="M53.6835 1.1792C52.8835 1.1792 52.252 1.81077 52.252 2.61077C52.252 3.41076 52.8835 4.04234 53.6835 4.04234C54.4835 4.04234 55.1151 3.41076 55.1151 2.61077C55.1572 1.81077 54.5256 1.1792 53.6835 1.1792Z" fill="#281946"/>
<path fill-rule="evenodd" clip-rule="evenodd" d="M56.7577 4.29492C55.9577 4.29492 55.3262 4.9265 55.3262 5.72649C55.3262 6.52648 55.9577 7.15806 56.7577 7.15806C57.5577 7.15806 58.1893 6.52648 58.1893 5.72649C58.2314 4.9686 57.5577 4.29492 56.7577 4.29492Z" fill="#281946"/>
<path fill-rule="evenodd" clip-rule="evenodd" d="M45.0527 4.25244C44.2527 4.25244 43.6211 4.88401 43.6211 5.68401C43.6211 6.484 44.2527 7.11558 45.0527 7.11558C45.8527 7.11558 46.4842 6.484 46.4842 5.68401C46.5263 4.92612 45.8527 4.25244 45.0527 4.25244Z" fill="#281946"/>
<path fill-rule="evenodd" clip-rule="evenodd" d="M45.0527 17.0947C44.2527 17.0947 43.6211 17.7263 43.6211 18.5263C43.6211 19.3263 44.2527 19.9579 45.0527 19.9579C45.8527 19.9579 46.4842 19.3263 46.4842 18.5263C46.5263 17.7684 45.8527 17.0947 45.0527 17.0947Z" fill="#281946"/>
<path fill-rule="evenodd" clip-rule="evenodd" d="M45.0527 12.7998C44.2527 12.7998 43.6211 13.4314 43.6211 14.2314C43.6211 15.0314 44.2527 15.6629 45.0527 15.6629C45.8527 15.6629 46.4842 15.0314 46.4842 14.2314C46.5263 13.4735 45.8527 12.7998 45.0527 12.7998Z" fill="#281946"/>
<path fill-rule="evenodd" clip-rule="evenodd" d="M45.0527 8.54736C44.2527 8.54736 43.6211 9.17894 43.6211 9.97893C43.6211 10.7789 44.2527 11.4105 45.0527 11.4105C45.8527 11.4105 46.4842 10.7789 46.4842 9.97893C46.5263 9.17894 45.8527 8.54736 45.0527 8.54736Z" fill="#281946"/>
<path fill-rule="evenodd" clip-rule="evenodd" d="M100.21 0C99.4099 0 98.7783 0.631574 98.7783 1.43157C98.7783 2.23156 99.4099 2.86313 100.21 2.86313C101.01 2.86313 101.641 2.23156 101.641 1.43157C101.641 0.631574 101.01 0 100.21 0Z" fill="#281946"/>
<path fill-rule="evenodd" clip-rule="evenodd" d="M57.8945 8.54736C57.1367 8.54736 56.5472 9.17894 56.5472 9.89472V9.97893C56.5472 13.8947 53.3472 17.1368 49.3893 17.1789C48.6315 17.1789 48.042 17.8104 48.042 18.5262C48.042 19.2841 48.6736 19.8736 49.3893 19.8736C54.8209 19.8315 59.1998 15.3684 59.1998 9.97893V9.85262C59.2419 9.13683 58.6524 8.54736 57.8945 8.54736V8.54736Z" fill="#627CFF"/>
<path fill-rule="evenodd" clip-rule="evenodd" d="M78.4418 8.63151H71.1576V1.34736C71.1576 0.589469 70.5681 0 69.8102 0C69.0524 0 68.4629 0.589469 68.4629 1.34736V9.97887C68.4629 10.7368 69.0524 11.3262 69.8102 11.3262H78.4839C79.2418 11.3262 79.8312 10.7368 79.8312 9.97887C79.7891 9.26308 79.1996 8.63151 78.4418 8.63151V8.63151Z" fill="#627CFF"/>
<path fill-rule="evenodd" clip-rule="evenodd" d="M5.72649 0C4.9265 0 4.29492 0.631574 4.29492 1.43157C4.29492 2.23156 4.9265 2.86313 5.72649 2.86313C6.52648 2.86313 7.15806 2.23156 7.15806 1.43157C7.15806 0.631574 6.52648 0 5.72649 0V0Z" fill="#281946"/>
<path fill-rule="evenodd" clip-rule="evenodd" d="M1.43157 0C0.631574 0 0 0.631574 0 1.43157C0 2.23156 0.631574 2.86313 1.43157 2.86313C2.23156 2.86313 2.86314 2.23156 2.86314 1.43157C2.86314 0.631574 2.23156 0 1.43157 0Z" fill="#281946"/>
<path fill-rule="evenodd" clip-rule="evenodd" d="M10.0204 12.8423C9.22044 12.8423 8.58887 13.4739 8.58887 14.2738C8.58887 15.0738 9.22044 15.7054 10.0204 15.7054C10.8204 15.7054 11.452 15.0738 11.452 14.2738C11.452 13.4739 10.8204 12.8423 10.0204 12.8423Z" fill="#281946"/>
<path fill-rule="evenodd" clip-rule="evenodd" d="M10.0204 17.0947C9.22044 17.0947 8.58887 17.7263 8.58887 18.5263C8.58887 19.3263 9.22044 19.9579 10.0204 19.9579C10.8204 19.9579 11.452 19.3263 11.452 18.5263C11.452 17.7263 10.8204 17.0947 10.0204 17.0947Z" fill="#281946"/>
<path fill-rule="evenodd" clip-rule="evenodd" d="M18.5685 0.0839844H10.0212C9.2633 0.0839844 8.67383 0.673454 8.67383 1.43134V9.97864C8.67383 10.7365 9.2633 11.326 10.0212 11.326C10.7791 11.326 11.3685 10.7365 11.3685 9.97864V2.7787H18.5685C19.3264 2.7787 19.9158 2.18923 19.9158 1.43134C19.9158 0.673454 19.3264 0.0839844 18.5685 0.0839844V0.0839844Z" fill="#627CFF"/>
<path fill-rule="evenodd" clip-rule="evenodd" d="M30.2731 8.54736C29.5152 8.54736 28.9258 9.13683 28.9258 9.89472V18.6525C28.9258 19.4104 29.5152 19.9999 30.2731 19.9999C31.031 19.9999 31.6205 19.4104 31.6205 18.6525V9.89472C31.6205 9.13683 31.031 8.54736 30.2731 8.54736Z" fill="#627CFF"/>
<path fill-rule="evenodd" clip-rule="evenodd" d="M100.336 8.63135H95.8308C95.0729 8.63135 94.4834 9.22082 94.4834 9.9787V18.6102C94.4834 19.3681 95.0729 19.9576 95.8308 19.9576C96.5886 19.9576 97.1781 19.3681 97.1781 18.6102V11.3261H100.336C101.094 11.3261 101.683 10.7366 101.683 9.9787C101.683 9.26292 101.094 8.63135 100.336 8.63135Z" fill="#627CFF"/>
<path fill-rule="evenodd" clip-rule="evenodd" d="M175.409 17.1789H172.377V9.89472C172.377 9.13683 171.788 8.54736 171.03 8.54736C170.272 8.54736 169.683 9.13683 169.683 9.89472V18.5683C169.683 19.3262 170.272 19.9157 171.03 19.9157H175.409C176.167 19.9157 176.756 19.3262 176.756 18.5683C176.756 17.8104 176.167 17.1789 175.409 17.1789V17.1789Z" fill="#627CFF"/>
<path fill-rule="evenodd" clip-rule="evenodd" d="M132.672 6.77876C132.925 6.77876 133.22 6.69455 133.472 6.52613C134.146 6.10508 134.314 5.17877 133.893 4.50509C133.472 3.83142 132.546 3.663 131.872 4.08405C131.199 4.50509 131.03 5.4314 131.451 6.10508C131.746 6.56824 132.209 6.77876 132.672 6.77876V6.77876Z" fill="#281946"/>
<path fill-rule="evenodd" clip-rule="evenodd" d="M128.462 16.4633C127.747 16.8001 127.41 17.6422 127.747 18.4001C127.999 18.9475 128.504 19.2422 129.052 19.2422C129.262 19.2422 129.473 19.2001 129.641 19.1159C130.357 18.7791 130.694 17.937 130.357 17.1791C130.02 16.4212 129.178 16.1265 128.462 16.4633Z" fill="#281946"/>
<path fill-rule="evenodd" clip-rule="evenodd" d="M133.472 13.3892C132.799 12.9682 131.914 13.1366 131.451 13.8103C131.03 14.4839 131.199 15.3682 131.872 15.7892C132.125 15.9576 132.378 16.0418 132.672 16.0418C133.135 16.0418 133.599 15.7892 133.893 15.3682C134.356 14.7366 134.146 13.8103 133.472 13.3892V13.3892Z" fill="#281946"/>
<path fill-rule="evenodd" clip-rule="evenodd" d="M124.504 17.0103C123.704 16.884 122.988 17.4314 122.862 18.2314C122.736 19.0314 123.283 19.7471 124.083 19.8734H124.293C125.009 19.8734 125.641 19.3682 125.725 18.6103C125.809 17.8524 125.262 17.1366 124.504 17.0103V17.0103Z" fill="#281946"/>
<path fill-rule="evenodd" clip-rule="evenodd" d="M118.82 15.5366C118.315 16.1261 118.357 17.0524 118.947 17.5577C119.242 17.8103 119.578 17.8945 119.873 17.8945C120.294 17.8945 120.673 17.7261 120.968 17.3893C121.473 16.7998 121.431 15.8735 120.842 15.3682C120.252 14.863 119.326 14.9051 118.82 15.5366Z" fill="#281946"/>
<path fill-rule="evenodd" clip-rule="evenodd" d="M134.019 8.50537C133.219 8.50537 132.588 9.17905 132.588 9.97904V10.0211C132.588 10.8211 133.219 11.4527 134.019 11.4527C134.819 11.4527 135.451 10.8211 135.451 10.0211V9.97904C135.493 9.13694 134.819 8.50537 134.019 8.50537Z" fill="#281946"/>
<path fill-rule="evenodd" clip-rule="evenodd" d="M118.652 12.0002C118.442 11.2423 117.642 10.7792 116.842 11.0318C116.084 11.2423 115.62 12.0844 115.873 12.8423C116.042 13.4739 116.631 13.8949 117.263 13.8949C117.389 13.8949 117.557 13.8949 117.684 13.8528C118.442 13.5581 118.905 12.7581 118.652 12.0002Z" fill="#281946"/>
<path fill-rule="evenodd" clip-rule="evenodd" d="M128.42 3.49478C128.631 3.57899 128.799 3.62109 129.01 3.62109C129.557 3.62109 130.104 3.32636 130.315 2.779C130.652 2.06321 130.315 1.17901 129.599 0.884275C128.883 0.547436 127.999 0.884274 127.662 1.60006C127.368 2.31584 127.704 3.20004 128.42 3.49478Z" fill="#281946"/>
<path fill-rule="evenodd" clip-rule="evenodd" d="M124.125 0.168329C120.293 0.715693 117.135 3.45251 115.999 7.15774C115.788 7.87353 116.209 8.63142 116.925 8.84194C117.051 8.88405 117.178 8.88405 117.262 8.88405C117.851 8.88405 118.399 8.5051 118.609 7.91563C119.409 5.22092 121.725 3.24199 124.504 2.86304C125.262 2.77883 125.767 2.06305 125.641 1.34727C125.514 0.589378 124.841 0.084119 124.125 0.168329V0.168329Z" fill="#627CFF"/>
<path fill-rule="evenodd" clip-rule="evenodd" d="M157.977 4.33669C157.346 4.71563 157.135 5.55773 157.556 6.1893C158.272 7.32614 158.651 8.63139 158.651 9.97875C158.651 12.8419 156.967 15.4524 154.314 16.5892C153.641 16.884 153.304 17.6839 153.598 18.3576C153.809 18.8629 154.314 19.1576 154.819 19.1576C154.988 19.1576 155.198 19.1155 155.367 19.0313C158.988 17.4734 161.304 13.8945 161.304 9.93664C161.304 8.08403 160.798 6.27351 159.83 4.71563C159.451 4.12616 158.609 3.91564 157.977 4.33669V4.33669Z" fill="#627CFF"/>
</g>
<defs>
<clipPath id="clip0_2964_10699">
<rect width="185" height="20" fill="white"/>
</clipPath>
</defs>
</svg>
