<svg xmlns="http://www.w3.org/2000/svg" viewBox="0 0 742.97 215.43">
  <defs>
    <style>.cls-1{fill:#00a3e2;}</style>
  </defs>
  <g id="Calque_2" data-name="Calque 2">
    <g id="Calque_1-2" data-name="Calque 1">
      <path class="cls-1" d="M0,0V215.43H743V0ZM734.49,207H73.25L124.93,8.48H734.49Z"/>
      <path class="cls-1"
            d="M144.18,75.41,164,108.32v20.85h-6v10.27h25.65V129.17h-5.91V108.32l19.81-32.91h3.71V65H179.77V75.41h4.13L172.58,94.9a27.66,27.66,0,0,0-1.68,3.35h-.21a19.34,19.34,0,0,0-1.57-3.35L157.8,75.41H162V65H141.37l-2,10.37Z"/>
      <path class="cls-1"
            d="M227.15,140.7c16.24,0,29.34-11.53,29.34-28s-13.1-28-29.44-28-29.34,11.63-29.34,28S210.8,140.7,227.15,140.7Zm0-44.65c8.59,0,15.83,6.82,15.83,16.67s-7.24,16.66-15.83,16.66-15.93-6.71-15.93-16.66S218.45,96.05,227.15,96.05Z"/>
      <path class="cls-1"
            d="M269.63,120.37c0,14.56,6.82,20.33,17.51,20.33,13.41,0,18.86-10,19.49-11.74h.21s-.11,1.15-.11,2.51v2c0,3.77,2.2,6,6.92,6h12.2v-9.85h-4.13a2.1,2.1,0,0,1-2.31-2.31V86H300.93V96h5.17v13.83c0,9.64-5.55,19.07-14.77,19.07-6.71,0-8.39-4.4-8.39-10.79V86H264.36V96h5.27Z"/>
      <path class="cls-1"
            d="M345.56,98.25v31.23h-7.75v10h28.71v-10h-7.65V117.85c0-10.06,4.82-19.49,15.62-19.49a23.5,23.5,0,0,1,3.24.21V85.47a15.16,15.16,0,0,0-2.41-.21c-8.17,0-14.56,6.08-17,13.73h-.21a24.26,24.26,0,0,0,.21-3.35V92.49c0-4.51-2.41-6.5-7.13-6.5H337.28V96h6A2.1,2.1,0,0,1,345.56,98.25Z"/>
      <polygon class="cls-1"
               points="435.56 119.91 423.82 119.91 423.82 128.44 405.81 128.44 405.81 76.04 411.83 76.04 411.83 65.04 388.18 65.04 385.18 76.04 392.09 76.04 392.09 129.17 385.18 129.17 385.18 139.44 435.56 139.44 435.56 119.91"/>
      <path class="cls-1"
            d="M471.18,140.7c16.24,0,29.34-11.53,29.34-28s-13.1-28-29.44-28-29.35,11.63-29.35,28S454.83,140.7,471.18,140.7Zm0-44.65c8.59,0,15.82,6.82,15.82,16.67s-7.23,16.66-15.82,16.66-15.93-6.71-15.93-16.66S462.48,96.05,471.18,96.05Z"/>
      <path class="cls-1"
            d="M537.09,140.7c16.24,0,29.34-11.53,29.34-28s-13.1-28-29.44-28-29.35,11.63-29.35,28S520.74,140.7,537.09,140.7Zm0-44.65c8.59,0,15.82,6.82,15.82,16.67s-7.23,16.66-15.82,16.66-15.93-6.71-15.93-16.66S528.39,96.05,537.09,96.05Z"/>
      <path class="cls-1"
            d="M578.89,98.25v52.19h-5.76v10H598v-10H592.2V137.76a30.51,30.51,0,0,0-.32-4.61h.21a18.65,18.65,0,0,0,15.41,7.55c14,0,24.41-11,24.41-28,0-16.56-9.22-28-23.68-28-12.58,0-17.19,9-17.19,9h-.21s.11-1.15.11-2.41V91c0-2.72-1.68-5-6.6-5H572.61V96h4A2.1,2.1,0,0,1,578.89,98.25Zm28.3-2.09c7.86,0,13.31,6.6,13.31,16.77,0,10.58-6.08,16.55-13.41,16.55-8.7,0-13.31-8.17-13.31-16.45C593.78,101.19,600.27,96.16,607.19,96.16Z"/>
      <path class="cls-1"
            d="M656.1,116.59c7.13,2.62,12.16,3.78,12.16,8.28,0,3.57-3.77,5.45-9.12,5.45-7.91,0-15.27-2.15-16.8-4.4l-3,11.42c3.88,1.58,8.54,3.36,19.67,3.36,12.26,0,22.53-5.45,22.53-16.25,0-10.48-9.64-13.83-17.82-16.45-6-1.78-11.21-3.56-11.21-8,0-3.36,3.56-4.82,7.76-4.82,8.21,0,14.86,2.83,16.07,4.29l2.93-11.23c-3.3-1.07-11.58-3.54-19-3.54-9.75,0-21.07,4-21.07,15.3C639.23,110.2,648.24,113.87,656.1,116.59Z"/>
    </g>
  </g>
</svg>
