<?xml version="1.0" encoding="utf-8"?>
<!-- Generator: Adobe Illustrator 16.0.0, SVG Export Plug-In . SVG Version: 6.00 Build 0)  -->
<!DOCTYPE svg PUBLIC "-//W3C//DTD SVG 1.1//EN" "http://www.w3.org/Graphics/SVG/1.1/DTD/svg11.dtd">
<svg version="1.1" id="Layer_1" xmlns="http://www.w3.org/2000/svg" xmlns:xlink="http://www.w3.org/1999/xlink" x="0px" y="0px"
	 width="24.169px" height="24.172px" viewBox="0 0 24.169 24.172" enable-background="new 0 0 24.169 24.172" xml:space="preserve">
<g opacity="0.7">
	<g>
		<path fill="#FFFFFF" d="M4.529,4.199C2.75,5.978,1.725,8.215,1.43,10.529l-0.396,12.61l12.611-0.395
			c2.314-0.297,4.553-1.32,6.332-3.098c4.264-4.266,4.264-11.182-0.002-15.449C15.711-0.066,8.793-0.066,4.529,4.199z"/>
		<path fill="#9BCB5C" d="M12.252,1c2.794,0,5.589,1.066,7.722,3.198c4.266,4.267,4.266,11.183,0.002,15.449
			c-1.779,1.777-4.018,2.801-6.332,3.098L1.033,23.139l0.396-12.61c0.295-2.314,1.32-4.552,3.099-6.33C6.662,2.066,9.457,1,12.252,1
			 M12.252,0C9.067,0,6.073,1.24,3.822,3.492c-1.876,1.875-3.046,4.265-3.384,6.911L0.432,10.45L0.43,10.498l-0.396,12.61L0,24.172
			l1.064-0.034l12.611-0.395l0.049-0.001l0.047-0.006c2.646-0.34,5.037-1.51,6.912-3.383c4.648-4.649,4.646-12.214-0.002-16.863
			C18.43,1.24,15.438,0,12.252,0L12.252,0z"/>
	</g>
</g>
</svg>
