<?xml version="1.0" encoding="utf-8"?>
<!-- Generator: Adobe Illustrator 16.0.0, SVG Export Plug-In . SVG Version: 6.00 Build 0)  -->
<!DOCTYPE svg PUBLIC "-//W3C//DTD SVG 1.1//EN" "http://www.w3.org/Graphics/SVG/1.1/DTD/svg11.dtd">
<svg version="1.1" id="Layer_1" xmlns="http://www.w3.org/2000/svg" xmlns:xlink="http://www.w3.org/1999/xlink" x="0px" y="0px"
	 width="24.168px" height="24.172px" viewBox="0 0 24.168 24.172" enable-background="new 0 0 24.168 24.172" xml:space="preserve">
<g opacity="0.7">
	<g>
		<path fill="#FFFFFF" d="M4.192,4.197C-0.074,8.464-0.074,15.38,4.19,19.646c1.779,1.777,4.018,2.801,6.332,3.098l12.611,0.395
			l-0.396-12.61c-0.295-2.314-1.32-4.551-3.099-6.33C15.374-0.066,8.456-0.066,4.192,4.197z"/>
		<path fill="#9BCB5C" d="M11.915,1c2.794,0,5.589,1.066,7.724,3.199c1.779,1.778,2.804,4.016,3.099,6.33l0.396,12.61l-12.61-0.394
			c-2.313-0.298-4.553-1.321-6.332-3.099C-0.074,15.381-0.074,8.465,4.193,4.198C6.327,2.066,9.122,1,11.915,1 M11.915,0
			C8.729,0,5.737,1.24,3.486,3.49c-4.647,4.649-4.649,12.214-0.002,16.864c1.875,1.873,4.267,3.043,6.912,3.383l0.047,0.006
			l0.05,0.001l12.61,0.396l1.063,0.033l-0.033-1.064l-0.396-12.609l-0.002-0.048l-0.006-0.047c-0.338-2.646-1.508-5.036-3.384-6.911
			C18.094,1.24,15.1,0,11.915,0L11.915,0z"/>
	</g>
</g>
</svg>
