<?xml version="1.0" encoding="utf-8"?>
<!-- Generator: Adobe Illustrator 16.0.0, SVG Export Plug-In . SVG Version: 6.00 Build 0)  -->
<!DOCTYPE svg PUBLIC "-//W3C//DTD SVG 1.1//EN" "http://www.w3.org/Graphics/SVG/1.1/DTD/svg11.dtd">
<svg version="1.1" id="Layer_1" xmlns="http://www.w3.org/2000/svg" xmlns:xlink="http://www.w3.org/1999/xlink" x="0px" y="0px"
	 width="24.168px" height="24.172px" viewBox="0 0 24.168 24.172" enable-background="new 0 0 24.168 24.172" xml:space="preserve">
<g opacity="0.7">
	<g>
		<path fill="#FFFFFF" d="M4.193,19.977c-4.267-4.268-4.267-11.184-0.002-15.45c1.779-1.778,4.019-2.801,6.332-3.098l12.61-0.395
			l-0.396,12.608c-0.295,2.314-1.32,4.553-3.099,6.33C15.374,24.238,8.456,24.238,4.193,19.977z"/>
		<path fill="#B29AC9" d="M11.915,23.172c-2.795,0-5.59-1.066-7.722-3.195c-4.267-4.268-4.267-11.184-0.002-15.45
			c1.779-1.778,4.019-2.801,6.332-3.098l12.61-0.395l-0.396,12.608c-0.295,2.314-1.319,4.553-3.099,6.33
			C17.506,22.107,14.711,23.172,11.915,23.172 M11.915,24.172c3.185,0,6.179-1.24,8.431-3.492c1.876-1.875,3.046-4.264,3.384-6.91
			l0.006-0.047l0.001-0.049l0.396-12.61L24.167,0l-1.063,0.035L10.491,0.429L10.442,0.43l-0.046,0.006
			c-2.646,0.34-5.037,1.51-6.912,3.383c-4.647,4.649-4.646,12.214,0.002,16.863C5.738,22.934,8.73,24.172,11.915,24.172
			L11.915,24.172z"/>
	</g>
</g>
</svg>
