<?xml version="1.0" encoding="utf-8"?>
<!-- Generator: Adobe Illustrator 16.0.0, SVG Export Plug-In . SVG Version: 6.00 Build 0)  -->
<!DOCTYPE svg PUBLIC "-//W3C//DTD SVG 1.1//EN" "http://www.w3.org/Graphics/SVG/1.1/DTD/svg11.dtd">
<svg version="1.1" id="Layer_1" xmlns="http://www.w3.org/2000/svg" xmlns:xlink="http://www.w3.org/1999/xlink" x="0px" y="0px"
	 width="24.169px" height="24.172px" viewBox="0 0 24.169 24.172" enable-background="new 0 0 24.169 24.172" xml:space="preserve">
<g opacity="0.7">
	<g>
		<path fill="#FFFFFF" d="M4.529,19.973c-1.779-1.777-2.804-4.016-3.099-6.33L1.033,1.034l12.611,0.395
			c2.314,0.297,4.553,1.32,6.332,3.098c4.264,4.266,4.264,11.182-0.002,15.449C15.711,24.239,8.793,24.239,4.529,19.973z"/>
		<path fill="#B29AC9" d="M12.252,23.172c-2.796,0-5.591-1.065-7.724-3.199c-1.779-1.777-2.804-4.016-3.099-6.33L1.033,1.034
			l12.611,0.395c2.314,0.297,4.553,1.32,6.332,3.098c4.264,4.266,4.264,11.182-0.002,15.449
			C17.842,22.106,15.047,23.172,12.252,23.172 M12.252,24.172c3.185,0,6.177-1.239,8.429-3.49c4.648-4.649,4.65-12.214,0.002-16.863
			c-1.875-1.873-4.266-3.043-6.912-3.383L13.725,0.43l-0.049-0.001L1.064,0.035L0,0l0.034,1.064L0.43,13.674l0.001,0.049
			l0.006,0.047c0.338,2.646,1.508,5.035,3.384,6.91C6.073,22.932,9.067,24.172,12.252,24.172L12.252,24.172z"/>
	</g>
</g>
</svg>
