<svg width="260" height="114" viewBox="0 0 260 114" fill="none" xmlns="http://www.w3.org/2000/svg">
<rect y="0.947815" width="259.546" height="112.104" rx="24.3705" fill="#FFE8CF"/>
<rect x="22.5429" y="78.3242" width="215.679" height="12.1853" rx="6.09263" fill="#FFE8CF" stroke="#CC6D00" stroke-width="1.21853"/>
<rect x="22.5429" y="81.9797" width="212.023" height="4.8741" rx="2.43705" fill="#CC6D00" stroke="#CC6D00" stroke-width="1.21853"/>
<path d="M187.537 56.5629H214.398H221.893C223.846 56.5629 225.43 54.9793 225.43 53.0258V24.7629C225.43 22.8094 223.846 21.2257 221.893 21.2257H187.537C185.584 21.2257 184 22.8094 184 24.7629V53.0258C184 54.9793 185.584 56.5629 187.537 56.5629Z" fill="#CC6D00" stroke="#CC6D00" stroke-width="1.21853"/>
<path d="M185.098 54.5629H211.959H219.453C221.407 54.5629 222.99 52.9793 222.99 51.0258V22.7629C222.99 20.8094 221.407 19.2257 219.453 19.2257H185.098C183.144 19.2257 181.561 20.8094 181.561 22.7629V51.0258C181.561 52.9793 183.144 54.5629 185.098 54.5629Z" fill="white" stroke="#CC6D00" stroke-width="1.21853"/>
<path fill-rule="evenodd" clip-rule="evenodd" d="M192.734 48.0529H212.634C214.669 48.0529 215.937 45.8205 214.92 44.0427L204.97 26.6518C203.953 24.8739 201.416 24.8739 200.398 26.6518L190.448 44.0427C189.431 45.8205 190.699 48.0529 192.734 48.0529ZM202.683 38.6956C201.956 38.6956 201.362 38.0941 201.362 37.3589V34.6854C201.362 33.9502 201.956 33.3487 202.683 33.3487C203.41 33.3487 204.004 33.9502 204.004 34.6854V37.3589C204.004 38.0941 203.41 38.6956 202.683 38.6956ZM201.362 44.044H204.004V41.3693H201.362V44.044Z" fill="#CC6D00"/>
<path d="M237.003 80.7612L221.771 53.9537" stroke="#CC6D00" stroke-width="1.21853"/>
<path d="M26.5289 59.0934C27.2479 59.9098 27.6134 60.9699 27.6134 62.2981C27.6134 63.6263 27.2479 64.6986 26.5289 65.515C25.81 66.3314 24.8961 66.7335 23.7629 66.7335C22.6418 66.7335 21.7158 66.3314 20.9968 65.515C20.2779 64.6986 19.9123 63.6263 19.9123 62.2981C19.9123 60.9699 20.2779 59.9098 20.9968 59.0934C21.7158 58.277 22.6418 57.8627 23.7629 57.8627C24.8961 57.8627 25.81 58.277 26.5289 59.0934ZM22.1422 64.4549C22.5444 64.9788 23.0927 65.2469 23.7629 65.2469C24.4331 65.2469 24.9814 64.991 25.3835 64.4671C25.7978 63.9431 26.005 63.2242 26.005 62.3103C26.005 61.3964 25.7978 60.6653 25.3835 60.1413C24.9814 59.6173 24.4331 59.3493 23.7629 59.3493C23.0927 59.3493 22.5444 59.6173 22.1301 60.1413C21.7279 60.6653 21.5208 61.3964 21.5208 62.3103C21.5208 63.2242 21.7279 63.9309 22.1422 64.4549Z" fill="#CC6D00"/>
<path d="M69.9791 63.017L68.724 62.688L69.1261 58.0332H74.4145V59.5199H70.2472L70.04 61.4817C70.4909 61.0065 71.2585 60.7384 71.9409 60.7384C73.854 60.7384 74.9507 61.8472 74.9507 63.6385C74.9507 64.5158 74.646 65.2469 74.0368 65.844C73.4397 66.4411 72.6477 66.7335 71.685 66.7335C70.759 66.7335 70.0157 66.4898 69.4673 66.0146C68.919 65.5394 68.6509 64.9667 68.6509 64.2965C68.6509 64.0649 68.6875 63.8456 68.7728 63.6263L70.3081 63.9918C70.2715 64.1015 70.2594 64.2112 70.2594 64.3087C70.2594 64.9788 70.8199 65.3688 71.6972 65.3688C72.672 65.3688 73.3422 64.723 73.3422 63.6385C73.3422 62.6149 72.6842 61.9813 71.6972 61.9813C71.027 61.9813 70.3812 62.3712 69.9791 63.017ZM82.6322 59.0934C83.3512 59.9098 83.7167 60.9699 83.7167 62.2981C83.7167 63.6263 83.3512 64.6986 82.6322 65.515C81.9133 66.3314 80.9994 66.7335 79.8662 66.7335C78.7451 66.7335 77.8191 66.3314 77.1001 65.515C76.3812 64.6986 76.0157 63.6263 76.0157 62.2981C76.0157 60.9699 76.3812 59.9098 77.1001 59.0934C77.8191 58.277 78.7451 57.8627 79.8662 57.8627C80.9994 57.8627 81.9133 58.277 82.6322 59.0934ZM78.2456 64.4549C78.6477 64.9788 79.196 65.2469 79.8662 65.2469C80.5364 65.2469 81.0847 64.991 81.4868 64.4671C81.9011 63.9431 82.1083 63.2242 82.1083 62.3103C82.1083 61.3964 81.9011 60.6653 81.4868 60.1413C81.0847 59.6173 80.5364 59.3493 79.8662 59.3493C79.196 59.3493 78.6477 59.6173 78.2334 60.1413C77.8313 60.6653 77.6241 61.3964 77.6241 62.3103C77.6241 63.2242 77.8313 63.9309 78.2456 64.4549Z" fill="#CC6D00"/>
<path d="M119.751 60.5922V59.1056C120.69 59.1056 121.262 58.7644 121.64 58.0332H123.151V66.5629H121.543V60.0194C121.092 60.4581 120.592 60.5922 119.751 60.5922ZM131.151 59.0934C131.87 59.9098 132.236 60.9699 132.236 62.2981C132.236 63.6263 131.87 64.6986 131.151 65.515C130.432 66.3314 129.519 66.7335 128.385 66.7335C127.264 66.7335 126.338 66.3314 125.619 65.515C124.9 64.6986 124.535 63.6263 124.535 62.2981C124.535 60.9699 124.9 59.9098 125.619 59.0934C126.338 58.277 127.264 57.8627 128.385 57.8627C129.519 57.8627 130.432 58.277 131.151 59.0934ZM126.765 64.4549C127.167 64.9788 127.715 65.2469 128.385 65.2469C129.056 65.2469 129.604 64.991 130.006 64.4671C130.42 63.9431 130.627 63.2242 130.627 62.3103C130.627 61.3964 130.42 60.6653 130.006 60.1413C129.604 59.6173 129.056 59.3493 128.385 59.3493C127.715 59.3493 127.167 59.6173 126.753 60.1413C126.35 60.6653 126.143 61.3964 126.143 62.3103C126.143 63.2242 126.35 63.9309 126.765 64.4549ZM139.945 59.0934C140.664 59.9098 141.03 60.9699 141.03 62.2981C141.03 63.6263 140.664 64.6986 139.945 65.515C139.226 66.3314 138.312 66.7335 137.179 66.7335C136.058 66.7335 135.132 66.3314 134.413 65.515C133.694 64.6986 133.329 63.6263 133.329 62.2981C133.329 60.9699 133.694 59.9098 134.413 59.0934C135.132 58.277 136.058 57.8627 137.179 57.8627C138.312 57.8627 139.226 58.277 139.945 59.0934ZM135.559 64.4549C135.961 64.9788 136.509 65.2469 137.179 65.2469C137.849 65.2469 138.398 64.991 138.8 64.4671C139.214 63.9431 139.421 63.2242 139.421 62.3103C139.421 61.3964 139.214 60.6653 138.8 60.1413C138.398 59.6173 137.849 59.3493 137.179 59.3493C136.509 59.3493 135.961 59.6173 135.546 60.1413C135.144 60.6653 134.937 61.3964 134.937 62.3103C134.937 63.2242 135.144 63.9309 135.559 64.4549Z" fill="#CC6D00"/>
<path d="M75.5488 71.6223V78.9335" stroke="#CC6D00" stroke-width="1.21853"/>
<path d="M129.164 71.6223V78.9335" stroke="#CC6D00" stroke-width="1.21853"/>
<path d="M22.543 71.6223V85.0261" stroke="#CC6D00" stroke-width="1.21853"/>
<path d="M182.779 71.6223V78.9335" stroke="#CC6D00" stroke-width="1.21853"/>
</svg>
