<?xml version="1.0" encoding="utf-8"?>
<!-- Generator: Adobe Illustrator 16.0.0, SVG Export Plug-In . SVG Version: 6.00 Build 0)  -->
<!DOCTYPE svg PUBLIC "-//W3C//DTD SVG 1.1//EN" "http://www.w3.org/Graphics/SVG/1.1/DTD/svg11.dtd">
<svg version="1.1" id="Layer_1" xmlns="http://www.w3.org/2000/svg" xmlns:xlink="http://www.w3.org/1999/xlink" x="0px" y="0px"
	 width="16px" height="16px" viewBox="-0.5 -0.5 16 16" enable-background="new -0.5 -0.5 16 16" xml:space="preserve">
<symbol  id="h_3" viewBox="-6.887 -6.887 13.774 13.773">
	<path fill="#B99BEA" d="M0,4.928c1.262,0,2.522-0.479,3.485-1.442c1.925-1.925,1.925-5.045,0-6.97C2.522-4.447,1.262-4.93,0-4.93
		s-2.521,0.481-3.484,1.444c-1.926,1.925-1.926,5.045,0,6.97C-2.521,4.447-1.261,4.928,0,4.928 M0,6.887
		c-1.839,0-3.568-0.717-4.869-2.018C-6.17,3.568-6.887,1.84-6.887,0s0.717-3.568,2.018-4.869C-3.568-6.17-1.839-6.887,0-6.887
		c1.84,0,3.568,0.717,4.869,2.018C6.17-3.568,6.887-1.84,6.887,0S6.17,3.568,4.869,4.869C3.568,6.17,1.84,6.887,0,6.887L0,6.887z"/>
</symbol>
<use xlink:href="#h_3"  width="13.774" height="13.773" x="-6.887" y="-6.887" transform="matrix(1.1616 0 0 -1.1617 7.4995 7.5005)" overflow="visible"/>
</svg>
