<?xml version="1.0" encoding="utf-8"?>
<!-- Generator: Adobe Illustrator 16.0.0, SVG Export Plug-In . SVG Version: 6.00 Build 0)  -->
<!DOCTYPE svg PUBLIC "-//W3C//DTD SVG 1.1//EN" "http://www.w3.org/Graphics/SVG/1.1/DTD/svg11.dtd">
<svg version="1.1" id="Layer_1" xmlns="http://www.w3.org/2000/svg" xmlns:xlink="http://www.w3.org/1999/xlink" x="0px" y="0px"
	 width="16px" height="16px" viewBox="-0.5 -0.5 16 16" enable-background="new -0.5 -0.5 16 16" xml:space="preserve">
<symbol  id="vl_3" viewBox="-6.887 -6.886 13.774 13.772">
	<path fill="#FF8D79" d="M0,6.887c-1.839,0-3.568-0.716-4.869-2.017C-6.17,3.569-6.887,1.841-6.887,0.001s0.717-3.569,2.018-4.87
		C-3.568-6.17-1.839-6.886,0-6.886c1.84,0,3.568,0.717,4.869,2.018c1.301,1.3,2.018,3.029,2.018,4.869S6.17,3.569,4.869,4.87
		C3.568,6.171,1.84,6.887,0,6.887L0,6.887z"/>
</symbol>
<use xlink:href="#vl_3"  width="13.774" height="13.772" x="-6.887" y="-6.886" transform="matrix(1.1616 0 0 -1.1618 7.4995 7.4995)" overflow="visible"/>
</svg>
